<svg width="10" height="15" viewBox="0 0 10 15" fill="none" xmlns="http://www.w3.org/2000/svg">
<path fill-rule="evenodd" clip-rule="evenodd" d="M4.60501 0.00681641C3.3617 0.129363 2.3187 0.614829 1.46407 1.46876C0.275443 2.65643 -0.234659 4.35341 0.101507 6.00169C0.174772 6.36089 0.304902 6.75694 0.456744 7.0828C0.52018 7.21898 1.51251 9.03141 2.6619 11.1104C4.84987 15.0681 4.80888 14.9999 5.00112 14.9999C5.19334 14.9999 5.15238 15.068 7.34128 11.1084C8.4912 9.02824 9.48353 7.21581 9.54647 7.08078C10.0922 5.90955 10.1488 4.49202 9.69808 3.28151C9.4355 2.57616 9.06145 1.9916 8.53818 1.46876C7.77753 0.708762 6.89341 0.252584 5.80801 0.0601154C5.57231 0.0183381 4.82437 -0.0148198 4.60501 0.00681641ZM5.25052 2.51146C5.8801 2.5815 6.39047 2.836 6.82572 3.29702C7.30091 3.80034 7.519 4.3968 7.48629 5.10358C7.46686 5.52276 7.41874 5.71673 7.2444 6.07797C6.93487 6.71944 6.38589 7.18494 5.69065 7.3955C5.4553 7.46677 5.3803 7.47547 5.00112 7.47547C4.62194 7.47547 4.54695 7.46677 4.3116 7.3955C3.80886 7.24325 3.38001 6.95735 3.06089 6.56171C2.87146 6.32688 2.65548 5.90961 2.58022 5.63323C2.50651 5.36248 2.48967 4.79871 2.54688 4.51671C2.76263 3.45269 3.6439 2.63612 4.70771 2.51439C4.82874 2.50055 4.94097 2.48762 4.95711 2.48566C4.97325 2.48369 5.10528 2.4953 5.25052 2.51146Z" fill="#E21717"/>
</svg>
