<svg width="31" height="31" viewBox="0 0 31 31" fill="none" xmlns="http://www.w3.org/2000/svg">
<path fill-rule="evenodd" clip-rule="evenodd" d="M14.3474 0.0167616C11.2758 0.292388 8.53955 1.33091 6.11498 3.14138C5.35069 3.71216 3.70363 5.3587 3.13267 6.12275C1.51728 8.28476 0.532544 10.6518 0.112696 13.3823C-0.0375654 14.3593 -0.0375654 16.6504 0.112696 17.6274C0.532544 20.3579 1.51728 22.7249 3.13267 24.8869C3.70363 25.651 5.35069 27.2975 6.11498 27.8683C8.27767 29.4832 10.6454 30.4676 13.3768 30.8873C14.3541 31.0376 16.6459 31.0376 17.6232 30.8873C20.3546 30.4676 22.7223 29.4832 24.885 27.8683C25.6493 27.2975 27.2964 25.651 27.8673 24.8869C29.4827 22.7249 30.4675 20.3579 30.8873 17.6274C31.0376 16.6504 31.0376 14.3593 30.8873 13.3823C30.4675 10.6518 29.4827 8.28476 27.8673 6.12275C27.2964 5.3587 25.6493 3.71216 24.885 3.14138C22.74 1.53971 20.3376 0.536176 17.6839 0.13338C17.0713 0.0404128 14.9214 -0.034725 14.3474 0.0167616ZM17.4028 1.4633C19.8637 1.80885 22.0562 2.71196 24.0535 4.20283C24.8701 4.81242 26.1958 6.13767 26.8055 6.95406C28.3273 8.99145 29.2343 11.2318 29.5798 13.8068C29.6794 14.5485 29.6794 16.4612 29.5798 17.2029C29.2343 19.7779 28.3273 22.0182 26.8055 24.0556C26.1958 24.872 24.8701 26.1973 24.0535 26.8069C22.3704 28.0632 20.4424 28.9469 18.5018 29.3515C17.3505 29.5914 16.7023 29.6576 15.5 29.6576C13.8924 29.6576 12.5106 29.443 11.0726 28.9701C8.96116 28.2758 7.10348 27.1251 5.48985 25.5119C3.20559 23.2283 1.86009 20.4813 1.42016 17.2029C1.32061 16.4612 1.32061 14.5485 1.42016 13.8068C1.7657 11.2318 2.67267 8.99145 4.19445 6.95406C4.80424 6.13767 6.1299 4.81242 6.94654 4.20283C9.22577 2.50152 11.6356 1.60915 14.6507 1.35008C15.1415 1.30793 16.7745 1.37512 17.4028 1.4633ZM15.0612 3.55303C14.8701 3.72368 14.863 3.74648 14.863 4.19476C14.863 4.64304 14.8701 4.66584 15.0612 4.83649C15.2095 4.969 15.3197 5.01345 15.5 5.01345C15.6803 5.01345 15.7905 4.969 15.9388 4.83649C16.1299 4.66584 16.137 4.64304 16.137 4.19476C16.137 3.74648 16.1299 3.72368 15.9388 3.55303C15.7905 3.42052 15.6803 3.37607 15.5 3.37607C15.3197 3.37607 15.2095 3.42052 15.0612 3.55303ZM7.12793 6.81815C7.00454 6.87965 6.87247 7.01318 6.81133 7.13805C6.65997 7.44721 6.7526 7.72884 7.10863 8.04213C7.34255 8.24801 7.43075 8.28822 7.64805 8.28822C7.85721 8.28822 7.94414 8.25189 8.09447 8.10162C8.24479 7.95134 8.28113 7.86444 8.28113 7.65534C8.28113 7.43836 8.24091 7.34994 8.03629 7.11761C7.90168 6.96467 7.73104 6.82222 7.65715 6.80105C7.58326 6.77983 7.48159 6.75126 7.43124 6.7375C7.38083 6.72379 7.24434 6.76006 7.12793 6.81815ZM23.406 6.77873C23.2987 6.80942 23.1042 6.95806 22.9662 7.1147C22.7591 7.34994 22.7189 7.43787 22.7189 7.65534C22.7189 8.02387 22.9833 8.28822 23.352 8.28822C23.5692 8.28822 23.6574 8.24801 23.8914 8.04213C24.2303 7.74388 24.3321 7.46086 24.2075 7.16279C24.0726 6.83992 23.7435 6.68219 23.406 6.77873ZM15.2158 8.49829C14.8256 8.66791 14.8327 8.59732 14.8327 12.2907C14.8327 15.0775 14.8471 15.6593 14.9198 15.7959C15.0285 16.0004 22.4537 23.4098 22.6494 23.5091C23.1354 23.7557 23.7451 23.11 23.4864 22.6227C23.4356 22.5269 21.768 20.8249 19.7807 18.8404L16.1673 15.2323V12.0908C16.1673 8.6023 16.1741 8.66409 15.7709 8.49568C15.5198 8.39083 15.4623 8.39107 15.2158 8.49829ZM3.75495 14.894C3.35167 15.067 3.24344 15.6068 3.54445 15.9435C3.71516 16.1346 3.73797 16.1416 4.18639 16.1416C4.63481 16.1416 4.65761 16.1346 4.82832 15.9435C5.07188 15.671 5.07303 15.34 4.83135 15.0695C4.67472 14.8943 4.61873 14.8731 4.27022 14.8569C4.0573 14.847 3.82544 14.8637 3.75495 14.894ZM26.3822 14.894C25.9789 15.067 25.8707 15.6068 26.1717 15.9435C26.3424 16.1346 26.3652 16.1416 26.8136 16.1416C27.262 16.1416 27.2848 16.1346 27.4555 15.9435C27.6991 15.671 27.7003 15.34 27.4586 15.0695C27.3019 14.8943 27.246 14.8731 26.8974 14.8569C26.6845 14.847 26.4527 14.8637 26.3822 14.894ZM7.10863 22.9676C6.7526 23.2808 6.65997 23.5625 6.81133 23.8716C6.87369 23.999 7.00314 24.1285 7.13059 24.1908C7.43985 24.3421 7.72157 24.2495 8.03496 23.8936C8.24091 23.6597 8.28113 23.5716 8.28113 23.3543C8.28113 22.9858 8.0167 22.7215 7.64805 22.7215C7.43075 22.7215 7.34255 22.7617 7.10863 22.9676ZM15.0612 26.1732C14.8701 26.3438 14.863 26.3666 14.863 26.8149C14.863 27.2632 14.8701 27.286 15.0612 27.4567C15.2095 27.5892 15.3197 27.6336 15.5 27.6336C15.6803 27.6336 15.7905 27.5892 15.9388 27.4567C16.1299 27.286 16.137 27.2632 16.137 26.8149C16.137 26.3666 16.1299 26.3438 15.9388 26.1732C15.7905 26.0407 15.6803 25.9962 15.5 25.9962C15.3197 25.9962 15.2095 26.0407 15.0612 26.1732Z" fill="#E21717"/>
</svg>
