<svg width="15" height="11" viewBox="0 0 15 11" fill="none" xmlns="http://www.w3.org/2000/svg">
<path fill-rule="evenodd" clip-rule="evenodd" d="M0.98363 0.0474C0.89498 0.072215 0.809442 0.106015 0.793591 0.122517C0.761448 0.155981 7.13469 6.81611 7.27104 6.89159C7.37304 6.94807 7.62696 6.94807 7.72896 6.89159C7.86426 6.81669 14.2386 0.155981 14.2067 0.122853C14.1909 0.106503 14.0994 0.0717871 14.0031 0.0457192C13.8475 0.00354596 13.1266 -0.00149649 7.4865 0.000306564C1.993 0.0020485 1.12327 0.00834394 0.98363 0.0474ZM0.0537182 0.953299C0.00261252 1.10589 0 1.32803 0 5.49915C0 9.67026 0.00261252 9.8924 0.0537182 10.045C0.0832779 10.1332 0.116331 10.2054 0.127192 10.2054C0.138023 10.2054 1.16398 9.14652 2.40704 7.85229L4.66717 5.49915L2.40704 3.146C1.16398 1.85177 0.138023 0.792857 0.127192 0.792857C0.116331 0.792857 0.0832779 0.865041 0.0537182 0.953299ZM12.593 3.146L10.3328 5.49915L12.593 7.85229C13.836 9.14652 14.862 10.2054 14.8728 10.2054C14.8837 10.2054 14.9167 10.1332 14.9463 10.045C14.9974 9.8924 15 9.67026 15 5.49915C15 1.32803 14.9974 1.10589 14.9463 0.953299C14.9167 0.865041 14.8837 0.792857 14.8728 0.792857C14.862 0.792857 13.836 1.85177 12.593 3.146ZM3.00951 8.5086C1.55454 10.0235 0.774804 10.8562 0.793327 10.8755C0.809061 10.8918 0.900646 10.9265 0.996869 10.9526C1.15236 10.9947 1.8762 11 7.5 11C13.1238 11 13.8476 10.9947 14.0031 10.9526C14.0994 10.9265 14.191 10.8918 14.2067 10.8754C14.2253 10.8562 13.4445 10.0224 11.984 8.50194L9.73277 6.15815L9.03467 6.87818C8.39592 7.53703 8.31678 7.60836 8.10329 7.71761L7.86998 7.83701H7.5H7.13002L6.89671 7.71718C6.68395 7.60793 6.60244 7.53455 5.97132 6.88441C5.59066 6.49229 5.2736 6.17147 5.26673 6.17147C5.25986 6.17147 4.24412 7.22317 3.00951 8.5086Z" fill="#E21717"/>
</svg>
