<svg width="32" height="32" viewBox="0 0 32 32" fill="none" xmlns="http://www.w3.org/2000/svg">
<path fill-rule="evenodd" clip-rule="evenodd" d="M16.5223 0.0378487C16.5223 0.0727509 16.4519 0.585088 16.3658 1.1763C16.2797 1.76751 16.2093 2.30105 16.2093 2.36197C16.2093 2.45167 16.3012 2.48726 16.6944 2.54993C18.6155 2.85586 20.9196 3.76207 22.5901 4.86874C23.618 5.54965 24.2689 6.07662 25.1196 6.91672C27.3246 9.0941 28.773 11.7282 29.4436 14.7807C29.5616 15.3177 29.5981 15.4047 29.7015 15.3961C30.0118 15.3701 31.955 15.0394 31.9937 15.0061C32.0178 14.9853 31.9702 14.6569 31.8878 14.2764C30.7063 8.81657 27.0856 4.1802 22.0824 1.72041C20.4959 0.940365 18.8966 0.402571 17.3977 0.145057C17.0711 0.088951 16.7406 0.0275907 16.6631 0.00863839C16.5856 -0.0102513 16.5223 0.0028839 16.5223 0.0378487ZM4.90332 3.11519C4.30105 3.24035 4.02504 3.4547 2.41706 5.04619C1.56099 5.89354 0.765703 6.7327 0.649729 6.91102C-0.474143 8.63943 -0.137801 11.5043 1.64167 15.36C3.63356 19.676 7.21703 24.0314 11.3276 27.1324C13.748 28.9583 16.6334 30.5312 19.0257 31.3287C21.0025 31.9877 22.8616 32.1741 24.0453 31.8319C24.9312 31.5758 25.1281 31.4265 26.8926 29.6715C28.3778 28.1944 28.5511 28.0002 28.7348 27.6068C28.9076 27.2366 28.9375 27.1022 28.9375 26.6962C28.9375 26.2907 28.9075 26.1553 28.7353 25.7856C28.5483 25.384 28.3632 25.1821 26.2672 23.0929C24.4205 21.2521 23.9377 20.8039 23.6572 20.67C23.183 20.4436 22.7341 20.3673 22.3272 20.4439C21.6524 20.5709 21.4006 20.7585 19.832 22.302C19.019 23.1019 18.3059 23.7564 18.2472 23.7564C18.0954 23.7564 16.6203 22.9968 16.0514 22.6256C13.8404 21.1832 11.328 18.7381 9.7207 16.4647C9.16787 15.6827 8.90901 15.2488 8.53949 14.4851C8.31099 14.0126 8.25566 13.8398 8.28952 13.704C8.31756 13.5917 8.84267 13.0172 9.76545 12.0891C11.0457 10.8014 11.2184 10.6032 11.3909 10.223C11.719 9.49986 11.6493 8.81044 11.1766 8.10176C11.0568 7.92212 9.99264 6.81295 8.81181 5.63684C6.88388 3.71666 6.62333 3.47941 6.25801 3.31109C5.81077 3.10505 5.30457 3.03181 4.90332 3.11519ZM16.1902 6.54855C16.1036 7.00141 15.8752 8.80694 15.9013 8.83296C15.9178 8.84947 16.1558 8.90927 16.4302 8.96581C19.6385 9.62689 22.2014 12.123 22.9704 15.3356C23.0352 15.6064 23.0966 15.8347 23.1067 15.8429C23.1358 15.8664 25.4717 15.4588 25.5064 15.4242C25.5452 15.3854 25.4378 14.8552 25.2747 14.2803C24.1453 10.2978 20.7881 7.24172 16.7004 6.475L16.2215 6.38518L16.1902 6.54855Z" fill="var(--current-color)"/>
</svg>
