<svg width="24" height="24" viewBox="0 0 24 24" fill="none" xmlns="http://www.w3.org/2000/svg">
<circle cx="12.073" cy="12.175" r="10.8569" stroke="var(--current-color)" stroke-width="0.432237"/>
<path fill-rule="evenodd" clip-rule="evenodd" d="M11.3903 9.43103C8.14447 10.5996 5.46173 11.5722 5.42864 11.5924C5.34848 11.6414 5.27402 11.759 5.27393 11.8367C5.27378 11.9323 5.33313 12.0447 5.41055 12.0954C5.44875 12.1204 6.11848 12.3624 6.89886 12.633C7.67925 12.9037 8.32958 13.1368 8.34405 13.1509C8.35851 13.1651 8.61352 13.9097 8.91073 14.8058C9.20794 15.7018 9.46809 16.4692 9.48883 16.5111C9.50959 16.553 9.56019 16.6064 9.60127 16.6298C9.68546 16.6777 9.85781 16.6862 9.93751 16.6464C9.9662 16.6321 10.3393 16.3541 10.7666 16.0286C11.6998 15.3178 11.6685 15.3396 11.7949 15.3131C11.9945 15.2712 12.0334 15.2925 13.2066 16.0869C15.2652 17.4807 15.1152 17.3852 15.2454 17.3852C15.3803 17.3852 15.4755 17.3298 15.54 17.2137C15.6043 17.098 17.6995 7.65471 17.6811 7.56338C17.6532 7.42434 17.4969 7.30374 17.3472 7.30569C17.3167 7.30607 14.6361 8.26246 11.3903 9.43103ZM14.9949 9.41378C15.0109 9.42872 15.024 9.4575 15.024 9.47775C15.024 9.498 14.1321 10.2876 13.042 11.2325C10.3904 13.5306 10.2854 13.6236 10.2148 13.736C10.1213 13.8848 10.0855 14.0348 10.0022 14.6247C9.95852 14.9339 9.91071 15.1897 9.89114 15.2187C9.85558 15.2714 9.755 15.2869 9.69179 15.2496C9.6738 15.239 9.51651 14.7682 9.34226 14.2034C9.00564 13.1125 8.98631 13.017 9.067 12.8434C9.08856 12.797 9.14163 12.7278 9.18493 12.6897C9.28206 12.6043 14.876 9.38733 14.9282 9.38693C14.9489 9.38677 14.9789 9.39885 14.9949 9.41378Z" fill="var(--current-color)"/>
</svg>
