<svg width="24" height="24" viewBox="0 0 24 24" fill="none" xmlns="http://www.w3.org/2000/svg">
<path fill-rule="evenodd" clip-rule="evenodd" d="M11.0782 6.87246C10.303 6.94789 9.7185 7.11517 9.08453 7.44293C8.11669 7.94331 7.33518 8.73956 6.85197 9.71762C6.66633 10.0934 6.57884 10.3237 6.48181 10.6922C6.35949 11.1567 6.32388 11.4391 6.32277 11.9529C6.32223 12.2088 6.33279 12.4864 6.34719 12.5944C6.45664 13.4159 6.71461 14.1238 7.14606 14.7865L7.28987 15.0074L6.97042 15.9491C6.79472 16.467 6.65374 16.8936 6.65714 16.897C6.66055 16.9004 7.09999 16.7637 7.63369 16.5932C8.1674 16.4227 8.6112 16.2832 8.61993 16.2832C8.62867 16.2832 8.71106 16.3299 8.80303 16.387C8.89499 16.4441 9.08768 16.5469 9.23122 16.6155C10.5292 17.2358 12.013 17.2889 13.342 16.7626C14.8479 16.1663 16.0045 14.8617 16.4174 13.2938C16.5439 12.8136 16.5759 12.5503 16.5759 11.993C16.5759 11.4357 16.5439 11.1725 16.4174 10.6922C15.9331 8.85293 14.4568 7.42322 12.5939 6.98939C12.2809 6.9165 11.9553 6.87957 11.56 6.87217C11.3392 6.86802 11.1224 6.86815 11.0782 6.87246ZM9.8538 9.25136C9.88704 9.26858 9.93362 9.31739 9.95733 9.35981C10.0172 9.46695 10.5052 10.6408 10.5195 10.7118C10.5376 10.8026 10.4487 10.9571 10.2491 11.1811C10.0409 11.4149 9.99613 11.4899 10.0147 11.5742C10.0483 11.7272 10.5126 12.3421 10.7987 12.6125C11.2426 13.0321 11.9135 13.4305 12.2125 13.4521C12.3662 13.4632 12.4223 13.4197 12.6574 13.1072C12.7641 12.9654 12.8778 12.8229 12.9102 12.7906C12.9876 12.7133 13.1026 12.6969 13.2315 12.7448C13.3969 12.8062 14.4077 13.2978 14.4787 13.3513L14.5467 13.4025L14.5355 13.6149C14.5067 14.1603 14.3151 14.4434 13.8085 14.6896C13.3269 14.9237 12.9499 14.9173 12.2117 14.6625C11.2215 14.3208 10.6959 13.9943 9.98363 13.2786C9.62724 12.9205 9.37398 12.6177 9.08431 12.2035C8.60698 11.521 8.42393 10.9939 8.47842 10.459C8.5221 10.0301 8.67219 9.71347 8.97532 9.4108C9.12195 9.26435 9.31384 9.20406 9.60263 9.21369C9.72515 9.21776 9.81497 9.23123 9.8538 9.25136Z" fill="var(--current-color)"/>
<circle cx="11.6281" cy="12.175" r="10.8569" stroke="var(--current-color)" stroke-width="0.432237"/>
</svg>
