<svg width="70" height="110" viewBox="0 0 70 110" fill="none" xmlns="http://www.w3.org/2000/svg">
<path fill-rule="evenodd" clip-rule="evenodd" d="M16.3704 12.7835C16.9177 12.7835 17.4425 12.5661 17.8295 12.1791C18.2164 11.7921 18.4338 11.2673 18.4338 10.7201V2.11272C18.4338 1.56547 18.2164 1.04064 17.8295 0.653674C17.4425 0.266711 16.9177 0.0493164 16.3704 0.0493164C15.8232 0.0493164 15.2983 0.266711 14.9114 0.653674C14.5244 1.04064 14.307 1.56547 14.307 2.11272V10.7201C14.307 11.2673 14.5244 11.7921 14.9114 12.1791C15.2983 12.5661 15.8232 12.7835 16.3704 12.7835ZM44.849 21.6374L50.9367 15.5497V15.5521C51.3259 15.1763 51.8472 14.9684 52.3882 14.9732C52.9292 14.978 53.4467 15.1951 53.8292 15.5778C54.2117 15.9604 54.4286 16.478 54.4332 17.019C54.4378 17.5601 54.2297 18.0812 53.8537 18.4703L47.7649 24.5544C47.5758 24.7565 47.348 24.9184 47.095 25.0307C46.842 25.1429 46.569 25.203 46.2923 25.2076C46.0156 25.2122 45.7408 25.161 45.4842 25.0572C45.2277 24.9533 44.9947 24.799 44.799 24.6032C44.6033 24.4075 44.4491 24.1744 44.3453 23.9178C44.2416 23.6612 44.1906 23.3864 44.1952 23.1097C44.1999 22.833 44.2602 22.56 44.3725 22.3071C44.4848 22.0541 44.6469 21.8264 44.849 21.6374ZM27.1295 23.9828C31.0354 25.3881 34.6086 27.5858 37.6247 30.438C40.653 33.2597 43.0647 36.6773 44.7083 40.4761C46.3519 44.2749 47.1919 48.3726 47.1754 52.5117C47.1724 56.834 46.245 61.1057 44.4554 65.0402C42.6658 68.9746 40.0554 72.4808 36.7994 75.3235C34.6822 77.1969 33.0364 79.5431 31.9958 82.1716C33.1786 83.4689 33.8199 85.1699 33.7879 86.9252C33.7559 88.6805 33.053 90.3569 31.8236 91.6102C32.7417 92.5452 33.3724 93.7239 33.6409 95.0065C33.9095 96.2891 33.8046 97.6218 33.3387 98.8466C32.8728 100.071 32.0655 101.137 31.0124 101.917C29.9594 102.697 28.7047 103.158 27.3973 103.247C26.9281 105.421 25.7292 107.369 23.9997 108.767C22.2702 110.165 20.1144 110.93 17.8904 110.933H16.3575C14.1334 110.93 11.9773 110.166 10.2477 108.767C8.51818 107.369 7.31934 105.421 6.85055 103.247C5.54411 103.157 4.2908 102.694 3.23903 101.914C2.18726 101.134 1.38108 100.069 0.915962 98.8447C0.450848 97.6205 0.346275 96.2888 0.614628 95.007C0.882984 93.7253 1.51303 92.5473 2.43015 91.6126C1.27137 90.4411 0.575886 88.8898 0.472279 87.2453C0.368675 85.6008 0.863949 83.9744 1.86654 82.6668C0.758068 79.7583 -1.03006 77.1572 -3.34856 75.0806C-6.65142 72.1351 -9.26645 68.4996 -11.0085 64.4314C-12.7506 60.3633 -13.5772 55.9619 -13.4298 51.5389C-13.1438 44.0224 -10.0905 36.8766 -4.85633 31.4745C0.377819 26.0723 7.42357 22.7948 14.9273 22.2716C19.0692 21.9948 23.2235 22.5774 27.1295 23.9828ZM5.81531 84.452C5.7403 84.5524 5.65227 84.6424 5.55355 84.7196L5.53115 84.742C5.52436 84.7472 5.51874 84.7522 5.51314 84.7572L5.51306 84.7572C5.50603 84.7635 5.49905 84.7697 5.48988 84.7762L5.39437 84.8705C5.00809 85.2521 4.74437 85.7401 4.63691 86.2723C4.52945 86.8045 4.58313 87.3566 4.79111 87.8582C4.99908 88.3597 5.35189 88.7878 5.80444 89.0877C6.25698 89.3877 6.7887 89.5459 7.33162 89.5421H26.9269C27.2868 89.5456 27.6438 89.4768 27.9765 89.3397C28.3093 89.2025 28.6112 88.9999 28.8641 88.7438C29.1486 88.4551 29.3658 88.107 29.4999 87.7245C29.6341 87.342 29.682 86.9345 29.6402 86.5313C29.5984 86.1281 29.4679 85.7391 29.2581 85.3923C29.0483 85.0454 28.7644 84.7493 28.4267 84.5251C28.1107 84.3145 27.7504 84.1797 27.3738 84.1313C27.3012 84.1215 27.2292 84.1081 27.158 84.0912L27.1201 84.0889L27.0977 84.0874C27.0414 84.0837 26.9764 84.0794 26.9151 84.0794H6.76447C6.54644 84.0787 6.33139 84.13 6.1372 84.2291C6.02533 84.2873 5.92049 84.3581 5.82474 84.4402L5.81531 84.452ZM16.3505 106.811H17.8833H17.8915C19.0135 106.81 20.1092 106.472 21.0371 105.841C21.9651 105.211 22.6827 104.316 23.0972 103.274H11.1448C11.5592 104.316 12.2767 105.211 13.2047 105.841C14.1327 106.472 15.2285 106.81 16.3505 106.811ZM7.32218 99.1469H26.9163H26.9245C27.6503 99.1469 28.3464 98.8586 28.8596 98.3454C29.3729 97.8322 29.6612 97.1361 29.6612 96.4103C29.6612 95.6845 29.3729 94.9884 28.8596 94.4752C28.3464 93.9619 27.6503 93.6736 26.9245 93.6736H7.32218C6.59637 93.6736 5.90029 93.9619 5.38707 94.4752C4.87384 94.9884 4.58552 95.6845 4.58552 96.4103C4.58552 97.1361 4.87384 97.8322 5.38707 98.3454C5.90029 98.8586 6.59637 99.1469 7.32218 99.1469ZM28.3819 80.12C29.6666 77.0967 31.6093 74.3979 34.0686 72.2201L34.0769 72.2166C38.0829 68.721 40.93 64.0889 42.2395 58.936C43.5491 53.7831 43.259 48.3537 41.4079 43.3696C39.5569 38.3856 36.2325 34.0831 31.8768 31.0343C27.5211 27.9855 22.3406 26.3348 17.024 26.3017C11.7074 26.2686 6.50673 27.8547 2.11346 30.8491C-2.2798 33.8435 -5.65748 38.1043 -7.57044 43.0649C-9.4834 48.0255 -9.84101 53.4509 -8.5957 58.6197C-7.35039 63.7884 -4.56117 68.4557 -0.59893 72.0008C1.92397 74.267 3.93185 77.0477 5.28943 80.1554C5.77299 80.017 6.27331 79.946 6.77627 79.9443H26.921C27.1202 79.9443 27.3443 79.9526 27.5329 79.975C27.6661 79.9908 27.7822 80.0089 27.8842 80.0249L27.8851 80.025C27.9273 80.0316 27.967 80.0378 28.0046 80.0434C28.0921 80.0562 28.1769 80.0751 28.262 80.094L28.3077 80.1041L28.3417 80.1115L28.3819 80.12ZM15.1437 64.5677C15.7238 64.1939 16.4024 64.0023 17.0922 64.0174C17.9849 64.0323 18.8368 64.3939 19.4677 65.0257C20.0986 65.6575 20.459 66.5099 20.4726 67.4026C20.4868 68.0925 20.2943 68.7708 19.9197 69.3503C19.5452 69.9298 19.0058 70.3839 18.3709 70.6543C17.7361 70.9247 17.0349 70.9989 16.3575 70.8674C15.6801 70.7359 15.0576 70.4048 14.5701 69.9165C14.0825 69.4283 13.7522 68.8053 13.6216 68.1277C13.4911 67.4502 13.5663 66.7491 13.8376 66.1146C14.1088 65.4802 14.5637 64.9414 15.1437 64.5677ZM18.3548 39.8896H15.8953C15.5358 39.8895 15.1801 39.9635 14.8506 40.1071C14.521 40.2507 14.2247 40.4608 13.9801 40.7242C13.7355 40.9876 13.5479 41.2987 13.4291 41.638C13.3102 41.9773 13.2627 42.3374 13.2895 42.6959L14.5146 59.2845C14.5631 59.9424 14.8587 60.5576 15.342 61.0066C15.8253 61.4556 16.4606 61.7052 17.1203 61.7052C17.7801 61.7052 18.4153 61.4556 18.8987 61.0066C19.382 60.5576 19.6776 59.9424 19.7261 59.2845L20.9571 42.6959C20.9835 42.3378 20.9358 41.9781 20.8171 41.6392C20.6983 41.3003 20.511 40.9896 20.2669 40.7263C20.0227 40.463 19.7269 40.2528 19.398 40.1089C19.069 39.9649 18.7139 39.8903 18.3548 39.8896ZM58.7303 50.9517H67.3376C67.8849 50.9517 68.4097 51.1691 68.7967 51.556C69.1836 51.943 69.401 52.4678 69.401 53.0151C69.401 53.5623 69.1836 54.0872 68.7967 54.4741C68.4097 54.8611 67.8849 55.0785 67.3376 55.0785H58.7303C58.183 55.0785 57.6582 54.8611 57.2712 54.4741C56.8843 54.0872 56.6669 53.5623 56.6669 53.0151C56.6669 52.4678 56.8843 51.943 57.2712 51.556C57.6582 51.1691 58.183 50.9517 58.7303 50.9517ZM-25.9281 51.0127H-34.5355C-35.0827 51.0127 -35.6076 51.2301 -35.9945 51.6171C-36.3815 52.004 -36.5989 52.5289 -36.5989 53.0761C-36.5989 53.6233 -36.3815 54.1482 -35.9945 54.5351C-35.6076 54.9221 -35.0827 55.1395 -34.5355 55.1395H-25.9281C-25.3809 55.1395 -24.856 54.9221 -24.4691 54.5351C-24.0821 54.1482 -23.8647 53.6233 -23.8647 53.0761C-23.8647 52.5289 -24.0821 52.004 -24.4691 51.6171C-24.856 51.2301 -25.3809 51.0127 -25.9281 51.0127ZM-18.1768 15.5929L-12.0904 21.6793V21.6828C-11.8988 21.8745 -11.7468 22.1019 -11.6431 22.3523C-11.5394 22.6027 -11.486 22.871 -11.486 23.142C-11.486 23.413 -11.5394 23.6813 -11.6431 23.9316C-11.7468 24.182 -11.8988 24.4095 -12.0904 24.6011C-12.282 24.7927 -12.5095 24.9447 -12.7598 25.0484C-13.0102 25.1521 -13.2785 25.2055 -13.5495 25.2055C-13.8205 25.2055 -14.0888 25.1521 -14.3392 25.0484C-14.5895 24.9447 -14.817 24.7927 -15.0086 24.6011L-21.0939 18.5099C-21.2939 18.3203 -21.4539 18.0925 -21.5644 17.8401C-21.6749 17.5876 -21.7337 17.3156 -21.7374 17.04C-21.741 16.7645 -21.6895 16.491 -21.5857 16.2357C-21.4819 15.9804 -21.3281 15.7484 -21.1332 15.5536C-20.9383 15.3587 -20.7064 15.2049 -20.4511 15.1011C-20.1958 14.9973 -19.9223 14.9457 -19.6467 14.9494C-19.3712 14.9531 -19.0991 15.0119 -18.8467 15.1224C-18.5942 15.2329 -18.3665 15.3929 -18.1768 15.5929Z" fill="url(#paint0_linear_24_53)"/>
<defs>
<linearGradient id="paint0_linear_24_53" x1="16.4011" y1="0.0493164" x2="16.4011" y2="110.933" gradientUnits="userSpaceOnUse">
<stop stop-color="#6A92BF"/>
<stop offset="1" stop-color="#121A38"/>
</linearGradient>
</defs>
</svg>
