<svg width="76" height="95" viewBox="0 0 76 95" fill="none" xmlns="http://www.w3.org/2000/svg">
<path fill-rule="evenodd" clip-rule="evenodd" d="M71.868 83.465H74.2406C74.7072 83.4652 75.1545 83.6507 75.4844 83.9806C75.8143 84.3105 75.9997 84.7578 76 85.2243V85.8778C75.9973 88.2074 75.0707 90.4408 73.4235 92.088C71.7762 93.7353 69.5428 94.6619 67.2133 94.6646H-16.2406C-16.7073 94.6646 -17.1548 94.4792 -17.4847 94.1492C-17.8146 93.8193 -18 93.3718 -18 92.9052V77.9557C-17.9866 73.8084 -16.6575 69.7724 -14.2041 66.4287C-11.7507 63.0849 -8.29949 60.606 -4.34738 59.3487C-4.34318 59.3462 -4.33951 59.3421 -4.336 59.3382C-4.3311 59.3327 -4.32651 59.3276 -4.32124 59.3276L-0.0284061 56.7539V53.5368C-3.99673 51.2288 -7.1215 47.7104 -8.94483 43.4974H-8.97198C-11.1643 43.4963 -13.2667 42.6256 -14.8179 41.0764C-16.369 39.5271 -17.2423 37.4258 -17.246 35.2334C-17.251 33.2474 -16.5319 31.3276 -15.2232 29.8337V25.8485C-15.2158 19.1716 -12.5601 12.7703 -7.83879 8.04899C-3.1175 3.3277 3.28381 0.672002 9.96073 0.664551H11.6598C18.3367 0.672002 24.738 3.3277 29.4593 8.04899C34.1806 12.7703 36.8363 19.1716 36.8437 25.8485V29.8136C38.1613 31.3103 38.8839 33.2384 38.8745 35.2324C38.8708 37.4248 37.9976 39.5261 36.4464 41.0754C34.8952 42.6246 32.7929 43.4953 30.6005 43.4964H30.5734C28.7504 47.7172 25.6179 51.2395 21.6388 53.5428V56.7539L25.8935 59.3145C27.0322 59.665 28.1361 60.12 29.191 60.6738V60.1409C29.1939 58.8416 29.7121 57.5964 30.6318 56.6786C31.5515 55.7607 32.7978 55.2451 34.0971 55.2449H66.972C68.2701 55.2462 69.5146 55.7625 70.4325 56.6804C71.3504 57.5983 71.8667 58.8428 71.868 60.1409V83.465ZM33.1185 59.1652C32.8583 59.4235 32.7113 59.7744 32.7097 60.1409V83.465H44.8543C45.3209 83.4652 45.7682 83.6507 46.0981 83.9806C46.428 84.3105 46.6134 84.7578 46.6137 85.2243C46.614 85.6029 46.7645 85.9658 47.0321 86.2335C47.2998 86.5012 47.6628 86.6517 48.0413 86.6519H53.0278C53.213 86.6539 53.3967 86.6188 53.568 86.5485C53.7393 86.4782 53.8947 86.3742 54.0251 86.2428C54.1622 86.1111 54.271 85.9529 54.345 85.7778C54.419 85.6027 54.4565 85.4144 54.4554 85.2243C54.4554 84.7577 54.6408 84.3102 54.9707 83.9803C55.3007 83.6503 55.7481 83.465 56.2148 83.465H68.3493V60.1409C68.349 59.7757 68.2038 59.4255 67.9456 59.1673C67.6874 58.9091 67.3372 58.7639 66.972 58.7636H34.0971C33.7306 58.7625 33.3786 58.907 33.1185 59.1652ZM1.58116 60.1359L1.43236 59.9801L-1.22175 61.5735L2.53925 70.871L8.11592 66.9723L1.58116 60.1359ZM18.1201 55.2047C15.7776 56.0499 13.3066 56.4835 10.8163 56.4865C8.31931 56.4847 5.84147 56.051 3.49232 55.2047V57.0384L5.00637 58.6228L10.8032 64.6921L11.893 63.549L17.5913 57.5863L18.1201 57.0324V55.2047ZM13.4915 66.9672L19.0692 70.871L22.8332 61.5745L20.1801 59.9791L19.3426 60.8577C19.3044 60.898 19.2641 60.9362 19.222 60.9723L13.4915 66.9672ZM32.3599 34.9318C32.3543 36.5749 32.1624 38.212 31.7878 39.8118C32.8054 39.5512 33.7078 38.9603 34.3535 38.1318C34.9992 37.3032 35.3517 36.2838 35.3558 35.2334C35.3523 34.2835 35.0653 33.3563 34.5315 32.5706C33.9978 31.7848 33.2416 31.1763 32.3599 30.823V34.9318ZM11.6598 4.17824H9.96073C4.21592 4.1849 -1.29161 6.4703 -5.35334 10.533C-9.41506 14.5956 -11.6992 20.1037 -11.7045 25.8485V27.44C-11.3854 27.328 -11.0597 27.2357 -10.7293 27.1635V26.1149C-10.7292 25.831 -10.6603 25.5514 -10.5287 25.2999C-10.397 25.0484 -10.2065 24.8324 -9.97326 24.6705C-9.74005 24.5087 -9.47113 24.4056 -9.18946 24.3702C-8.90779 24.3348 -8.62173 24.368 -8.3557 24.4672C-1.68421 26.9504 8.57636 26.9373 19.0903 24.4239C22.7885 23.5466 26.4075 22.3636 29.9098 20.8871C30.1774 20.7733 30.4691 20.7276 30.7587 20.754C31.0482 20.7805 31.3267 20.8783 31.5693 21.0388C31.8118 21.1992 32.0108 21.4173 32.1484 21.6735C32.286 21.9297 32.358 22.2159 32.3579 22.5067V27.1675C32.6849 27.2387 33.0072 27.3301 33.323 27.441V25.8485C33.3179 20.104 31.0342 14.5961 26.9728 10.5334C22.9115 6.47072 17.4043 4.18516 11.6598 4.17824ZM-12.9027 32.5712C-13.4365 33.3567 -13.7236 34.2837 -13.7273 35.2334C-13.7231 36.2841 -13.3702 37.3037 -12.7241 38.1323C-12.0781 38.9608 -11.1752 39.5516 -10.1573 39.8118C-10.5334 38.2122 -10.726 36.575 -10.7313 34.9318V30.824C-11.6129 31.1772 -12.369 31.7856 -12.9027 32.5712ZM-7.21262 34.9318C-7.21319 37.0127 -6.85647 39.0782 -6.15801 41.0383L-6.15097 41.0353C-4.89443 44.5299 -2.58972 47.5514 0.44836 49.6871C3.48645 51.8229 7.10977 52.9686 10.8234 52.968C14.5371 52.9673 18.16 51.8203 21.1973 49.6835C24.2346 47.5467 26.5383 44.5243 27.7936 41.0293C28.4891 39.0717 28.8434 37.0093 28.8412 34.9318V25.1096C25.9253 26.2091 22.9429 27.1231 19.9117 27.8461C9.8984 30.2389 -0.00628853 30.462 -7.21262 28.5187V34.9318ZM-11.7153 68.9846C-13.5092 71.6332 -14.4723 74.7567 -14.4813 77.9557V91.1458H26.8375C25.6905 89.6291 25.0696 87.7795 25.0691 85.8778V85.2243C25.0691 84.7577 25.2545 84.3102 25.5844 83.9803C25.9143 83.6503 26.3618 83.465 26.8284 83.465H29.191V64.7736C28.2038 64.0886 27.1421 63.5179 26.0262 63.0725L21.5021 74.2439C21.4027 74.4893 21.2492 74.709 21.053 74.8867C20.8568 75.0645 20.623 75.1956 20.3691 75.2704C20.2217 75.3115 20.0697 75.3335 19.9167 75.3357C19.9006 75.3357 19.8996 75.3418 19.8694 75.3418C19.8544 75.3418 19.8398 75.3385 19.8252 75.3352C19.8106 75.332 19.796 75.3287 19.781 75.3287C19.6628 75.3228 19.5455 75.3046 19.4311 75.2744L19.4176 75.271C19.3742 75.2602 19.3323 75.2498 19.2904 75.2352C19.1435 75.1872 19.0039 75.1195 18.8751 75.0341L18.8601 75.0271L10.8012 69.3901L10.2442 69.7792L2.74535 75.0271C2.61007 75.119 2.46251 75.1915 2.30702 75.2422C2.27032 75.2548 2.23362 75.2641 2.1955 75.2738L2.18135 75.2774C2.06198 75.3088 1.93968 75.3277 1.8164 75.3337C1.80065 75.3343 1.78079 75.338 1.7639 75.3412C1.75061 75.3437 1.73916 75.3458 1.73296 75.3458C1.72592 75.3458 1.71864 75.3443 1.71135 75.3428C1.70406 75.3413 1.69677 75.3398 1.68973 75.3398C1.53881 75.3373 1.38882 75.3157 1.24336 75.2754H1.23431C0.980415 75.2002 0.746769 75.0686 0.55077 74.8905C0.354771 74.7125 0.201471 74.4925 0.102289 74.2469L-4.41072 63.0876C-7.37801 64.2828 -9.92131 66.336 -11.7153 68.9846ZM33.8458 91.1458H67.2133C68.4175 91.1437 69.5848 90.7296 70.5213 89.9725C71.4578 89.2154 72.1072 88.1608 72.3616 86.9837H57.6524C57.2923 87.9189 56.6581 88.7236 55.8329 89.2923C55.0077 89.8609 54.03 90.1671 53.0278 90.1706H48.0423C47.0395 90.1699 46.0605 89.8648 45.2348 89.2958C44.409 88.7267 43.7754 87.9205 43.4177 86.9837H28.7044C28.9571 88.1604 29.605 89.2151 30.5404 89.9723C31.4758 90.7296 32.6423 91.1437 33.8458 91.1458ZM54.7334 75.3114C54.3679 75.3817 53.9895 75.3338 53.653 75.1747L45.3348 71.2669L40.9263 77.8248C40.6598 78.1959 40.2594 78.4488 39.8097 78.53C39.3601 78.6112 38.8965 78.5142 38.517 78.2596C38.1376 78.0051 37.8721 77.6128 37.7766 77.166C37.6812 76.7191 37.7634 76.2527 38.0058 75.8653L43.2567 68.0558C43.4915 67.7078 43.8428 67.4551 44.2474 67.3432C44.652 67.2313 45.0833 67.2676 45.4635 67.4456L53.9878 71.4458L60.5095 64.4647C60.6672 64.2958 60.8566 64.1597 61.0669 64.064C61.2773 63.9684 61.5044 63.9151 61.7353 63.9072C61.9662 63.8993 62.1964 63.937 62.4128 64.0181C62.6291 64.0992 62.8274 64.222 62.9962 64.3798C63.1651 64.5375 63.3012 64.7269 63.3969 64.9372C63.4925 65.1475 63.5458 65.3746 63.5537 65.6055C63.5616 65.8364 63.5239 66.0666 63.4429 66.283C63.3618 66.4994 63.2389 66.6976 63.0812 66.8665L55.6858 74.7836C55.4325 75.0562 55.0988 75.2411 54.7334 75.3114Z" fill="url(#paint0_linear_24_46)"/>
<defs>
<linearGradient id="paint0_linear_24_46" x1="29" y1="0.664551" x2="29" y2="94.6646" gradientUnits="userSpaceOnUse">
<stop stop-color="#6A92BF"/>
<stop offset="1" stop-color="#121A38"/>
</linearGradient>
</defs>
</svg>
