<svg width="34" height="40" viewBox="0 0 34 40" fill="none" xmlns="http://www.w3.org/2000/svg">
<path fill-rule="evenodd" clip-rule="evenodd" d="M28.5506 0.219197L28.3332 0.438304V3.07634V5.71429H27.1339C25.9785 5.71429 25.9266 5.72232 25.7172 5.93348L25.4999 6.15259V17.1429V28.1331L25.7172 28.3522C25.9266 28.5634 25.9785 28.5714 27.1339 28.5714H28.3332V31.2094V33.8474L28.5506 34.0665C28.7552 34.2729 28.8253 34.2857 29.7499 34.2857C30.6744 34.2857 30.7446 34.2729 30.9492 34.0665L31.1665 33.8474V31.2094V28.5714H32.3658C33.5212 28.5714 33.5732 28.5634 33.7825 28.3522L33.9999 28.1331V17.1429V6.15259L33.7825 5.93348C33.5732 5.72232 33.5212 5.71429 32.3658 5.71429H31.1665V3.07634V0.438304L30.9492 0.219197C30.7446 0.0128573 30.6744 0 29.7499 0C28.8253 0 28.7552 0.0128573 28.5506 0.219197ZM3.05058 3.07634L2.83321 3.29545V5.93348V8.57143H1.63391C0.478534 8.57143 0.42656 8.57946 0.217248 8.79063L-0.00012207 9.00973V17.1429V25.276L0.217248 25.4951C0.42656 25.7063 0.478534 25.7143 1.63391 25.7143H2.83321V28.3522V30.9903L3.05058 31.2094C3.2552 31.4157 3.32533 31.4286 4.24988 31.4286C5.17443 31.4286 5.24455 31.4157 5.44917 31.2094L5.66654 30.9903V28.3522V25.7143H6.86584C8.02122 25.7143 8.0732 25.7063 8.28251 25.4951L8.49988 25.276V17.1429V9.00973L8.28251 8.79063C8.0732 8.57946 8.02122 8.57143 6.86584 8.57143H5.66654V5.93348V3.29545L5.44917 3.07634C5.24455 2.87 5.17443 2.85714 4.24988 2.85714C3.32533 2.85714 3.2552 2.87 3.05058 3.07634ZM15.8006 15.9335L15.5832 16.1526V18.7906V21.4286H14.3839C13.2285 21.4286 13.1766 21.4366 12.9672 21.6478L12.7499 21.8669V27.8571V33.8474L12.9672 34.0665C13.1766 34.2777 13.2285 34.2857 14.3839 34.2857H15.5832V36.9237V39.5617L15.8006 39.7808C16.0052 39.9871 16.0753 40 16.9999 40C17.9244 40 17.9946 39.9871 18.1992 39.7808L18.4165 39.5617V36.9237V34.2857H19.6158C20.7712 34.2857 20.8232 34.2777 21.0325 34.0665L21.2499 33.8474V27.8571V21.8669L21.0325 21.6478C20.8232 21.4366 20.7712 21.4286 19.6158 21.4286H18.4165V18.7906V16.1526L18.1992 15.9335C17.9946 15.7271 17.9244 15.7143 16.9999 15.7143C16.0753 15.7143 16.0052 15.7271 15.8006 15.9335Z" fill="url(#paint0_linear_24_19)" fill-opacity="0.45"/>
<defs>
<linearGradient id="paint0_linear_24_19" x1="16.9999" y1="0" x2="16.9999" y2="40" gradientUnits="userSpaceOnUse">
<stop stop-color="#9EA8EE"/>
<stop offset="1" stop-color="#ABAEC8" stop-opacity="0"/>
</linearGradient>
</defs>
</svg>
