<svg width="69" height="107" viewBox="0 0 69 107" fill="none" xmlns="http://www.w3.org/2000/svg">
<g opacity="0.7">
<path fill-rule="evenodd" clip-rule="evenodd" d="M-39.3914 28.4883C-39.7219 28.6967 -40.1048 28.8073 -40.4955 28.8073C-40.9458 28.8077 -41.384 28.6617 -41.744 28.3913C-42.104 28.1209 -42.3663 27.7408 -42.4914 27.3082C-42.6164 26.8757 -42.5974 26.4142 -42.4372 25.9934C-42.277 25.5726 -41.9843 25.2153 -41.6032 24.9755L-29.2183 17.1778C-29.4617 16.2734 -29.52 15.3292 -29.3897 14.4017C-29.2593 13.4743 -28.9431 12.5827 -28.4598 11.7804C-27.9766 10.9781 -27.3364 10.2817 -26.5775 9.73282C-25.8186 9.18395 -24.9567 8.79397 -24.0435 8.58625C-23.1302 8.37853 -22.1844 8.35736 -21.2628 8.52398C-20.3412 8.69062 -19.4627 9.04162 -18.68 9.55597C-17.8973 10.0703 -17.2265 10.7374 -16.7079 11.5172C-16.1892 12.2971 -15.8334 13.1736 -15.6616 14.0943L7.42059 17.7874C7.88472 16.4891 8.72531 15.3587 9.835 14.5405C10.9447 13.7223 12.2731 13.2535 13.6505 13.1939C15.028 13.1343 16.3919 13.4867 17.5681 14.2061C18.7443 14.9254 19.6793 15.979 20.2538 17.2324L43.4392 6.77936C43.488 4.96691 44.2415 3.24489 45.5396 1.9791C46.8377 0.713306 48.5782 0.00349419 50.3913 0.00044615C51.625 -0.0136752 52.8394 0.307669 53.9048 0.930142C54.9701 1.55262 55.8462 2.45283 56.4397 3.53459L66.1645 1.9466C66.7045 1.86511 67.2548 1.99973 67.6962 2.32127C68.1376 2.64281 68.4345 3.12536 68.5225 3.66432C68.6105 4.20327 68.4825 4.7552 68.1663 5.20044C67.8501 5.64569 67.3712 5.94837 66.8334 6.04288L57.3232 7.5953C57.1916 9.03076 56.6178 10.39 55.6809 11.4855C54.7441 12.5811 53.4904 13.3589 52.0927 13.7117C50.6951 14.0644 49.2224 13.9748 47.8779 13.4552C46.5333 12.9355 45.3831 12.0115 44.586 10.8104L20.7685 21.5552C20.452 23.09 19.6271 24.4732 18.4271 25.4811C17.2272 26.489 15.7223 27.0628 14.1559 27.1096C12.5895 27.1563 11.0531 26.6734 9.79515 25.7388C8.5372 24.8043 7.63123 23.4728 7.22372 21.9596L-16.1514 18.2191C-16.5841 19.214 -17.2446 20.0933 -18.0797 20.7859C-18.9147 21.4786 -19.901 21.9651 -20.9588 22.2064C-22.0165 22.4476 -23.1162 22.4368 -24.169 22.1747C-25.2218 21.9126 -26.1983 21.4067 -27.0195 20.6977L-39.3914 28.4883ZM52.1377 4.76205C51.6387 4.36503 51.0195 4.14963 50.3818 4.15129C49.6365 4.15192 48.922 4.44825 48.395 4.97522C47.868 5.50219 47.5717 6.21675 47.5711 6.962C47.5713 7.17379 47.5968 7.38479 47.647 7.59056C47.8015 8.26464 48.1988 8.85823 48.7631 9.25804C49.3274 9.65784 50.0192 9.83587 50.7064 9.75815C51.3936 9.68042 52.0281 9.35239 52.4888 8.83665C52.9496 8.32091 53.2043 7.65357 53.2044 6.962C53.2041 6.78402 53.1866 6.60649 53.1522 6.43188L53.1273 6.33582C52.9856 5.71409 52.6366 5.15908 52.1377 4.76205ZM11.9868 18.1282C11.507 18.5913 11.2072 19.2099 11.1409 19.8735C11.1404 19.88 11.1399 19.887 11.1393 19.8945C11.1343 19.9565 11.1267 20.0503 11.1267 20.1498C11.1292 20.8965 11.4278 21.6118 11.9569 22.1387C12.486 22.6656 13.2025 22.9612 13.9493 22.9605C14.3728 22.9632 14.7913 22.8694 15.1733 22.6865C15.5552 22.5035 15.8906 22.2361 16.1539 21.9044C16.4173 21.5727 16.6018 21.1855 16.6934 20.772C16.7851 20.3585 16.7815 19.9296 16.6829 19.5177C16.5323 18.868 16.1559 18.2929 15.6208 17.8949C15.0856 17.4969 14.4265 17.3018 13.761 17.3446C13.0954 17.3873 12.4667 17.665 11.9868 18.1282ZM-20.5083 13.4192C-21.0353 12.8922 -21.7499 12.5959 -22.4951 12.5953C-22.9976 12.5955 -23.4908 12.7304 -23.9234 12.9859C-24.3561 13.2414 -24.7124 13.6081 -24.9552 14.048C-25.1981 14.4878 -25.3187 14.9847 -25.3044 15.487C-25.2902 15.9892 -25.1416 16.4785 -24.8741 16.9039C-24.6254 17.311 -24.2756 17.6469 -23.8588 17.879C-23.4419 18.1111 -22.9722 18.2315 -22.4951 18.2286C-21.7973 18.2228 -21.1261 17.9599 -20.6101 17.4901C-20.0941 17.0202 -19.7696 16.3766 -19.6986 15.6823C-19.6981 15.6758 -19.6976 15.6688 -19.697 15.6614C-19.692 15.5994 -19.6844 15.5055 -19.6844 15.406C-19.685 14.6607 -19.9814 13.9462 -20.5083 13.4192ZM5.17194 38.8641C12.0898 33.3393 20.6794 30.3285 29.5326 30.3252C39.8851 30.3384 49.8096 34.4575 57.1288 41.779C64.4481 49.1004 68.5642 59.0262 68.5742 69.3787C68.5749 74.5059 67.5655 79.583 65.6037 84.32C63.6419 89.057 60.7661 93.3612 57.1406 96.9867C53.5151 100.612 49.211 103.488 44.4739 105.45C39.7369 107.412 34.6598 108.421 29.5326 108.42H-30.2158C-32.1652 108.418 -34.0342 107.643 -35.4126 106.264C-36.7911 104.886 -37.5665 103.017 -37.5687 101.067V95.2681C-37.5691 94.0745 -37.2772 92.8989 -36.7184 91.8442C-38.3129 91.4504 -39.7298 90.5344 -40.7436 89.2421C-41.7573 87.9498 -42.3096 86.3555 -42.3125 84.7131V78.9256C-42.3103 76.9762 -41.5349 75.1072 -40.1565 73.7287C-38.778 72.3503 -36.909 71.5749 -34.9596 71.5727H-30.8953C-31.3833 70.5757 -31.6376 69.4806 -31.6389 68.3706V62.5713C-31.6377 61.4488 -31.3775 60.3416 -30.8787 59.336C-32.7054 59.169 -34.4039 58.3259 -35.6414 56.9719C-36.8789 55.6179 -37.5662 53.8506 -37.5687 52.0163V46.217C-37.5665 44.2675 -36.7911 42.3986 -35.4126 41.0201C-34.0342 39.6417 -32.1652 38.8663 -30.2158 38.8641H5.17194ZM-33.4178 46.217V52.0163C-33.4178 52.8655 -33.0805 53.68 -32.48 54.2805C-31.8795 54.881 -31.065 55.2184 -30.2158 55.2184H-6.84297C-5.10311 50.7158 -2.53872 46.5772 0.718678 43.0149H-30.2158C-30.6363 43.0149 -31.0527 43.0977 -31.4411 43.2587C-31.8296 43.4196 -32.1826 43.6554 -32.48 43.9528C-32.7773 44.2501 -33.0132 44.6031 -33.1741 44.9916C-33.335 45.3801 -33.4178 45.7965 -33.4178 46.217ZM-27.4881 62.5713V68.3706C-27.4881 69.2199 -27.1507 70.0343 -26.5502 70.6348C-25.9497 71.2353 -25.1352 71.5727 -24.286 71.5727H-9.45682C-9.49714 70.8469 -9.52085 70.114 -9.52085 69.3787C-9.52238 65.9997 -9.08385 62.6349 -8.2163 59.3692H-24.286C-25.1352 59.3692 -25.9497 59.7066 -26.5502 60.3071C-27.1507 60.9076 -27.4881 61.7221 -27.4881 62.5713ZM-38.1617 78.9256V84.7131C-38.1617 85.5623 -37.8243 86.3768 -37.2238 86.9773C-36.6233 87.5778 -35.8088 87.9152 -34.9596 87.9152H-4.82447C-6.87683 84.1095 -8.2835 79.9897 -8.98718 75.7235H-34.9596C-35.8088 75.7235 -36.6233 76.0609 -37.2238 76.6614C-37.8243 77.2619 -38.1617 78.0764 -38.1617 78.9256ZM-32.48 103.332C-31.8795 103.932 -31.065 104.269 -30.2158 104.269H12.0327C6.35502 101.423 1.4577 97.2339 -2.23435 92.066H-30.2158C-31.065 92.066 -31.8795 92.4034 -32.48 93.0039C-33.0805 93.6044 -33.4178 94.4188 -33.4178 95.2681V101.067C-33.4178 101.917 -33.0805 102.731 -32.48 103.332ZM29.5326 104.269C34.1206 104.281 38.6648 103.376 42.8983 101.608C48.7348 99.187 53.8044 95.2265 57.566 90.1494C61.3276 85.0723 63.6402 79.0692 64.2568 72.7806C64.8735 66.492 63.7711 60.154 61.0674 54.4429C58.3636 48.7318 54.16 43.862 48.905 40.3532C43.65 36.8444 37.5409 34.8282 31.2297 34.5198C24.9185 34.2115 18.6419 35.6225 13.0699 38.6023C7.49792 41.5822 2.83954 46.019 -0.408081 51.4393C-3.6557 56.8596 -5.37069 63.0599 -5.37001 69.3787C-5.3702 70.7235 -5.291 72.0671 -5.13283 73.4026C-4.495 78.9257 -2.54607 84.2162 0.551456 88.8331C3.74422 93.587 8.05812 97.4819 13.1124 100.174C18.1668 102.866 23.8061 104.273 29.5326 104.269ZM18.8354 43.5576C22.2261 42.1534 25.8603 41.431 29.5303 41.4316C36.9376 41.4423 44.0382 44.3904 49.2746 49.6294C54.5111 54.8683 57.4559 61.9703 57.4631 69.3775C57.4634 73.0463 56.741 76.6793 55.3371 80.0689C53.9332 83.4585 51.8754 86.5384 49.2811 89.1326C46.6867 91.7268 43.6068 93.7845 40.2171 95.1883C36.8274 96.592 33.1944 97.3143 29.5256 97.3138C22.6731 97.3178 16.0585 94.8016 10.9411 90.2443C5.82372 85.687 2.56104 79.4069 1.77427 72.5997C1.64803 71.5303 1.58506 70.4543 1.5857 69.3775C1.58492 65.7075 2.30719 62.0732 3.71125 58.6824C5.11531 55.2916 7.17365 52.2106 9.76869 49.6155C12.3637 47.0203 15.4446 44.9618 18.8354 43.5576ZM29.5303 93.163C32.6589 93.1716 35.7577 92.5547 38.6444 91.3485C42.3127 89.8261 45.5415 87.4095 48.0363 84.3191C50.5311 81.2288 52.2125 77.563 52.9272 73.6562C53.6418 69.7493 53.367 65.7257 52.1277 61.9523C50.8885 58.1789 48.7243 54.7759 45.8324 52.0534C42.9406 49.331 39.4132 47.3759 35.572 46.3664C31.7307 45.3569 27.6979 45.3252 23.8412 46.2741C19.9846 47.223 16.4268 49.1224 13.4925 51.799C10.5582 54.4756 8.34074 57.8442 7.04228 61.5976C5.87416 64.9745 5.48257 68.5714 5.89664 72.1206C6.56628 77.9175 9.34489 83.2655 13.7032 87.146C18.0615 91.0264 23.6949 93.1681 29.5303 93.163ZM31.0625 66.6546C27.392 65.8635 26.2001 65.3595 26.2001 63.8474C26.2001 62.6235 27.3161 61.6878 29.2954 61.6878C31.87 61.7733 34.3466 62.6959 36.3495 64.3159L39.4816 59.9279C37.24 58.0536 34.4782 56.9109 31.5677 56.6534V54.3823H27.8237V56.6534C23.1095 57.1919 20.013 60.1805 20.013 64.4629C20.013 69.4297 23.9361 70.8671 29.2278 72.053C32.826 72.9164 33.9788 73.239 33.9788 74.7167C33.9788 76.0473 32.7928 76.9842 30.4873 76.9842C27.4901 76.9379 24.6071 75.8269 22.354 73.8498L18.897 77.9899C21.3885 80.2115 24.5069 81.6068 27.8237 81.9842V84.3561H31.5677V82.0957C36.9306 81.664 40.1683 78.6766 40.1683 74.0692C40.1706 69.4262 36.6057 67.8429 31.0625 66.6546Z" fill="url(#paint0_linear_24_65)"/>
</g>
<defs>
<linearGradient id="paint0_linear_24_65" x1="13.0006" y1="0" x2="13.0006" y2="108.42" gradientUnits="userSpaceOnUse">
<stop stop-color="#6A92BF"/>
<stop offset="1" stop-color="#121A38"/>
</linearGradient>
</defs>
</svg>
