<svg width="74" height="110" viewBox="0 0 74 110" fill="none" xmlns="http://www.w3.org/2000/svg">
<path fill-rule="evenodd" clip-rule="evenodd" d="M67.2462 99.3744H-25.6609V6.46607C-25.6842 4.75094 -26.3819 3.11395 -27.603 1.90932C-28.8241 0.704686 -30.4704 0.0292969 -32.1857 0.0292969C-33.901 0.0292969 -35.5473 0.704686 -36.7684 1.90932C-37.9895 3.11395 -38.6872 4.75094 -38.7104 6.46607V110.322C-38.7101 110.88 -38.4887 111.415 -38.0947 111.809C-37.7008 112.204 -37.1664 112.426 -36.6087 112.428H67.2462C68.1105 112.439 68.9685 112.279 69.7705 111.957C70.5724 111.634 71.3022 111.155 71.9175 110.548C72.5329 109.941 73.0215 109.218 73.355 108.42C73.6885 107.623 73.8602 106.767 73.8602 105.903C73.8602 105.038 73.6885 104.183 73.355 103.385C73.0215 102.588 72.5329 101.864 71.9175 101.257C71.3022 100.65 70.5724 100.172 69.7705 99.849C68.9685 99.5264 68.1105 99.3663 67.2462 99.378V99.3744ZM67.2462 108.213H-34.5034V6.46607C-34.4896 5.86147 -34.2397 5.28628 -33.8073 4.86356C-33.3748 4.44084 -32.794 4.20416 -32.1893 4.20416C-31.5845 4.20416 -31.0038 4.44084 -30.5713 4.86356C-30.1389 5.28628 -29.889 5.86147 -29.8752 6.46607V101.483C-29.8749 102.042 -29.653 102.577 -29.2582 102.972C-28.8635 103.366 -28.3281 103.588 -27.7699 103.589H67.2462C67.5546 103.582 67.8612 103.636 68.1481 103.749C68.435 103.863 68.6964 104.032 68.917 104.248C69.1375 104.463 69.3128 104.721 69.4324 105.005C69.552 105.289 69.6137 105.594 69.6137 105.903C69.6137 106.211 69.552 106.516 69.4324 106.801C69.3128 107.085 69.1375 107.342 68.917 107.558C68.6964 107.774 68.435 107.943 68.1481 108.056C67.8612 108.169 67.5546 108.224 67.2462 108.217V108.213ZM-5.02488 9.95595L-6.07154 11.0038C-6.46639 11.3987 -7.00192 11.6205 -7.56032 11.6205C-8.11872 11.6205 -8.65425 11.3987 -9.0491 11.0038C-9.44395 10.609 -9.66577 10.0734 -9.66577 9.51503C-9.66577 8.95663 -9.44395 8.42109 -9.0491 8.02625L-4.37884 3.35599C-4.18342 3.16032 -3.95134 3.0051 -3.69588 2.89919C-3.44043 2.79328 -3.1666 2.73877 -2.89006 2.73877C-2.61352 2.73877 -2.33969 2.79328 -2.08424 2.89919C-1.82878 3.0051 -1.5967 3.16032 -1.40128 3.35599L3.26898 8.02625C3.65257 8.42324 3.86489 8.95501 3.8602 9.50703C3.85551 10.059 3.6342 10.5871 3.24393 10.9776C2.85366 11.368 2.32566 11.5895 1.77365 11.5944C1.22163 11.5993 0.689774 11.3872 0.292622 11.0038L-0.81419 9.8982V15.7715C-0.81419 16.3299 -1.036 16.8654 -1.43083 17.2602C-1.82566 17.6551 -2.36116 17.8769 -2.91954 17.8769C-3.47791 17.8769 -4.01341 17.6551 -4.40824 17.2602C-4.80307 16.8654 -5.02488 16.3299 -5.02488 15.7715V9.95595ZM44.6853 11.0038L45.7332 9.95595V15.7715C45.7332 16.3299 45.955 16.8654 46.3498 17.2602C46.7447 17.6551 47.2802 17.8769 47.8385 17.8769C48.3969 17.8769 48.9324 17.6551 49.3272 17.2602C49.7221 16.8654 49.9439 16.3299 49.9439 15.7715V9.897L51.0507 11.0038C51.4455 11.3987 51.9811 11.6205 52.5395 11.6205C53.0979 11.6205 53.6334 11.3987 54.0283 11.0038C54.4231 10.609 54.6449 10.0734 54.6449 9.51503C54.6449 8.95663 54.4231 8.42109 54.0283 8.02625L49.3568 3.35599C49.1614 3.16032 48.9293 3.0051 48.6738 2.89919C48.4184 2.79328 48.1446 2.73877 47.868 2.73877C47.5915 2.73877 47.3176 2.79328 47.0622 2.89919C46.8067 3.0051 46.5747 3.16032 46.3792 3.35599L41.7102 8.02625C41.3266 8.42324 41.1143 8.95501 41.119 9.50703C41.1237 10.059 41.345 10.5871 41.7352 10.9776C42.1255 11.368 42.6535 11.5895 43.2055 11.5944C43.7575 11.5993 44.2894 11.3872 44.6865 11.0038H44.6853ZM19.3068 11.0042L20.3547 9.95633V15.7719C20.3547 16.3303 20.5765 16.8658 20.9713 17.2606C21.3662 17.6554 21.9017 17.8772 22.46 17.8772C23.0184 17.8772 23.5539 17.6554 23.9487 17.2606C24.3436 16.8658 24.5654 16.3303 24.5654 15.7719V9.89738L25.6722 11.0042C26.0693 11.3876 26.6012 11.5997 27.1532 11.5948C27.7052 11.5899 28.2332 11.3684 28.6235 10.978C29.0138 10.5875 29.2351 10.0594 29.2398 9.50742C29.2445 8.9554 29.0321 8.42363 28.6485 8.02663L23.9771 3.35637C23.7818 3.16074 23.5498 3.00554 23.2944 2.89965C23.0391 2.79376 22.7654 2.73926 22.4889 2.73926C22.2125 2.73926 21.9387 2.79376 21.6834 2.89965C21.428 3.00554 21.196 3.16074 21.0007 3.35637L16.3257 8.02663C15.9308 8.42148 15.709 8.95701 15.709 9.51541C15.709 10.0738 15.9308 10.6093 16.3257 11.0042C16.7205 11.399 17.256 11.6209 17.8144 11.6209C18.3728 11.6209 18.9084 11.399 19.3032 11.0042H19.3068ZM16.0403 74.8079C16.4351 74.4132 16.9704 74.1912 17.5287 74.1909C18.087 74.1912 18.6223 74.4132 19.017 74.8079C19.4118 75.2027 19.6337 75.738 19.634 76.2963V80.8751C19.634 81.4335 19.4122 81.969 19.0174 82.3638C18.6226 82.7586 18.0871 82.9804 17.5287 82.9804C16.9703 82.9804 16.4348 82.7586 16.04 82.3638C15.6451 81.969 15.4233 81.4335 15.4233 80.8751V76.2963C15.4237 75.738 15.6456 75.2027 16.0403 74.8079ZM27.4504 74.1909C26.8921 74.1909 26.3566 74.4127 25.9617 74.8076C25.5669 75.2024 25.3451 75.7379 25.3451 76.2963V80.8751C25.3451 81.4335 25.5669 81.969 25.9617 82.3638C26.3566 82.7586 26.8921 82.9804 27.4504 82.9804C28.0088 82.9804 28.5443 82.7586 28.9391 82.3638C29.334 81.969 29.5558 81.4335 29.5558 80.8751V76.2963C29.5558 75.7379 29.334 75.2024 28.9391 74.8076C28.5443 74.4127 28.0088 74.1909 27.4504 74.1909ZM10.5122 59.2965C10.2567 59.1906 10.0247 59.0353 9.82923 58.8397C9.43465 58.4447 9.21301 57.9092 9.21301 57.3509C9.21301 56.7926 9.43465 56.2571 9.82923 55.8621C10.9618 54.7328 12.4959 54.0986 14.0953 54.0986C15.6946 54.0986 17.2288 54.7328 18.3613 55.8621C18.7561 56.257 18.978 56.7925 18.978 57.3509C18.978 57.9093 18.7561 58.4448 18.3613 58.8397C17.9665 59.2345 17.4309 59.4563 16.8725 59.4563C16.3141 59.4563 15.7786 59.2345 15.3837 58.8397C15.0369 58.5077 14.5753 58.3225 14.0953 58.3225C13.6152 58.3225 13.1536 58.5077 12.8068 58.8397C12.6114 59.0353 12.3793 59.1906 12.1238 59.2965C11.8684 59.4024 11.5946 59.4569 11.318 59.4569C11.0415 59.4569 10.7676 59.4024 10.5122 59.2965ZM29.5918 58.8412C29.934 58.4999 30.3975 58.3081 30.8809 58.3081C31.3642 58.3081 31.8278 58.4999 32.17 58.8412C32.565 59.2359 33.1006 59.4575 33.659 59.4573C34.2174 59.4571 34.7528 59.2351 35.1475 58.84C35.5422 58.445 35.7638 57.9094 35.7636 57.351C35.7634 56.7926 35.5413 56.2572 35.1463 55.8625C34.0138 54.7335 32.48 54.0996 30.8809 54.0996C29.2818 54.0996 27.7479 54.7335 26.6154 55.8625C26.2204 56.2572 25.9984 56.7926 25.9982 57.351C25.9979 57.9094 26.2196 58.445 26.6142 58.84C27.0089 59.2351 27.5444 59.4571 28.1028 59.4573C28.6612 59.4575 29.1968 59.2359 29.5918 58.8412ZM-0.497734 61.7009H-11.9183C-12.476 61.7006 -13.0108 61.4791 -13.4054 61.0852C-13.8001 60.6912 -14.0224 60.1568 -14.0237 59.5991C-14.0189 56.5431 -12.8493 53.6039 -10.7531 51.3801C-8.65692 49.1562 -5.79184 47.8152 -2.74143 47.63C-4.8507 45.0878 -6.43178 42.1506 -7.39213 38.99C-8.35249 35.8294 -8.67284 32.5091 -8.33443 29.2232C-8.28858 28.7742 -8.09961 28.3517 -7.7954 28.0182C-7.49119 27.6847 -7.08785 27.4579 -6.64489 27.371C-6.20192 27.2842 -5.74277 27.3421 -5.33519 27.5361C-4.9276 27.7301 -4.59316 28.0499 -4.3812 28.4484C-3.01677 31.0254 -1.03897 33.2269 1.37766 34.8587C3.79428 36.4904 6.57541 37.5021 9.4756 37.8046C10.7906 36.9169 12.194 36.1678 13.6634 35.5693C19.3288 33.2895 25.6565 33.2895 31.3219 35.5693C32.7891 36.1674 34.1905 36.9156 35.5037 37.8022C38.4048 37.5004 41.187 36.4888 43.6046 34.8568C46.0221 33.2248 48.0006 31.0227 49.3653 28.4448C49.5773 28.0463 49.9117 27.7265 50.3193 27.5325C50.7269 27.3385 51.186 27.2806 51.629 27.3674C52.072 27.4542 52.4753 27.6811 52.7795 28.0146C53.0837 28.3481 53.2727 28.7705 53.3185 29.2196C53.658 32.5055 53.3381 35.8261 52.3777 38.9868C51.4173 42.1475 49.8357 45.0848 47.7255 47.6263C50.7751 47.8127 53.639 49.1543 55.7341 51.378C57.8293 53.6017 58.9983 56.5403 59.003 59.5955C59.0026 60.1538 58.7807 60.6891 58.386 61.0839C57.9912 61.4787 57.4559 61.7006 56.8976 61.7009H45.4758C44.6019 66.271 42.3741 70.4727 39.0816 73.7603C39.8888 75.5897 40.2262 77.5917 40.0632 79.5846C39.9003 81.5775 39.2421 83.4981 38.1484 85.1721C37.0547 86.846 35.5602 88.2202 33.8006 89.1699C32.0409 90.1196 30.072 90.6147 28.0724 90.6103H16.9069C13.7172 90.6068 10.6593 89.3382 8.40385 87.0828C6.14845 84.8274 4.87982 81.7694 4.87632 78.5798C4.87718 76.9196 5.22509 75.2781 5.89771 73.7603C2.60502 70.4726 0.376774 66.271 -0.497734 61.7009ZM31.0585 85.8047C32.0047 85.4109 32.8634 84.8333 33.5848 84.1054C34.8425 82.8653 35.6387 81.2326 35.8413 79.478C36.0439 77.7234 35.6408 75.9522 34.6989 74.4581C33.9986 73.3311 33.0227 72.4012 31.8633 71.7561C30.7039 71.1109 29.3992 70.7718 28.0724 70.7707H16.9069C15.8817 70.7699 14.8666 70.9724 13.9202 71.3664C12.9738 71.7604 12.115 72.3381 11.3933 73.0661C10.9701 73.4935 10.5934 73.9645 10.2696 74.4713C9.49627 75.702 9.08633 77.1262 9.08701 78.5798C9.08956 80.6529 9.91425 82.6405 11.3802 84.1064C12.8462 85.5724 14.8337 86.3971 16.9069 86.3996H28.0724C29.0973 86.4007 30.1123 86.1986 31.0585 85.8047ZM45.9065 57.4902H54.5023C54.0411 55.8538 53.0584 54.4126 51.7035 53.3856C50.3485 52.3585 48.6954 51.8017 46.9953 51.7997H45.2472C45.6841 53.5918 45.9078 55.4291 45.9137 57.2736C45.9137 57.309 45.9119 57.3449 45.9101 57.381C45.9083 57.4174 45.9065 57.4539 45.9065 57.4902ZM43.1972 46.3655C46.0027 43.5475 47.938 39.9818 48.7722 36.0939C46.1834 38.5411 43.0367 40.3197 39.6049 41.2754C40.5902 42.3297 41.4762 43.4726 42.2516 44.6897C42.5957 45.2383 42.9013 45.8013 43.1972 46.3655ZM29.7314 39.4684C25.0831 37.5977 19.8913 37.5977 15.243 39.4684C13.8313 40.0401 12.4942 40.781 11.2609 41.6748C9.27885 43.0991 7.58745 44.8893 6.27787 46.949C5.58149 48.0505 4.99787 49.2194 4.53585 50.4379C4.5142 50.4956 4.49014 50.5522 4.46367 50.6075C3.67926 52.7425 3.27731 54.9991 3.27625 57.2736C3.28818 62.0606 5.08467 66.6711 8.31465 70.2041C8.32905 70.1887 8.34284 70.1725 8.35661 70.1563C8.37618 70.1333 8.39571 70.1103 8.4169 70.0898C9.52827 68.9692 10.8509 68.0802 12.3082 67.4743C13.7656 66.8684 15.3286 66.5577 16.9069 66.56H28.07C29.673 66.5609 31.2594 66.8844 32.7348 67.5112C34.2101 68.1381 35.5441 69.0555 36.6574 70.2089C39.8864 66.6722 41.6833 62.0602 41.6982 57.2712C41.6998 54.9907 41.2953 52.7282 40.5036 50.5895C40.479 50.5394 40.4573 50.488 40.4386 50.4355C39.9734 49.2148 39.3875 48.0436 38.6894 46.9394C37.3825 44.8856 35.6952 43.1003 33.7184 41.6796C32.4842 40.7833 31.1453 40.0407 29.7314 39.4684ZM5.37621 41.2749C4.38836 42.3314 3.49977 43.4765 2.72165 44.6957C2.37878 45.2407 2.07681 45.8013 1.78085 46.3631C-0.120182 44.4575 -1.6292 42.1976 -2.66083 39.7114C-3.14994 38.5426 -3.52894 37.3307 -3.7929 36.0915C-1.20456 38.5406 1.94313 40.32 5.37621 41.2749ZM-0.266743 51.7973H-2.01719V51.7997C-3.71685 51.8018 -5.36942 52.3584 -6.72406 53.385C-8.07869 54.4115 -9.06141 55.852 -9.52305 57.4878H-0.928425C-0.928425 57.4515 -0.929943 57.415 -0.931454 57.3786C-0.932949 57.3425 -0.934441 57.3066 -0.934441 57.2712C-0.928295 55.4267 -0.704174 53.5893 -0.266743 51.7973Z" fill="url(#paint0_linear_24_33)"/>
<defs>
<linearGradient id="paint0_linear_24_33" x1="17.5749" y1="0.0292969" x2="17.5749" y2="112.428" gradientUnits="userSpaceOnUse">
<stop stop-color="#6A92BF"/>
<stop offset="1" stop-color="#121A38"/>
</linearGradient>
</defs>
</svg>
