<svg width="76" height="99" viewBox="0 0 76 99" fill="none" xmlns="http://www.w3.org/2000/svg">
<path fill-rule="evenodd" clip-rule="evenodd" d="M69.9769 40.8669H65.1551C62.4858 34.5244 57.9555 29.1406 52.1626 25.4266V11.3028C52.1627 11.0383 52.1107 10.7764 52.0096 10.532C51.9084 10.2876 51.7601 10.0655 51.5731 9.87846C51.386 9.69142 51.1639 9.54309 50.9195 9.44193C50.6751 9.34078 50.4132 9.28879 50.1487 9.28894C46.4229 9.30259 42.7688 10.3142 39.5664 12.2187C36.3641 14.1231 33.7305 16.8508 31.9396 20.118H21.5329C21.8522 17.1353 21.4286 14.12 20.2998 11.3407C19.171 8.56148 17.3722 6.10468 15.0636 4.18928C12.7551 2.27389 10.0085 0.959408 7.06864 0.363002C4.12881 -0.233403 1.0871 -0.0932055 -1.78539 0.771099C-4.65789 1.6354 -7.27194 3.19696 -9.39453 5.3166C-11.5171 7.43623 -13.0823 10.0481 -13.9507 12.9194C-14.819 15.7907 -14.9634 18.8322 -14.3711 21.7728C-13.7788 24.7135 -12.4682 27.4619 -10.556 29.7732C-16.4903 35.5515 -20.0802 43.3189 -20.6359 51.5831C-22.7103 51.1381 -24.5698 49.996 -25.9046 48.3468C-27.2395 46.6977 -27.9692 44.6411 -27.9722 42.5194C-27.9722 41.9853 -28.1844 41.4731 -28.5621 41.0954C-28.9397 40.7177 -29.452 40.5055 -29.9861 40.5055C-30.5202 40.5055 -31.0325 40.7177 -31.4101 41.0954C-31.7878 41.4731 -32 41.9853 -32 42.5194C-31.9944 45.7054 -30.846 48.7836 -28.7633 51.1946C-26.6807 53.6057 -23.8021 55.1894 -20.6508 55.6581C-20.34 61.4392 -18.5321 67.0402 -15.4043 71.912C-12.2609 76.8046 -7.91772 80.8115 -2.78811 83.5512V91.9739C-2.78445 93.69 -2.1003 95.3347 -0.885714 96.5471C0.328873 97.7596 1.97474 98.4408 3.6909 98.4414H10.8374C12.5521 98.4395 14.1961 97.7576 15.4085 96.5451C16.621 95.3326 17.303 93.6886 17.3049 91.9739V87.4858H29.745V91.9739C29.7483 93.6901 30.4324 95.335 31.647 96.5475C32.8617 97.7599 34.5077 98.4411 36.224 98.4414H43.3705C45.0851 98.4392 46.7289 97.7572 47.9413 96.5447C49.1537 95.3323 49.8358 93.6885 49.838 91.9739V83.5316C56.7137 79.8458 62.1224 73.9197 65.1666 66.7369H69.9769C71.4476 66.7353 72.8576 66.1504 73.8975 65.1105C74.9374 64.0706 75.5223 62.6607 75.5238 61.19V46.4137C75.5223 44.9431 74.9374 43.5331 73.8975 42.4932C72.8576 41.4533 71.4476 40.8684 69.9769 40.8669ZM3.44923 4.02979C7.20345 4.03283 10.8032 5.52475 13.4589 8.17831C16.1146 10.8319 17.6095 14.4304 17.6156 18.1846C17.6299 21.4461 16.4883 24.6071 14.3933 27.1068C9.17303 27.4894 4.11561 29.093 -0.371428 31.7882C-2.5971 31.1687 -4.63863 30.017 -6.31991 28.4325C-8.36625 26.4804 -9.78093 23.9601 -10.3816 21.1966C-10.9822 18.433 -10.7412 15.5529 -9.68971 12.9275C-8.63821 10.3022 -6.8244 8.05201 -4.48213 6.46712C-2.13987 4.88224 0.623447 4.03531 3.45153 4.03554L3.44923 4.02979ZM71.496 61.19C71.4954 61.5927 71.3352 61.9787 71.0504 62.2635C70.7657 62.5482 70.3796 62.7084 69.9769 62.7091H63.7971C63.3857 62.7091 62.9842 62.8351 62.6464 63.07C62.3086 63.3049 62.0508 63.6376 61.9075 64.0233C59.2087 71.2201 53.8549 77.1092 46.9471 80.4797C46.6067 80.6446 46.3196 80.9021 46.1187 81.2227C45.9178 81.5433 45.8113 81.9139 45.8113 82.2922V91.9704C45.8104 92.6172 45.5531 93.2372 45.0957 93.6945C44.6384 94.1519 44.0184 94.4092 43.3716 94.4101H36.224C35.5756 94.411 34.9533 94.1547 34.4938 93.6973C34.0342 93.2399 33.7749 92.6188 33.7728 91.9704V85.4719C33.7728 84.9378 33.5606 84.4255 33.1829 84.0478C32.8053 83.6702 32.293 83.458 31.7589 83.458H15.291C15.0264 83.4578 14.7645 83.5098 14.5201 83.611C14.2757 83.7121 14.0536 83.8605 13.8666 84.0475C13.6795 84.2345 13.5312 84.4566 13.43 84.701C13.3289 84.9454 13.2769 85.2074 13.2771 85.4719V91.9739C13.2764 92.6208 13.0192 93.2409 12.5618 93.6983C12.1044 94.1557 11.4842 94.413 10.8374 94.4136H3.6909C3.04251 94.4145 2.42025 94.1581 1.96069 93.7007C1.50113 93.2433 1.24183 92.6223 1.23969 91.9739V82.3187C1.23978 81.9411 1.13378 81.5711 0.933765 81.2508C0.733757 80.9306 0.447784 80.6729 0.108456 80.5073C-4.8445 78.096 -9.03843 74.3683 -12.0141 69.7324C-15.0667 64.9884 -16.6894 59.4661 -16.6886 53.8249V53.8019V53.7846C-16.6823 49.8238 -15.8797 45.9046 -14.3286 42.2601C-12.7775 38.6156 -10.5095 35.3202 -7.65944 32.5696C-6.63677 33.3588 -5.53354 34.0377 -4.36815 34.595C-4.91478 35.0404 -5.45336 35.4984 -5.97927 35.976C-6.36946 36.3392 -6.59974 36.8423 -6.61962 37.375C-6.63949 37.9077 -6.44736 38.4265 -6.08533 38.8178C-5.72329 39.2091 -5.22089 39.4409 -4.68825 39.4623C-4.15561 39.4838 -3.63618 39.2932 -3.24382 38.9324C-1.88165 37.6708 -0.404938 36.5389 1.16719 35.5513H1.1741C5.46477 32.8512 10.3802 31.3052 15.444 31.0632H15.5338C15.9711 31.0437 16.4095 31.0321 16.8491 31.0321H21.7239C22.258 31.0321 22.7703 30.82 23.148 30.4423C23.5256 30.0646 23.7378 29.5524 23.7378 29.0182C23.7378 28.4841 23.5256 27.9719 23.148 27.5942C22.7703 27.2165 22.258 27.0043 21.7239 27.0043H19.3372C19.8485 26.0894 20.2805 25.1322 20.6284 24.1435H33.1721C33.5553 24.1439 33.9307 24.035 34.2542 23.8295C34.5777 23.6241 34.8359 23.3305 34.9984 22.9835C36.2052 20.413 38.0423 18.1893 40.339 16.5194C42.6357 14.8494 45.3174 13.7873 48.1348 13.4318V26.5509C48.1349 26.9005 48.226 27.244 48.3991 27.5477C48.5722 27.8513 48.8214 28.1047 49.1222 28.2829C55.0024 31.7744 59.5103 37.1737 61.896 43.5828C62.0393 43.9685 62.2971 44.3011 62.6349 44.536C62.9726 44.7709 63.3742 44.8969 63.7856 44.897H69.9769C70.3796 44.8976 70.7657 45.0578 71.0504 45.3426C71.3352 45.6273 71.4954 46.0133 71.496 46.416V61.19ZM4.00137 21.5784C2.28417 21.5521 0.63224 20.9162 -0.659365 19.7843L-2.63989 22.1561C-1.21224 23.4292 0.574768 24.2289 2.47541 24.445V25.8064H4.62051V24.5071C7.69314 24.2586 9.54823 22.5508 9.54823 19.9039C9.54823 17.2433 7.50671 16.3365 4.33051 15.6552C2.22799 15.2018 1.54672 14.9129 1.54672 14.0441C1.54672 13.3432 2.18656 12.807 3.3201 12.807C4.79549 12.8559 6.21474 13.3843 7.36286 14.3122L9.1558 11.7966C7.87104 10.7227 6.28841 10.0677 4.62051 9.91961V8.62842H2.47196V9.92652C-0.228966 10.2361 -2.0035 11.9485 -2.0035 14.402C-2.0035 17.2479 0.245167 18.0719 3.27637 18.7532C5.33745 19.248 5.99801 19.4333 5.99801 20.2791C5.99801 21.0421 5.31789 21.5784 4.00137 21.5784ZM48.5882 44.4457C49.6895 44.4457 50.7483 44.0212 51.5446 43.2604L51.5435 43.2662C51.7305 43.0792 51.9525 42.9308 52.1968 42.8296C52.4412 42.7284 52.7031 42.6763 52.9676 42.6763C53.2321 42.6763 53.4939 42.7284 53.7383 42.8296C53.9826 42.9308 54.2047 43.0792 54.3917 43.2662C54.5787 43.4532 54.7271 43.6752 54.8283 43.9196C54.9295 44.1639 54.9816 44.4258 54.9816 44.6903C54.9816 44.9548 54.9295 45.2167 54.8283 45.461C54.7271 45.7054 54.5787 45.9274 54.3917 46.1144C53.6297 46.877 52.7249 47.4819 51.729 47.8946C50.7331 48.3073 49.6656 48.5198 48.5876 48.5198C47.5096 48.5198 46.4421 48.3073 45.4463 47.8946C44.4504 47.4819 43.5456 46.877 42.7836 46.1144C42.4051 45.7367 42.1922 45.2241 42.1917 44.6895C42.1911 44.1548 42.403 43.6418 42.7807 43.2633C43.1584 42.8848 43.671 42.6719 44.2057 42.6714C44.7403 42.6708 45.2533 42.8827 45.6318 43.2604C46.4281 44.0212 47.487 44.4457 48.5882 44.4457Z" fill="url(#paint0_linear_24_26)"/>
<defs>
<linearGradient id="paint0_linear_24_26" x1="21.7619" y1="0" x2="21.7619" y2="98.4414" gradientUnits="userSpaceOnUse">
<stop stop-color="#6A92BF"/>
<stop offset="1" stop-color="#121A38"/>
</linearGradient>
</defs>
</svg>
