<svg width="34" height="34" viewBox="0 0 34 34" fill="none" xmlns="http://www.w3.org/2000/svg">
<path fill-rule="evenodd" clip-rule="evenodd" d="M15.5945 0.10401C15.2236 0.304785 8.34364 6.24142 8.19309 6.49055C8.00446 6.80296 8.00446 7.13112 8.19309 7.46002C8.4672 7.93774 8.58757 7.96504 10.4176 7.96504H12.0305V20.9825V34H15.6223C19.091 34 19.2232 33.9954 19.4765 33.8663C19.9452 33.6273 20.0065 33.4086 20.0065 31.9739V30.7395L19.7998 30.6263C19.2314 30.3151 18.1856 29.5747 17.6997 29.1393C12.8109 24.7596 12.8109 17.1999 17.6997 12.8264C18.1945 12.3837 19.2625 11.6259 19.7962 11.3388L20.0065 11.2256V9.59535V7.96504H21.6044C23.0746 7.96504 23.2232 7.95435 23.4645 7.83135C23.9539 7.58182 24.128 6.96469 23.8439 6.48643C23.6713 6.19606 16.5779 0.102217 16.3375 0.03786C16.082 -0.0304818 15.796 -0.00504455 15.5945 0.10401ZM24.061 12.057C21.9181 12.322 20.1307 13.193 18.6433 14.6969C17.3224 16.0325 16.5608 17.458 16.1724 19.3221C16.009 20.1055 16.009 21.8595 16.1724 22.6429C16.5608 24.507 17.3224 25.9325 18.6433 27.2681C19.9662 28.6058 21.4439 29.4024 23.3298 29.7949C24.0972 29.9546 25.8595 29.9559 26.6532 29.7974C30.3298 29.0631 33.0991 26.3199 33.8756 22.6429C34.0415 21.8572 34.0415 20.1078 33.8756 19.3221C33.1047 15.6715 30.3336 12.9077 26.7154 12.1808C26.2242 12.0822 24.5058 12.002 24.061 12.057ZM6.56432 14.1458C6.41245 14.226 6.26383 14.3787 6.18214 14.5387C6.05007 14.7975 6.04847 14.9141 6.04847 24.4003V34H8.04248H10.0365V24.0044V14.0089L8.42466 14.0118C6.95149 14.0145 6.79144 14.026 6.56432 14.1458ZM25.4585 14.1426C25.8693 14.352 25.9885 14.6541 25.9885 15.486V16.1714L26.4704 16.4099C27.1077 16.7251 27.6258 17.192 27.718 17.534C27.9093 18.2439 27.2526 18.9183 26.5254 18.7587C26.4128 18.734 26.1936 18.6072 26.0383 18.4768C25.6801 18.1763 25.2892 17.9968 24.9915 17.9963C24.4875 17.9955 23.9945 18.4795 23.9945 18.975C23.9945 19.4929 24.4918 19.9863 25.0139 19.9863C26.0569 19.9863 27.1132 20.6311 27.6064 21.569C28.0647 22.4404 28.0865 23.421 27.6669 24.2925C27.433 24.7785 26.788 25.4308 26.3375 25.6371L25.9885 25.7969V26.4807C25.9885 27.3108 25.8691 27.6131 25.4585 27.8225C25.118 27.996 24.84 27.9916 24.5118 27.8073C24.1028 27.5776 23.9945 27.2996 23.9945 26.4802V25.7959L23.5126 25.5643C22.913 25.2762 22.0437 24.4602 21.9691 24.1155C21.8104 23.3828 22.4767 22.7106 23.1717 22.9023C23.311 22.9407 23.5724 23.1226 23.7992 23.3388C24.44 23.9495 24.9425 24.1005 25.4585 23.8375C25.7534 23.6872 25.9885 23.3045 25.9885 22.975C25.9885 22.4573 25.4964 21.9788 24.9642 21.9788C24.2377 21.9788 23.4626 21.6437 22.8948 21.0842C21.9561 20.1592 21.7462 18.8475 22.3393 17.6123C22.5463 17.1815 23.2148 16.527 23.6455 16.3336L23.9945 16.1769L23.9973 15.4748C24.0005 14.6529 24.0928 14.4124 24.4992 14.1666C24.8174 13.9741 25.1135 13.9667 25.4585 14.1426ZM0.515848 22.1157C0.363972 22.1959 0.215352 22.3486 0.133665 22.5086C0.00312392 22.7644 0 22.892 0 27.9894C0 32.9826 0.00545026 33.219 0.126087 33.4553C0.200065 33.6002 0.361712 33.7637 0.517311 33.8511C0.771612 33.9939 0.847916 34 2.38523 34H3.988V27.9894V21.9788L2.37619 21.9817C0.903017 21.9844 0.742965 21.9959 0.515848 22.1157Z" fill="url(#paint0_linear_24_176)"/>
<defs>
<linearGradient id="paint0_linear_24_176" x1="17" y1="0" x2="17" y2="34" gradientUnits="userSpaceOnUse">
<stop stop-color="white"/>
<stop offset="1" stop-color="white" stop-opacity="0"/>
</linearGradient>
</defs>
</svg>
