<svg width="29" height="32" viewBox="0 0 29 32" fill="none" xmlns="http://www.w3.org/2000/svg">
<path fill-rule="evenodd" clip-rule="evenodd" d="M0.695469 0.0667073C0.496777 0.146097 0.211802 0.417211 0.0989572 0.634252C-0.0329857 0.887988 -0.0329857 31.1113 0.0989572 31.3651C0.216779 31.5917 0.500509 31.8547 0.715064 31.9362C0.835063 31.9817 3.00985 32.0018 7.62014 31.9999L14.3501 31.9971L14.0702 31.7698C13.5056 31.3116 12.4105 30.1426 12.0042 29.5647C9.77104 26.3877 9.43363 22.2883 11.1167 18.7814C12.4468 16.0102 14.8848 13.972 17.8783 13.1289C18.6007 12.9255 19.3538 12.8157 20.3376 12.7704L21.2241 12.7296L21.2227 6.8163C21.2214 1.21224 21.2154 0.889988 21.1071 0.653006C20.9711 0.355574 20.8324 0.222299 20.524 0.0927747C20.3211 0.00757106 19.1871 -0.00293092 10.573 0.000569744C4.2863 0.00313273 0.796059 0.0265122 0.695469 0.0667073ZM14.6645 6.09047C15.1678 6.34433 15.3968 6.83311 15.257 7.3549C15.1663 7.6934 14.9721 7.92744 14.6661 8.06716C14.4272 8.17612 14.1675 8.18299 10.2579 8.18431C5.83142 8.18574 5.86339 8.18781 5.5256 7.88637C5.35515 7.73428 5.17742 7.3167 5.17581 7.06459C5.17294 6.61513 5.53475 6.12892 5.97014 5.99702C6.06283 5.96895 7.98773 5.94357 10.2477 5.94063L14.3568 5.93525L14.6645 6.09047ZM14.6611 12.0086C15.0317 12.214 15.3159 12.6656 15.313 13.044C15.3108 13.3235 15.0976 13.7183 14.8438 13.9128L14.6087 14.093L10.3736 14.1119C7.4882 14.1246 6.0655 14.1092 5.90905 14.0635C5.5949 13.9718 5.25375 13.5626 5.20193 13.2154C5.14682 12.8462 5.2155 12.5901 5.43776 12.3357C5.6586 12.0829 5.80784 11.9927 6.10756 11.9308C6.22731 11.9059 8.15886 11.8901 10.3999 11.8954C14.0632 11.9041 14.4934 11.9156 14.6611 12.0086ZM19.3889 15.0934C16.3269 15.5831 13.7864 17.6904 12.7713 20.5825C12.4282 21.5601 12.31 22.2839 12.31 23.4073C12.31 24.5307 12.4282 25.2545 12.7713 26.2321C13.9414 29.5657 17.1136 31.809 20.6642 31.8138C25.2653 31.8199 28.9995 28.0594 29 23.4193C29.0001 22.5106 28.9297 21.9541 28.7176 21.1859C27.928 18.3268 25.7126 16.09 22.8926 15.3047C21.8235 15.007 20.4479 14.924 19.3889 15.0934ZM8.77976 17.9986C9.07251 18.1487 9.25596 18.3947 9.33335 18.7409C9.47804 19.3879 9.11288 19.9226 8.42897 20.0653C8.20396 20.1122 7.6974 20.1299 7.04422 20.1135C5.90339 20.0849 5.77425 20.0487 5.43845 19.6644C5.095 19.2714 5.094 18.7025 5.43602 18.2855C5.74812 17.9051 5.86022 17.8802 7.27644 17.8775C8.41391 17.8753 8.56247 17.8872 8.77976 17.9986ZM18.6493 19.9141C19.4303 20.2865 19.4806 21.3575 18.7406 21.8586C18.4934 22.026 17.9591 22.0535 17.6907 21.9126C16.6377 21.3598 16.9857 19.826 18.1665 19.8153C18.3153 19.814 18.5325 19.8584 18.6493 19.9141ZM23.5433 19.899C23.7854 20.003 24.0539 20.2807 24.1439 20.5202C24.2282 20.7445 24.2287 21.1296 24.145 21.356C24.0485 21.6168 18.9501 26.7368 18.6424 26.8817C18.3257 27.031 18.0272 27.0305 17.6979 26.8803C17.114 26.6139 16.8919 25.805 17.2573 25.2758C17.548 24.8548 22.4183 20.0155 22.6549 19.9125C22.9292 19.7931 23.2846 19.7877 23.5433 19.899ZM23.7707 24.9917C24.4387 25.4813 24.3716 26.5069 23.6474 26.8782C23.2068 27.104 22.6677 27.0105 22.3322 26.65C21.6007 25.8638 22.3185 24.6037 23.3702 24.8275C23.5071 24.8566 23.6873 24.9305 23.7707 24.9917Z" fill="url(#paint0_linear_24_593)"/>
<defs>
<linearGradient id="paint0_linear_24_593" x1="14.5" y1="0" x2="14.5" y2="32" gradientUnits="userSpaceOnUse">
<stop stop-color="white"/>
<stop offset="1" stop-color="white" stop-opacity="0"/>
</linearGradient>
</defs>
</svg>
