<svg width="30" height="30" viewBox="0 0 30 30" fill="none" xmlns="http://www.w3.org/2000/svg">
<path fill-rule="evenodd" clip-rule="evenodd" d="M13.577 0.036424C10.7708 0.328267 8.21736 1.33031 5.93734 3.03458C5.1963 3.58856 3.59994 5.18427 3.05468 5.91614C1.61039 7.85483 0.673983 9.96395 0.262074 12.2062C-0.518858 16.4568 0.455151 20.6017 3.05468 24.0911C3.59994 24.8229 5.1963 26.4186 5.93734 26.9726C8.07538 28.5707 10.4446 29.5389 13.1657 29.9266C13.8598 30.0254 16.1665 30.0242 16.8912 29.9246C20.2867 29.4576 23.3277 27.9516 25.6405 25.5914C26.3774 24.8394 26.5529 24.6395 27.0243 24.0154C28.5462 22.0004 29.5451 19.5349 29.9264 16.8529C30.0245 16.1622 30.0245 13.8447 29.9263 13.1543C29.5889 10.7824 28.7519 8.53515 27.5209 6.69626C25.1093 3.09376 21.4016 0.752968 17.0965 0.115094C16.3768 0.00841976 14.2939 -0.0380778 13.577 0.036424ZM15.5622 5.51451C15.6882 5.58355 15.8503 5.74465 15.9289 5.87886L16.0698 6.1195V10.2971V14.4747L18.6493 16.5398C20.5867 18.0908 21.2539 18.6572 21.3299 18.815C21.3856 18.9306 21.4318 19.163 21.4325 19.3313C21.4348 19.8952 20.9724 20.3461 20.3917 20.3461C20.2347 20.3461 20.0231 20.3055 19.9214 20.2559C19.6598 20.1283 14.2533 15.7724 14.1075 15.5717C13.9888 15.4083 13.9868 15.34 13.9714 10.7674L13.9556 6.1289L14.0865 5.89594C14.2931 5.52807 14.759 5.29646 15.1604 5.36198C15.2572 5.37783 15.4381 5.44646 15.5622 5.51451Z" fill="url(#paint0_linear_24_592)"/>
<defs>
<linearGradient id="paint0_linear_24_592" x1="15" y1="0" x2="15" y2="30" gradientUnits="userSpaceOnUse">
<stop/>
<stop offset="0.0001" stop-color="white"/>
<stop offset="1" stop-color="white" stop-opacity="0"/>
</linearGradient>
</defs>
</svg>
