<svg width="24" height="40" viewBox="0 0 24 40" fill="none" xmlns="http://www.w3.org/2000/svg">
<path fill-rule="evenodd" clip-rule="evenodd" d="M6.68881 0.0485486C3.06978 0.641028 0.362533 3.46834 0.0338965 6.99867C-0.314141 10.7376 2.0487 14.1492 5.70661 15.1892C6.32263 15.3644 6.45087 15.3786 6.65616 15.2943C7.06469 15.1266 7.15191 14.8396 7.09426 13.8531C7.0042 12.3125 6.67564 10.7072 6.08871 8.94004C5.75416 7.93277 5.72679 7.68582 5.89005 7.1483C6.03437 6.67284 6.35867 6.26704 6.7997 6.01001L7.16201 5.79894L10.9348 5.75985L14.7076 5.72077L14.8979 5.50141C15.0024 5.38079 15.0878 5.18731 15.0873 5.07145C15.0853 4.53479 14.219 3.16026 13.3228 2.27205C12.2826 1.24117 11.1068 0.575597 9.6601 0.198877C8.98485 0.0229858 7.35002 -0.0597222 6.68881 0.0485486ZM19.1351 1.61719C19.0404 1.65502 18.9188 1.76712 18.8649 1.86633C18.8111 1.96545 18.4593 3.1723 18.0833 4.54816L17.3995 7.04972L12.4385 7.08881C9.70995 7.11031 7.43772 7.15353 7.38914 7.18488C7.34056 7.21615 7.2568 7.34725 7.20294 7.47608C7.11666 7.68246 7.13496 7.80113 7.35657 8.4735C7.73702 9.62743 8.0364 10.8422 8.22907 12.0138C8.32458 12.5942 8.45226 13.1477 8.51283 13.2437C8.68563 13.5176 8.94723 13.5318 9.82265 13.3149C11.7433 12.839 13.1301 12.9964 14.9397 13.8955C15.7805 14.3132 16.4772 14.537 16.6507 14.445C16.7549 14.3896 17.1668 12.9909 18.3141 8.79534C19.1529 5.72843 19.8694 3.14001 19.9064 3.04331C19.9737 2.86797 19.9796 2.86742 21.7791 2.86742C23.486 2.86742 23.5957 2.85859 23.7922 2.70537C23.9427 2.58803 24 2.47123 24 2.28182C24 1.56637 23.8972 1.53745 21.3816 1.54339C20.2408 1.54613 19.2299 1.57935 19.1351 1.61719ZM8.26969 2.51212C8.44264 2.68348 8.4633 2.77002 8.4633 3.32239C8.4633 3.82005 8.43286 3.97913 8.30738 4.13728C8.11463 4.38008 7.84262 4.43832 7.52298 4.30504C7.21958 4.17863 7.12257 3.93473 7.12257 3.29831C7.12257 2.87758 7.15396 2.76431 7.32676 2.56074C7.59065 2.24992 7.98466 2.2296 8.26969 2.51212ZM4.2475 7.28072C4.49671 7.52768 4.49947 7.87274 4.25459 8.15494C4.09355 8.34053 3.99631 8.37445 3.54401 8.40299C2.91623 8.44262 2.58704 8.32786 2.42221 8.01196C2.28688 7.7525 2.33262 7.52298 2.57111 7.2647C2.71481 7.10913 2.80976 7.08881 3.39377 7.08881C3.98952 7.08881 4.07281 7.10749 4.2475 7.28072ZM20.2355 7.2425C20.1439 7.32708 20.0502 7.45896 20.0272 7.53565C19.8127 8.25164 18.2427 14.0763 18.2427 14.1565C18.2427 14.4037 18.4687 14.4706 18.9622 14.3696C20.0324 14.1505 20.8453 13.6519 20.8453 13.2147C20.8453 12.4436 21.4053 9.88071 21.8667 8.53987C22.1577 7.69465 22.1638 7.52869 21.9136 7.28072C21.739 7.10757 21.6555 7.08881 21.061 7.08881C20.5147 7.08881 20.3734 7.11507 20.2355 7.2425ZM10.9421 14.4366C9.92628 14.577 8.62845 15.0693 8.46212 15.3774C8.41023 15.4735 8.29989 15.834 8.21685 16.1785C8.04578 16.8885 7.61234 17.8519 7.09087 18.6812C6.00441 20.4091 5.55289 22.0762 5.64793 24.0088C5.754 26.1672 6.69882 28.5184 8.00974 29.8863C9.2515 31.1821 11.3271 32.1331 13.6103 32.4526L13.9858 32.5052L13.9652 35.5686L13.9445 38.632L12.0735 38.671C10.2701 38.7087 10.1961 38.7165 10.0269 38.8843C9.76823 39.1409 9.78771 39.5751 10.0687 39.8147L10.2861 40H14.6254H18.9647L19.1952 39.7715C19.4944 39.475 19.4944 39.1961 19.1952 38.8995L18.9647 38.671H17.1447H15.3247V35.5867V32.5024L15.6204 32.4563C17.975 32.0894 19.5971 31.263 21.1558 29.6366C23.2719 27.4283 24.122 24.2679 23.3725 21.3946C23.1485 20.5357 22.8003 19.7521 22.2182 18.7971C21.6019 17.7859 21.3776 17.2994 21.1172 16.4089C20.8113 15.3623 20.6855 15.2861 19.7191 15.563C17.7914 16.1152 16.174 15.9952 14.5327 15.1782C13.1755 14.5025 12.089 14.2781 10.9421 14.4366Z" fill="url(#paint0_linear_24_169)"/>
<defs>
<linearGradient id="paint0_linear_24_169" x1="12" y1="0" x2="12" y2="40" gradientUnits="userSpaceOnUse">
<stop stop-color="white"/>
<stop offset="1" stop-color="white" stop-opacity="0.06"/>
</linearGradient>
</defs>
</svg>
