<svg width="34" height="34" viewBox="0 0 34 34" fill="none" xmlns="http://www.w3.org/2000/svg">
<path fill-rule="evenodd" clip-rule="evenodd" d="M21.7142 0.0384814C21.6594 0.0577307 16.7668 4.91665 10.8416 10.8361C-0.45642 22.1231 -0.0929623 21.7417 0.0361799 22.1736C0.0896958 22.3527 11.3447 33.6494 11.6758 33.8563C12.1817 34.1726 11.3164 34.9799 23.1565 23.1436C34.4557 11.8481 34.093 12.2289 33.9639 11.7972C33.9145 11.6319 22.856 0.510023 22.418 0.185042C22.175 0.00469559 21.9456 -0.0430958 21.7142 0.0384814ZM29.531 11.5775C29.743 11.7895 29.7617 11.8377 29.7283 12.0866C29.6943 12.3406 29.5737 12.4794 28.1432 13.9103C27.1384 14.9155 26.5211 15.4835 26.3846 15.5286C25.9803 15.6619 25.4988 15.2992 25.4988 14.8613C25.4988 14.5892 25.7055 14.3462 27.2069 12.8534C28.7152 11.3538 28.7277 11.3433 29.0112 11.3433C29.2494 11.3433 29.3356 11.3822 29.531 11.5775ZM16.6438 12.9439C18.0607 13.3811 19.4183 14.4327 20.3302 15.7993C21.2293 17.147 21.4975 18.7309 21.0046 19.7832C20.7428 20.3422 20.3606 20.725 19.7987 20.9911C19.3738 21.1924 19.3258 21.2001 18.5271 21.195C17.7787 21.1902 17.6443 21.1703 17.1587 20.9921C14.8859 20.158 12.9917 17.889 12.782 15.7496C12.6388 14.2887 13.4683 13.0902 14.8206 12.804C15.2408 12.715 16.1211 12.7826 16.6438 12.9439ZM2.09389 16.419C1.18093 16.7572 0.352894 17.099 0.253829 17.1786C-0.0316779 17.4079 -0.0443597 17.6819 0.198985 18.362C0.314516 18.6849 0.436421 18.9926 0.469819 19.0458C0.517027 19.1211 0.903856 18.7698 2.20842 17.4666C3.13128 16.5448 3.85646 15.7936 3.82008 15.7974C3.78363 15.8011 3.00685 16.0809 2.09389 16.419ZM28.8172 19.476C27.3028 20.9902 26.0992 22.2291 26.1425 22.2291C26.1858 22.2291 26.8382 22.0023 27.5923 21.725C29.0776 21.1789 29.2564 21.1544 29.5411 21.4573C29.8563 21.7927 29.7583 22.3765 29.3555 22.5627C28.9314 22.7588 25.6116 23.9549 25.4915 23.9549C25.3074 23.9549 25.0929 23.836 24.9345 23.646L24.8017 23.4868L21.8831 26.4065C20.2779 28.0124 18.9782 29.3374 18.9948 29.3511C19.0178 29.37 31.6722 24.7312 33.4223 24.0623C33.7584 23.9339 33.9969 23.6518 33.9974 23.3823C33.9977 23.2371 31.7009 16.8577 31.6172 16.7712C31.5916 16.7446 30.3315 17.9618 28.8172 19.476ZM8.06736 18.4736C8.30088 18.5712 8.5012 18.8647 8.5012 19.1094C8.5012 19.3816 8.29451 19.6246 6.79314 21.1173C5.36846 22.5339 5.2593 22.6274 5.03176 22.6274C4.69426 22.6274 4.48312 22.5155 4.34827 22.2651C4.11395 21.8302 4.1767 21.7387 5.86192 20.0575C7.21449 18.7082 7.56772 18.4015 7.78956 18.3835C7.81811 18.3812 7.94313 18.4218 8.06736 18.4736ZM3.73642 28.0703C3.89053 28.5334 5.73523 33.5643 5.7849 33.6571C5.86192 33.801 6.18461 33.9779 6.37006 33.9779C6.50298 33.9779 8.69063 33.2001 8.78186 33.1203C8.80849 33.0971 7.67662 31.9289 6.26674 30.5245C4.8568 29.1199 3.71816 28.0156 3.73642 28.0703Z" fill="url(#paint0_linear_24_591)"/>
<defs>
<linearGradient id="paint0_linear_24_591" x1="17" y1="0" x2="17" y2="34" gradientUnits="userSpaceOnUse">
<stop stop-color="white"/>
<stop offset="1" stop-color="white" stop-opacity="0"/>
</linearGradient>
</defs>
</svg>
