<svg width="30" height="31" viewBox="0 0 30 31" fill="none" xmlns="http://www.w3.org/2000/svg">
<path fill-rule="evenodd" clip-rule="evenodd" d="M14.3532 0.0311717C11.6056 0.225597 9.08934 1.08642 6.87569 2.5893L6.37471 2.92944L6.79192 2.95973C7.02139 2.97639 7.24805 3.0228 7.29559 3.06285C7.34314 3.1029 7.54256 3.17154 7.73867 3.21547C8.03264 3.28127 8.09869 3.31907 8.1145 3.43043C8.13253 3.55803 8.16187 3.56561 8.63848 3.56561C8.9161 3.56561 9.1433 3.55016 9.1433 3.53131C9.1433 3.51247 9.11539 3.44431 9.08132 3.37984C9.03359 3.28963 8.95431 3.26249 8.73699 3.26182C8.30517 3.26055 8.1775 3.21286 8.2578 3.08272C8.38811 2.87164 8.27822 2.78487 7.8561 2.76567L7.46129 2.74767L7.88197 2.42959C8.30188 2.11211 8.30343 2.1115 8.751 2.1115H9.19941L9.39589 2.37718C9.57823 2.62365 9.61626 2.6451 9.92178 2.67339C10.2342 2.70235 10.2624 2.69308 10.4691 2.49284C10.6569 2.3109 10.7044 2.29127 10.8134 2.35028C10.8829 2.38791 10.9398 2.43934 10.9398 2.46455C10.9398 2.48975 10.8242 2.62511 10.683 2.76537C10.4361 3.01062 10.4119 3.02032 10.0478 3.02032C9.7274 3.02032 9.675 3.03498 9.70578 3.11617C9.72579 3.16888 9.74213 3.29157 9.74213 3.38881V3.56561H10.2116C10.6515 3.56561 10.6852 3.55627 10.7478 3.41741C10.8043 3.29175 10.8625 3.26636 11.1295 3.25079C11.4305 3.23316 11.4461 3.22383 11.4833 3.03868C11.5186 2.86309 11.5076 2.84328 11.3662 2.82662C11.1677 2.80323 11.1347 2.64134 11.2955 2.47873C11.425 2.34768 11.8479 2.31175 12.3237 2.39136L12.5399 2.42753L12.2814 2.66867C12.0533 2.88139 12.027 2.93241 12.0588 3.10138C12.0786 3.20675 12.0976 3.2972 12.1012 3.30241C12.1047 3.30768 12.2355 3.33119 12.392 3.35476L12.6764 3.3976V3.02383V2.65007L12.9908 2.50672C13.1808 2.42008 13.4887 2.34664 13.7689 2.3212L14.2326 2.27909L14.9516 2.60099L15.6706 2.92289V3.20723C15.6706 3.48418 15.676 3.49254 15.8802 3.53131C16.1241 3.5776 16.1282 3.59208 15.9707 3.8534C15.8605 4.03613 15.8289 4.05031 15.5308 4.05031C15.2131 4.05031 15.2087 4.05279 15.1178 4.2869L15.026 4.52355L14.3752 4.37112C14.0172 4.28726 13.7024 4.19814 13.6756 4.173C13.6488 4.14779 13.8751 3.99747 14.1786 3.83886L14.7304 3.55052L14.4969 3.3481C14.3684 3.23674 14.2344 3.15567 14.1989 3.16791C14.1635 3.18015 13.9479 3.20947 13.7198 3.23298C13.3566 3.27048 13.2783 3.30187 13.0883 3.48599C12.9373 3.63237 12.7963 3.70641 12.6242 3.7298C12.3485 3.76718 12.3238 3.81474 12.4918 3.98469C12.6285 4.12295 12.5961 4.17148 12.367 4.17148C12.2373 4.17148 12.1974 4.20002 12.1974 4.29266C12.1974 4.39075 12.1574 4.41383 11.9878 4.41383C11.821 4.41383 11.7782 4.39002 11.7782 4.29762C11.7782 4.01601 11.7338 3.99172 11.3993 4.09054C11.1434 4.16609 10.012 4.77433 9.76357 4.96984C9.67201 5.04188 9.82094 5.55045 9.96628 5.66212C10.1035 5.7676 10.3622 5.84872 10.7152 5.89701L10.9997 5.93597V6.35633V6.77674H11.1683C11.3149 6.77674 11.3588 6.73052 11.504 6.42309C11.6688 6.07435 11.6769 6.06751 12.0839 5.93488L12.4968 5.80038V5.26678V4.73325L12.7255 4.57287L12.9542 4.4125L13.4916 4.53931L14.029 4.66612L13.9931 4.99602C13.9734 5.17754 13.97 5.33888 13.9855 5.35463C14.0558 5.42564 14.2678 5.36724 14.6541 5.17039L15.0718 4.9576V5.41334V5.86902L15.3712 6.05545C15.6568 6.23321 15.6706 6.25412 15.6706 6.50683C15.6706 6.76899 15.6675 6.77287 15.3797 6.87629C15.0079 7.00988 15.0297 7.12227 15.4647 7.3144C15.7666 7.44769 15.7904 7.47308 15.7904 7.66278C15.7904 7.9064 15.7779 7.90773 15.1915 7.7253C14.8209 7.61 14.7389 7.56153 14.7225 7.44787C14.7098 7.35978 14.7488 7.27744 14.8307 7.21934C14.9936 7.10392 14.9716 6.87477 14.7951 6.84933C14.7113 6.83721 14.6581 6.86999 14.6385 6.9459C14.6157 7.03394 14.5332 7.07005 14.2863 7.10004C13.9898 7.13609 13.9551 7.12706 13.8542 6.98825C13.7715 6.87459 13.6901 6.83757 13.5248 6.83824C13.2396 6.83945 13.1403 6.90804 13.1653 7.08653C13.1812 7.20092 13.2392 7.2443 13.4425 7.29386L13.6996 7.35663L13.5569 7.49222C13.424 7.61855 13.4025 7.6217 13.2426 7.53778C13.0738 7.4492 13.0657 7.45278 12.7364 7.76353C12.5523 7.93724 12.4096 8.10664 12.4193 8.13996C12.4291 8.17329 12.2416 8.30622 12.0028 8.43539C11.397 8.76305 10.5435 9.61085 10.4886 9.9396C10.4537 10.1489 10.4013 10.2061 9.99107 10.4825C9.73884 10.6523 9.41918 10.9013 9.28067 11.0357L9.0288 11.2802L9.06503 11.7555L9.10126 12.2307L8.77795 12.0867C8.45973 11.9449 8.45434 11.9383 8.43638 11.662L8.41811 11.3814H7.52183H6.62556L6.15871 11.6189C5.72575 11.8391 5.6779 11.8829 5.49927 12.2219C5.3934 12.423 5.26734 12.7183 5.2192 12.8781C5.13769 13.1487 5.14027 13.1904 5.25638 13.4826L5.38112 13.7964L5.75815 13.8373L6.13517 13.8781L6.6788 13.5083C6.97779 13.3049 7.24703 13.1384 7.27715 13.1384C7.30721 13.1384 7.34865 13.2237 7.36925 13.3279C7.39806 13.4734 7.36494 13.5913 7.22649 13.8362L7.04618 14.155L7.18152 14.1876C7.25595 14.2056 7.44698 14.2393 7.60609 14.2626C7.76514 14.2858 7.90677 14.3355 7.92078 14.3729C7.93479 14.4104 7.96635 14.7273 7.99084 15.0772L8.03546 15.7134L8.63429 15.8203L9.23312 15.9272L9.44272 15.6984C9.55799 15.5727 9.73872 15.3682 9.84441 15.244L10.0365 15.0183L10.5027 15.1158C10.775 15.1728 10.9972 15.2543 11.0372 15.3119C11.3081 15.7024 11.305 15.7009 11.7666 15.654C12.0651 15.6237 12.1974 15.5853 12.1974 15.5291C12.1974 15.3919 12.2999 15.3738 12.5082 15.4743C12.6395 15.5377 12.8068 15.724 12.9987 16.0206L13.2898 16.4707L13.6867 16.475C13.9051 16.4774 14.134 16.4993 14.1957 16.5238C14.3969 16.6038 14.6526 17.187 14.6526 17.5663V17.9045L15.2364 18.1274C15.7771 18.3338 15.8677 18.3503 16.4607 18.3496L17.1011 18.349L17.2953 18.6775C17.4603 18.9565 17.5287 19.0171 17.7493 19.0796C17.8922 19.1201 18.0232 19.1763 18.0404 19.2045C18.1238 19.341 17.9641 19.7208 17.6509 20.1309L17.3094 20.578L17.2356 21.3569C17.1327 22.4439 17.1371 22.4296 16.8249 22.6757C16.5637 22.8816 16.5252 22.893 16.0937 22.893H15.6381L15.4954 23.1575C15.3535 23.4203 15.3532 23.4244 15.4517 23.8213C15.5062 24.0409 15.5508 24.2633 15.5508 24.3156C15.5508 24.3678 15.3438 24.6736 15.0908 24.9952C14.8378 25.3167 14.5595 25.7117 14.4723 25.873C14.332 26.1326 14.2573 26.1939 13.82 26.4078C13.5484 26.5408 13.2676 26.6498 13.196 26.6503C13.1243 26.6507 13.0036 26.6679 12.9278 26.6885C12.7175 26.7454 12.777 26.9644 13.022 27.0352C13.1836 27.0819 13.2112 27.1139 13.18 27.219C13.1593 27.289 13.0619 27.4319 12.9637 27.5366C12.7892 27.7228 12.7874 27.7308 12.8873 27.885C12.9693 28.0116 13.0372 28.043 13.2288 28.043C13.4644 28.043 13.4676 28.0459 13.4404 28.2399C13.4253 28.3481 13.3772 28.5629 13.3336 28.7171L13.2544 28.9975L13.4622 29.1821C13.5765 29.2837 13.7329 29.4182 13.8097 29.4811C13.9128 29.5657 13.9383 29.6301 13.9076 29.728C13.8695 29.8496 13.827 29.8606 13.3942 29.8606H12.9224L12.4739 29.4633C12.1057 29.1371 11.9626 28.9531 11.675 28.4368L11.3246 27.8078L11.3756 27.1989L11.4266 26.5898L11.1544 26.232L10.8823 25.8741L10.9924 25.265L11.1025 24.6559L10.9313 24.5955L10.7602 24.5352V23.2089V21.8825L10.2961 21.5463C10.0408 21.3615 9.73764 21.1901 9.62237 21.1655C9.38116 21.114 9.32516 21.0493 9.32385 20.8204C9.32319 20.7044 9.14623 20.4323 8.71861 19.8899L8.11432 19.1235L8.17966 18.8609C8.21564 18.7164 8.24505 18.4103 8.24505 18.1805V17.7628L8.66747 17.4682C9.13863 17.1395 9.10192 17.2533 8.98862 16.4726C8.94964 16.2037 8.94389 16.2014 8.18582 16.145C7.76035 16.1133 7.81425 16.1531 7.15457 15.3836C6.88497 15.0691 6.8494 15.0487 6.34614 14.9209C5.82318 14.7881 5.81989 14.7861 5.83839 14.6073C5.85486 14.4479 5.83528 14.423 5.66623 14.3888C5.38004 14.3309 5.31076 14.341 5.31076 14.4411C5.31076 14.5705 5.29866 14.5688 4.21657 14.2832C4.02961 14.2339 3.9441 14.1527 3.71947 13.8108L3.44814 13.3981L3.54887 13.1844L3.64953 12.9708L3.22897 12.3427C2.92356 11.8866 2.79763 11.64 2.76888 11.442C2.68175 10.841 2.67948 10.8361 2.49031 10.8361C2.33946 10.8361 2.31826 10.8556 2.3421 10.9724C2.35743 11.0474 2.38683 11.2451 2.40755 11.4117C2.43468 11.6301 2.52636 11.8414 2.73607 12.169C2.96231 12.5224 3.01968 12.6605 2.99417 12.7901C2.97057 12.9098 2.92536 12.9564 2.83356 12.9558C2.54001 12.9539 2.45102 12.8763 2.14753 12.3577L1.83752 11.8279V11.2211V10.6145L1.5381 10.4726L1.23868 10.3307L1.23629 9.90179C1.23407 9.50573 1.22766 9.48446 1.15245 9.62436C1.00627 9.8964 0.635536 11.0329 0.460856 11.7449C-0.386075 15.196 -0.0616868 18.7225 1.40103 21.9657C3.46892 26.5508 7.75969 29.9078 12.6512 30.7676C17.337 31.5913 22.106 30.2001 25.5813 26.9956C26.1189 26.4999 27.119 25.4356 27.1577 25.318C27.1695 25.2824 27.0739 25.2559 26.9337 25.2559H26.6892V24.7411V24.2263L26.4197 23.8559L26.1502 23.4856V22.8735V22.2615L25.9138 22.0168C25.5657 21.6567 25.5681 21.3958 25.9259 20.6784L26.1994 20.1299L25.6639 19.194L25.1284 18.2581L25.1613 17.8946C25.1795 17.6946 25.2099 17.3916 25.229 17.2213L25.2637 16.9115L24.7867 16.8694C24.3642 16.8322 24.2904 16.8069 24.1408 16.6491C23.9898 16.4896 23.9331 16.4707 23.6044 16.4707C23.2897 16.4707 23.2166 16.4926 23.0961 16.6222C22.9646 16.7639 22.9173 16.7737 22.3671 16.7737C22.0148 16.7737 21.7787 16.798 21.7787 16.8343C21.7787 16.8676 21.635 16.8949 21.4594 16.8949H21.1401L20.4114 16.0509L19.6828 15.207V14.5306C19.6828 13.9179 19.6934 13.8513 19.7961 13.8242C19.8636 13.8063 19.9242 13.7197 19.9459 13.6102C20.0076 13.2979 19.9927 13.2596 19.81 13.2596C19.6651 13.2596 19.6319 13.2296 19.6004 13.0703C19.5798 12.9661 19.563 12.8455 19.563 12.8022C19.563 12.7589 19.9403 12.4466 20.4014 12.1084L21.2398 11.4935V11.0564V10.6193L21.6446 10.398C22.0347 10.1849 22.0658 10.1781 22.4998 10.2113C22.9067 10.2424 22.9806 10.2301 23.2663 10.0836C23.5746 9.92554 24.2969 9.8143 25.0547 9.80818L25.3066 9.80612L25.3242 10.2417L25.3418 10.6774L25.9854 10.8406C26.3394 10.9303 26.6955 11.0479 26.7768 11.1017C26.858 11.1556 26.9793 11.1996 27.0464 11.1996C27.1453 11.1996 27.1682 11.1604 27.1682 10.9912C27.1682 10.8765 27.1894 10.7695 27.2152 10.7533C27.241 10.7371 27.423 10.706 27.6194 10.6841C27.9744 10.6445 27.979 10.646 28.3359 10.9203L28.6952 11.1964L29.329 11.198C29.6776 11.1989 29.9782 11.1841 29.997 11.165C30.0159 11.146 29.9439 10.8665 29.8372 10.544L29.643 9.95759L29.2221 9.93996C28.811 9.92275 28.7967 9.91663 28.6089 9.68028C28.4635 9.49725 28.4085 9.35759 28.3829 9.10718C28.3643 8.92512 28.3327 8.77625 28.3126 8.77637C28.2925 8.7765 28.1935 8.82751 28.0927 8.88973C27.9433 8.98189 27.8949 9.06877 27.8314 9.35905C27.7885 9.55492 27.7398 9.73832 27.7232 9.7665C27.7066 9.79467 27.5615 9.68664 27.4007 9.52639C27.1295 9.25623 27.1083 9.21351 27.1083 8.93742C27.1083 8.65035 27.095 8.62715 26.7341 8.28652C26.3692 7.94215 26.3512 7.93318 26.0155 7.93057C25.8261 7.92912 25.6711 7.93669 25.6711 7.94742C25.6711 7.95814 25.7119 8.08762 25.7618 8.23521C25.8425 8.47374 25.8986 8.52894 26.2688 8.73312C26.6967 8.96916 26.8231 9.0844 26.6998 9.12597C26.6604 9.13923 26.6293 9.26368 26.6293 9.40764C26.6293 9.62515 26.6054 9.67646 26.4767 9.73578C26.2382 9.84581 25.9888 9.82084 25.8531 9.67349C25.6722 9.47695 25.7025 9.43096 25.9855 9.47295C26.1977 9.50446 26.2518 9.49113 26.3112 9.39255C26.376 9.28507 26.3288 9.23823 25.7885 8.87428C25.3723 8.59388 25.1833 8.42878 25.1569 8.32227C25.1362 8.23866 25.1055 8.17026 25.0887 8.17026C25.0719 8.17026 24.9639 8.25399 24.8487 8.35632C24.669 8.51591 24.6003 8.5396 24.3653 8.52294L24.0913 8.50349L23.7401 8.9579C23.5469 9.20782 23.347 9.51457 23.2959 9.6395L23.2029 9.86671H22.5777C22.1344 9.86671 21.901 9.83981 21.7757 9.77425C21.6786 9.72342 21.5989 9.6621 21.5986 9.63793C21.5983 9.61382 21.5709 9.42406 21.5376 9.2163C21.4897 8.91754 21.4949 8.7951 21.5626 8.63109C21.6384 8.44757 21.687 8.41497 21.9849 8.34748C22.2519 8.28707 22.4034 8.28646 22.7161 8.34475C22.933 8.38522 23.1233 8.40534 23.139 8.38952C23.1546 8.37371 23.1715 8.27017 23.1767 8.15947C23.1844 7.99159 23.1629 7.95487 23.0468 7.93827C22.919 7.91991 22.9107 7.89749 22.9464 7.66562C23.0148 7.2197 23.019 7.21455 23.353 7.16893C23.7738 7.11143 23.8281 7.0752 24.1172 6.65817C24.3434 6.33191 24.3928 6.29356 24.6335 6.25702C24.7799 6.23479 25.0638 6.23539 25.2643 6.25836L25.6288 6.3001L25.5938 5.95645C25.5745 5.76748 25.5442 5.59813 25.5265 5.58026C25.5088 5.56233 25.363 5.60286 25.2024 5.67042L24.9105 5.79311L24.7889 5.50204C24.6888 5.2623 24.6371 5.20741 24.4956 5.19105C24.3491 5.17408 24.3209 5.14112 24.3045 4.96766C24.2788 4.69623 24.452 4.51568 24.9073 4.33943C25.1614 4.24104 25.2882 4.15264 25.3516 4.02952C25.4005 3.93476 25.4317 3.85164 25.4211 3.84467C25.4104 3.83776 25.1815 3.65049 24.9125 3.4285C23.3498 2.13938 21.2648 1.06431 19.2636 0.515872C17.766 0.105452 15.9029 -0.0784918 14.3532 0.0311717ZM23.0906 5.50471C23.1866 5.95778 23.529 6.44127 23.8327 6.55269C23.878 6.56929 23.8397 6.64902 23.7287 6.76875C23.559 6.95178 23.5352 6.95851 23.0565 6.95851H22.5602L22.5938 6.7616C22.6473 6.44812 22.6619 6.4237 22.808 6.4028C22.8951 6.39026 22.9531 6.33548 22.9645 6.2549C22.9781 6.15827 22.9085 6.07884 22.6801 5.93052C22.3646 5.72573 22.2997 5.56627 22.4524 5.37148C22.5423 5.25678 22.6529 5.21268 22.8666 5.20625C23.0109 5.20195 23.0325 5.23079 23.0906 5.50471ZM22.4414 5.93064C22.6587 6.04836 22.5845 6.26726 22.2374 6.53245C21.8485 6.82945 21.5392 6.87168 21.5392 6.62776C21.5392 6.42067 21.8391 5.93864 21.9864 5.90895C22.2157 5.86272 22.3256 5.86799 22.4414 5.93064ZM14.369 7.78238C14.432 7.84617 14.3438 7.98849 14.2412 7.98849C14.1866 7.98849 14.1154 8.04969 14.0829 8.12445C13.9825 8.35547 13.5148 8.34233 13.5148 8.10852C13.5148 8.00946 13.5555 7.98849 13.7473 7.98849C13.9295 7.98849 13.9867 7.96226 14.0112 7.86732C14.0412 7.75142 14.2819 7.69422 14.369 7.78238ZM13.2154 8.23121C13.2154 8.29688 13.1578 8.34899 13.0657 8.36686C12.9433 8.39049 12.916 8.37189 12.916 8.26483C12.916 8.08235 13.0336 7.97183 13.1361 8.05793C13.1797 8.09452 13.2154 8.1725 13.2154 8.23121Z" fill="url(#paint0_linear_24_164)"/>
<defs>
<linearGradient id="paint0_linear_24_164" x1="0" y1="0" x2="-7.79168e-09" y2="31" gradientUnits="userSpaceOnUse">
<stop stop-color="white"/>
<stop offset="1" stop-color="white" stop-opacity="0"/>
</linearGradient>
</defs>
</svg>
