<svg width="70" height="109" viewBox="0 0 70 109" fill="none" xmlns="http://www.w3.org/2000/svg">
<path d="M45.1492 59.9412C41.3002 59.9441 37.5046 60.8489 34.0628 62.584C30.6209 64.319 27.6272 66.8366 25.3184 69.9378L12.727 61.0741V49.9625C17.0434 49.5855 21.1839 48.0648 24.7278 45.555L24.7469 45.5422L24.7736 45.5255C29.1003 42.4693 32.347 38.1041 34.0425 33.0635C35.7381 28.023 35.7942 22.5696 34.2028 17.4947C32.6114 12.4199 29.4552 7.98788 25.1924 4.84197C20.9296 1.69606 15.7821 0 10.4971 0C5.21204 0 0.0645256 1.69606 -4.19825 4.84197C-8.46102 7.98788 -11.6172 12.4199 -13.2086 17.4947C-14.8001 22.5696 -14.7439 28.023 -13.0484 33.0635C-11.3528 38.1041 -8.10608 42.4693 -3.77946 45.5255L-3.75019 45.5448L-3.72601 45.5601C-0.182323 48.0684 3.95702 49.5885 8.2723 49.9663V61.078L-4.31911 69.9403C-6.47712 67.0512 -9.23154 64.6676 -12.3926 62.9538C-15.5536 61.24 -19.0461 60.2366 -22.6293 60.0129C-26.2125 59.7892 -29.8013 60.3505 -33.1484 61.6581C-36.4954 62.9657 -39.5211 64.9885 -42.017 67.5871C-44.5128 70.1856 -46.4195 73.2982 -47.6056 76.7103C-48.7917 80.1225 -49.2289 83.7529 -48.8873 87.3516C-48.5457 90.9503 -47.4332 94.4316 -45.6266 97.5557C-43.82 100.68 -41.3623 103.372 -38.4227 105.448L-38.3934 105.467L-38.3667 105.485C-34.1968 108.424 -29.2302 110 -24.1404 110C-19.0507 110 -14.084 108.424 -9.91416 105.485L-9.89507 105.472L-9.86962 105.453C-4.9827 102.012 -1.49237 96.912 -0.0395088 91.0887C1.41335 85.2653 0.731205 79.1096 -1.96069 73.7519L10.4945 64.983L22.9549 73.7532C20.2619 79.1097 19.5793 85.265 21.0325 91.0877C22.4857 96.9105 25.9771 102.009 30.8651 105.448L30.8956 105.467L30.9223 105.485C35.092 108.424 40.0584 110 45.148 110C50.2376 110 55.204 108.424 59.3736 105.485L59.3927 105.472L59.4194 105.455C63.7448 102.4 66.9907 98.0361 68.686 92.9971C70.3812 87.9581 70.4376 82.5062 68.8469 77.4328C67.2562 72.3593 64.1012 67.9284 59.8399 64.783C55.5786 61.6377 50.4328 59.9417 45.1492 59.9412ZM-34.9073 102.401V98.1718C-34.9053 96.5183 -34.2522 94.9332 -33.0912 93.7638C-31.9302 92.5945 -30.3561 91.9365 -28.7141 91.9342H-24.2022C-24.1805 91.9342 -24.1614 91.9342 -24.1398 91.9342C-24.1182 91.9342 -24.0991 91.9342 -24.0787 91.9342H-19.5668C-17.9245 91.9362 -16.3501 92.5941 -15.1888 93.7634C-14.0276 94.9327 -13.3743 96.5181 -13.3722 98.1718V102.401C-16.6006 104.435 -20.3319 105.513 -24.1398 105.513C-27.9477 105.513 -31.6789 104.435 -34.9073 102.401ZM-24.1118 87.446H-24.1742C-25.8437 87.4376 -27.4418 86.7629 -28.618 85.5697C-29.7941 84.3766 -30.4523 82.7624 -30.4482 81.0812C-30.4441 79.4 -29.778 77.7891 -28.5959 76.6018C-27.4139 75.4145 -25.8125 74.7478 -24.143 74.7478C-22.4734 74.7478 -20.872 75.4145 -19.69 76.6018C-18.508 77.7891 -17.8419 79.4 -17.8377 81.0812C-17.8336 82.7624 -18.4918 84.3766 -19.668 85.5697C-20.8442 86.7629 -22.4423 87.4376 -24.1118 87.446ZM-8.92014 98.6306V98.1693C-8.9237 95.9696 -9.59863 93.8242 -10.8535 92.0237C-12.1084 90.2233 -13.8825 88.8547 -15.9356 88.1034C-14.6091 86.5266 -13.7582 84.6006 -13.4833 82.5528C-13.2083 80.5049 -13.5207 78.4206 -14.3837 76.5456C-15.2467 74.6707 -16.6242 73.0835 -18.3537 71.9711C-20.0833 70.8587 -22.0927 70.2677 -24.1449 70.2677C-26.1971 70.2677 -28.2065 70.8587 -29.9361 71.9711C-31.6656 73.0835 -33.0431 74.6707 -33.9061 76.5456C-34.7691 78.4206 -35.0815 80.5049 -34.8065 82.5528C-34.5315 84.6006 -33.6806 86.5266 -32.3542 88.1034C-34.4072 88.8548 -36.1812 90.2234 -37.4361 92.0239C-38.6909 93.8243 -39.3659 95.9697 -39.3696 98.1693V98.6332C-41.9889 95.676 -43.7028 92.0191 -44.3047 88.1032C-44.9066 84.1873 -44.3707 80.1797 -42.7617 76.5636C-41.1526 72.9475 -38.5392 69.8773 -35.2364 67.723C-31.9336 65.5688 -28.0825 64.4226 -24.1474 64.4226C-20.2123 64.4226 -16.3612 65.5688 -13.0584 67.723C-9.75566 69.8773 -7.14222 72.9475 -5.53321 76.5636C-3.92419 80.1797 -3.38831 84.1873 -3.99017 88.1032C-4.59203 92.0191 -6.30593 95.676 -8.92523 98.6332L-8.92014 98.6306ZM-0.265369 42.4778V38.2485C-0.263348 36.5949 0.389977 35.0097 1.55127 33.8405C2.71257 32.6714 4.28699 32.0139 5.92915 32.0122H10.4525H10.5022H10.5518H15.0765C16.7184 32.0142 18.2925 32.6719 19.4535 33.841C20.6145 35.0101 21.2677 36.5951 21.2697 38.2485V42.4778C18.0413 44.5113 14.3101 45.5896 10.5022 45.5896C6.69423 45.5896 2.96303 44.5113 -0.265369 42.4778ZM10.5264 27.5239H10.4767C8.80663 27.5173 7.20736 26.8438 6.02991 25.6511C4.85246 24.4584 4.19301 22.8441 4.1963 21.1624C4.19958 19.4806 4.86534 17.8689 6.04744 16.6809C7.22955 15.4929 8.83143 14.8257 10.5015 14.8257C12.1716 14.8257 13.7735 15.4929 14.9556 16.6809C16.1377 17.8689 16.8035 19.4806 16.8068 21.1624C16.8101 22.8441 16.1506 24.4584 14.9732 25.6511C13.7957 26.8438 12.1965 27.5173 10.5264 27.5239ZM-9.90144 25.0517C-9.90421 21.7223 -9.10331 18.4421 -7.56769 15.4935C-6.03208 12.545 -3.80778 10.0165 -1.08631 8.12567C1.63516 6.23487 4.77224 5.03847 8.05481 4.63948C11.3374 4.24049 14.6671 4.65087 17.7572 5.83529C20.8473 7.01971 23.6052 8.94267 25.7935 11.4386C27.9817 13.9345 29.5347 16.9286 30.3188 20.163C31.1028 23.3975 31.0945 26.7754 30.2943 30.0058C29.4942 33.2363 27.9263 36.2225 25.7257 38.7073V38.2459C25.722 36.0462 25.0469 33.9007 23.7918 32.1002C22.5367 30.2996 20.7623 28.9312 18.7089 28.1801C20.0366 26.6036 20.8886 24.6776 21.1645 22.6293C21.4404 20.5811 21.1286 18.4961 20.2659 16.6205C19.4032 14.7449 18.0257 13.1569 16.2959 12.0441C14.5661 10.9312 12.5562 10.3398 10.5035 10.3398C8.45073 10.3398 6.44085 10.9312 4.71103 12.0441C2.98122 13.1569 1.60368 14.7449 0.741009 16.6205C-0.121662 18.4961 -0.433464 20.5811 -0.157585 22.6293C0.118294 24.6776 0.970333 26.6036 2.29797 28.1801C0.244743 28.9313 -1.52958 30.2998 -2.78466 32.1003C-4.03974 33.9008 -4.71492 36.0462 -4.71876 38.2459V38.7099C-8.05231 34.9519 -9.89695 30.0906 -9.90144 25.0517ZM34.3817 102.401V98.1718C34.3837 96.5181 35.037 94.9327 36.1983 93.7634C37.3595 92.5941 38.934 91.9362 40.5762 91.9342H45.0882C45.1085 91.9342 45.1289 91.9342 45.1492 91.9342C45.1696 91.9342 45.19 91.9342 45.2103 91.9342H49.7235C51.3658 91.9362 52.9402 92.5941 54.1015 93.7634C55.2628 94.9327 55.916 96.5181 55.9181 98.1718V102.401C52.6894 104.435 48.958 105.513 45.1499 105.513C41.3417 105.513 37.6103 104.435 34.3817 102.401ZM45.1798 87.446H45.1136C43.4444 87.4378 41.8465 86.7633 40.6704 85.5704C39.4943 84.3776 38.8361 82.7637 38.8402 81.0828C38.8442 79.4019 39.5102 77.7913 40.692 76.6041C41.8737 75.417 43.4749 74.7503 45.1441 74.7503C46.8134 74.7503 48.4146 75.417 49.5963 76.6041C50.7781 77.7913 51.4441 79.4019 51.4481 81.0828C51.4522 82.7637 50.794 84.3776 49.6179 85.5704C48.4419 86.7633 46.844 87.4378 45.1747 87.446H45.1798ZM60.3715 98.6306V98.1693C60.3679 95.9696 59.693 93.8242 58.4381 92.0237C57.1832 90.2233 55.4091 88.8547 53.356 88.1034C54.6824 86.5266 55.5333 84.6006 55.8083 82.5528C56.0833 80.5049 55.7709 78.4206 54.9079 76.5456C54.0449 74.6707 52.6674 73.0835 50.9379 71.9711C49.2083 70.8587 47.1989 70.2677 45.1467 70.2677C43.0945 70.2677 41.0851 70.8587 39.3555 71.9711C37.626 73.0835 36.2485 74.6707 35.3855 76.5456C34.5225 78.4206 34.2101 80.5049 34.4851 82.5528C34.76 84.6006 35.6109 86.5266 36.9374 88.1034C34.8844 88.8548 33.1104 90.2234 31.8555 92.0239C30.6007 93.8243 29.9257 95.9697 29.9219 98.1693V98.6332C27.3026 95.676 25.5887 92.0191 24.9869 88.1032C24.385 84.1873 24.9209 80.1797 26.5299 76.5636C28.1389 72.9475 30.7524 69.8773 34.0552 67.723C37.3579 65.5688 41.209 64.4226 45.1441 64.4226C49.0793 64.4226 52.9304 65.5688 56.2331 67.723C59.5359 69.8773 62.1494 72.9475 63.7584 76.5636C65.3674 80.1797 65.9033 84.1873 65.3014 88.1032C64.6996 92.0191 62.9857 95.676 60.3664 98.6332L60.3715 98.6306Z" fill="url(#paint0_linear_24_74)"/>
<defs>
<linearGradient id="paint0_linear_24_74" x1="10.5" y1="0" x2="10.5" y2="110" gradientUnits="userSpaceOnUse">
<stop stop-color="#6A92BF"/>
<stop offset="1" stop-color="#121A38"/>
</linearGradient>
</defs>
</svg>
