<?xml version="1.0" encoding="utf-8"?><svg viewBox="0 0 502.66 502.66" xmlns="http://www.w3.org/2000/svg" xmlns:xlink="http://www.w3.org/1999/xlink"><style>:root>svg{display:none}:root>svg:target{display:block}</style><svg fill="none" viewBox="0 0 10 15" id="address-icon" xmlns="http://www.w3.org/2000/svg"><path fill-rule="evenodd" clip-rule="evenodd" d="M4.605.007c-1.243.122-2.286.608-3.14 1.462A4.987 4.987 0 00.456 7.083c.063.136 1.056 1.948 2.205 4.027C4.85 15.068 4.809 15 5.002 15c.191 0 .15.068 2.34-3.892 1.15-2.08 2.142-3.892 2.204-4.027a5.02 5.02 0 00.152-3.8 4.915 4.915 0 00-1.16-1.812C7.778.709 6.893.253 5.808.06A7.728 7.728 0 004.605.007zm.646 2.504c.63.07 1.14.325 1.575.786.475.503.693 1.1.66 1.807-.02.419-.067.613-.242.974a2.501 2.501 0 01-1.553 1.317c-.236.072-.31.08-.69.08-.38 0-.454-.008-.69-.08a2.531 2.531 0 01-1.25-.833 3.046 3.046 0 01-.48-.929c-.074-.27-.091-.834-.034-1.116a2.52 2.52 0 012.16-2.003l.25-.028c.016-.002.148.01.294.025z" fill="#E21717"/></svg><svg fill="none" viewBox="0 0 24 16" id="burger" xmlns="http://www.w3.org/2000/svg"><path fill="var(--current-color)" d="M24 14H0v2h24zm0-7H0v2h24zm0-7H0v2h24z"/></svg><svg fill="none" viewBox="0 0 8 7" id="checkbox" xmlns="http://www.w3.org/2000/svg"><path d="M.818 1.09L4 5.546l1.59-2.227 1.592-2.227" stroke="#01BF2B" stroke-width="1.273"/></svg><svg fill="none" viewBox="0 0 31 31" id="clock" xmlns="http://www.w3.org/2000/svg"><path fill-rule="evenodd" clip-rule="evenodd" d="M14.347.017C11.276.292 8.54 1.33 6.115 3.14c-.764.571-2.411 2.218-2.982 2.982-1.616 2.162-2.6 4.529-3.02 7.26-.15.976-.15 3.267 0 4.244.42 2.73 1.404 5.098 3.02 7.26.57.764 2.218 2.41 2.982 2.981 2.163 1.615 4.53 2.6 7.262 3.02.977.15 3.269.15 4.246 0 2.732-.42 5.1-1.405 7.262-3.02.764-.57 2.411-2.217 2.982-2.981 1.616-2.162 2.6-4.53 3.02-7.26.15-.977.15-3.268 0-4.245-.42-2.73-1.404-5.097-3.02-7.26-.57-.763-2.218-2.41-2.982-2.98A15.833 15.833 0 0017.684.132C17.07.04 14.92-.035 14.347.017zm3.056 1.446a14.19 14.19 0 016.65 2.74c.817.61 2.143 1.935 2.752 2.751 1.522 2.037 2.43 4.278 2.775 6.853.1.742.1 2.654 0 3.396-.346 2.575-1.253 4.815-2.774 6.853-.61.816-1.936 2.141-2.753 2.75-1.683 1.257-3.61 2.14-5.551 2.546-1.151.24-1.8.306-3.002.306-1.608 0-2.99-.215-4.427-.688-2.112-.694-3.97-1.845-5.583-3.458-2.284-2.284-3.63-5.03-4.07-8.31-.1-.74-.1-2.654 0-3.395.346-2.575 1.253-4.816 2.774-6.853.61-.816 1.936-2.142 2.753-2.751 2.279-1.701 4.689-2.594 7.704-2.853.49-.042 2.123.025 2.752.113zm-2.342 2.09c-.19.17-.198.193-.198.642 0 .448.007.47.198.641.149.133.259.177.439.177s.29-.044.439-.177c.19-.17.198-.193.198-.641 0-.449-.007-.471-.198-.642-.149-.132-.259-.177-.439-.177s-.29.045-.439.177zM7.128 6.818a.777.777 0 00-.317.32c-.151.31-.058.59.298.904.234.206.322.246.539.246.21 0 .296-.036.446-.186.15-.15.187-.238.187-.447 0-.217-.04-.305-.245-.537-.134-.153-.305-.296-.379-.317l-.226-.064c-.05-.013-.187.023-.303.081zm16.278-.04c-.107.031-.302.18-.44.337-.207.235-.247.323-.247.54a.61.61 0 00.633.633c.217 0 .305-.04.54-.246.338-.298.44-.581.316-.88a.653.653 0 00-.802-.383zm-8.19 1.72c-.39.17-.383.1-.383 3.793 0 2.787.014 3.368.087 3.505.108.204 7.534 7.614 7.73 7.713.485.247 1.095-.399.836-.886-.05-.096-1.718-1.798-3.705-3.783l-3.614-3.608v-3.141c0-3.489.007-3.427-.396-3.595-.251-.105-.309-.105-.555.002zM3.755 14.894c-.403.173-.512.713-.21 1.05.17.19.193.198.641.198.449 0 .472-.007.642-.198.244-.273.245-.604.003-.875-.156-.175-.212-.196-.56-.212-.214-.01-.446.007-.516.037zm22.627 0c-.403.173-.511.713-.21 1.05.17.19.193.198.642.198.448 0 .47-.007.642-.198.243-.273.244-.604.003-.875-.157-.175-.213-.196-.562-.212-.212-.01-.444.007-.515.037zM7.11 22.968c-.356.313-.449.595-.298.904a.755.755 0 00.32.319c.309.151.59.059.904-.297.206-.234.246-.322.246-.54a.61.61 0 00-.633-.633c-.217 0-.305.04-.54.247zm7.952 3.205c-.19.17-.198.194-.198.642s.007.471.198.642c.149.132.259.177.439.177s.29-.045.439-.177c.19-.171.198-.194.198-.642s-.007-.471-.198-.642c-.149-.132-.259-.177-.439-.177s-.29.045-.439.177z" fill="#E21717"/></svg><svg viewBox="0 0 24 24" id="close" xmlns="http://www.w3.org/2000/svg"><path d="M7.257 17.45l-.707-.707 4.243-4.243L6.55 8.257l.707-.707 4.243 4.243 4.243-4.243.707.707-4.243 4.243 4.243 4.243-.707.707-4.243-4.243-4.243 4.243z"/></svg><svg fill="none" viewBox="0 0 15 11" id="email-icon" xmlns="http://www.w3.org/2000/svg"><path fill-rule="evenodd" clip-rule="evenodd" d="M.984.047a.686.686 0 00-.19.076C.76.156 7.134 6.816 7.27 6.892a.64.64 0 00.458 0c.135-.075 6.51-6.736 6.478-6.77a.758.758 0 00-.204-.076C13.848.004 13.127-.001 7.487 0 1.993.002 1.123.008.984.047zm-.93.906C.003 1.106 0 1.328 0 5.5s.003 4.393.054 4.546c.03.088.062.16.073.16.011 0 1.037-1.058 2.28-2.353L4.667 5.5l-2.26-2.353A191.288 191.288 0 00.127.793c-.01 0-.044.072-.073.16zm12.539 2.193l-2.26 2.353 2.26 2.353a191.102 191.102 0 002.28 2.353c.01 0 .044-.072.073-.16.051-.153.054-.375.054-4.546s-.003-4.393-.054-4.546c-.03-.088-.062-.16-.073-.16-.011 0-1.037 1.059-2.28 2.353zM3.01 8.509C1.555 10.023.775 10.856.793 10.876a.76.76 0 00.204.077c.155.042.88.047 6.503.047 5.624 0 6.348-.005 6.503-.047a.755.755 0 00.204-.078c.018-.019-.763-.853-2.223-2.373L9.733 6.158l-.698.72c-.64.659-.718.73-.932.84l-.233.119h-.74l-.233-.12c-.213-.11-.295-.182-.926-.833-.38-.392-.697-.713-.704-.713-.007 0-1.023 1.052-2.257 2.338z" fill="#E21717"/></svg><svg viewBox="0 0 502.664 502.664" id="icon" xmlns="http://www.w3.org/2000/svg"><path d="M153.821 358.226L0 274.337v-46.463l153.821-83.414v54.574L46.636 250.523l107.185 53.431v54.272zm26.273 29.358L282.103 115.08h32.227L212.084 387.584h-31.99zm168.749-29.358v-54.272l107.164-52.999-107.164-52.59v-53.927l153.821 83.522v46.183l-153.821 84.083z" fill="#010002"/></svg><svg fill="none" viewBox="0 0 16 17" id="list-bullet" xmlns="http://www.w3.org/2000/svg"><rect x="1.5" y="14.868" width="13" height="13" rx="6.5" transform="rotate(-90 1.5 14.868)" stroke="url(#ha)" stroke-width="3"/><defs><linearGradient id="ha" x1="8" y1="16.368" x2="8" y2="32.368" gradientUnits="userSpaceOnUse"><stop stop-color="#EDEDED"/><stop offset=".505" stop-color="#E9E9E9" stop-opacity="0"/><stop offset="1" stop-color="#E9E9E9"/><stop offset="1" stop-color="#E9E9E9"/></linearGradient></defs></svg><svg fill="none" viewBox="0 0 32 32" id="phone" xmlns="http://www.w3.org/2000/svg"><path fill-rule="evenodd" clip-rule="evenodd" d="M16.522.038c0 .035-.07.547-.156 1.138a26.477 26.477 0 00-.157 1.186c0 .09.092.125.485.188 1.922.306 4.226 1.212 5.896 2.319a15.053 15.053 0 012.53 2.048c2.205 2.177 3.653 4.811 4.324 7.864.118.537.154.624.258.615.31-.026 2.253-.357 2.292-.39.024-.02-.024-.35-.106-.73A18.323 18.323 0 0022.082 1.72C20.496.94 18.897.403 17.398.145a19.461 19.461 0 01-.735-.136c-.077-.02-.14-.006-.14.029zM4.903 3.115c-.602.125-.878.34-2.486 1.931C1.561 5.894.766 6.733.65 6.911c-1.124 1.728-.788 4.593.992 8.449 1.992 4.316 5.575 8.671 9.686 11.772 2.42 1.826 5.305 3.4 7.698 4.197 1.977.659 3.836.845 5.02.503.885-.256 1.082-.405 2.847-2.16 1.485-1.478 1.658-1.672 1.842-2.065.173-.37.203-.505.203-.91 0-.406-.03-.542-.203-.911-.187-.402-.372-.604-2.468-2.693-1.846-1.84-2.33-2.29-2.61-2.423-.474-.226-.923-.303-1.33-.226-.675.127-.926.315-2.495 1.858-.813.8-1.526 1.454-1.585 1.454-.152 0-1.627-.76-2.196-1.13-2.21-1.443-4.723-3.888-6.33-6.161-.553-.782-.812-1.216-1.182-1.98-.228-.472-.283-.645-.25-.781.029-.112.554-.687 1.476-1.615 1.28-1.288 1.453-1.486 1.626-1.866.328-.723.258-1.413-.214-2.121-.12-.18-1.184-1.29-2.365-2.465-1.928-1.92-2.189-2.158-2.554-2.326-.447-.206-.953-.28-1.355-.196zM16.19 6.55c-.086.452-.315 2.258-.289 2.284.017.016.255.076.53.133 3.207.66 5.77 3.157 6.54 6.37.064.27.126.499.136.507.029.023 2.365-.384 2.4-.419.038-.039-.07-.569-.232-1.144-1.13-3.982-4.487-7.038-8.575-7.805l-.479-.09-.03.164z" fill="var(--current-color)"/></svg><svg fill="none" viewBox="0 0 17 17" id="plus" xmlns="http://www.w3.org/2000/svg"><path fill="var(--current-color)" d="M7.657.914h1.686v15.171H7.657z"/><path fill="var(--current-color)" d="M.915 9.343V7.657h15.17v1.686z"/></svg><svg fill="none" viewBox="0 0 24 24" id="telegram-icon" xmlns="http://www.w3.org/2000/svg"><circle cx="12.073" cy="12.175" r="10.857" stroke="var(--current-color)" stroke-width=".432"/><path fill-rule="evenodd" clip-rule="evenodd" d="M11.39 9.431a728.158 728.158 0 00-5.961 2.161c-.08.05-.155.167-.155.245 0 .095.06.208.137.258.038.025.707.267 1.488.538.78.27 1.43.504 1.445.518.015.014.27.759.567 1.655a75.1 75.1 0 00.578 1.705.33.33 0 00.112.119.449.449 0 00.337.016c.028-.014.401-.292.829-.617.933-.711.902-.69 1.028-.716.2-.042.238-.02 1.412.774 2.058 1.394 1.908 1.298 2.038 1.298a.31.31 0 00.295-.171c.064-.116 2.16-9.56 2.141-9.65-.028-.14-.184-.26-.334-.258-.03 0-2.71.956-5.957 2.125zm3.605-.017a.1.1 0 01.029.064c0 .02-.892.81-1.982 1.755-2.652 2.298-2.757 2.39-2.827 2.503-.094.149-.13.299-.213.889-.043.309-.091.565-.11.594-.036.052-.137.068-.2.03-.018-.01-.175-.48-.35-1.046-.336-1.09-.356-1.186-.275-1.36a.565.565 0 01.118-.153c.097-.086 5.691-3.303 5.743-3.303.02 0 .05.012.067.027z" fill="var(--current-color)"/></svg><svg fill="none" viewBox="0 0 24 24" id="whatsapp-icon" xmlns="http://www.w3.org/2000/svg"><path fill-rule="evenodd" clip-rule="evenodd" d="M11.078 6.872c-.775.076-1.36.243-1.993.57a5.104 5.104 0 00-2.233 2.276 4.526 4.526 0 00-.37.974 4.28 4.28 0 00-.16 1.26c0 .257.01.534.025.642.11.822.368 1.53.8 2.193l.143.22-.32.942a32.16 32.16 0 00-.313.948 33.5 33.5 0 00.977-.304c.533-.17.977-.31.986-.31.009 0 .091.047.183.104a5.132 5.132 0 004.539.376 5.173 5.173 0 003.075-3.47c.127-.48.159-.743.159-1.3s-.032-.82-.159-1.3a5.166 5.166 0 00-3.823-3.704 4.854 4.854 0 00-1.034-.117 8.352 8.352 0 00-.482 0zm-1.224 2.38c.033.017.08.065.103.108.06.107.548 1.28.563 1.352.018.09-.071.245-.27.47-.21.233-.254.308-.235.392.033.153.498.768.784 1.039.444.42 1.115.818 1.414.84.153.01.21-.033.444-.346.107-.142.22-.284.253-.316.078-.078.193-.094.322-.046a18.87 18.87 0 011.247.606l.068.051-.011.213c-.03.545-.22.828-.727 1.075-.482.234-.86.227-1.597-.027-.99-.342-1.516-.669-2.228-1.384a7.529 7.529 0 01-.9-1.075c-.477-.683-.66-1.21-.606-1.745.044-.429.194-.746.497-1.048.147-.147.339-.207.628-.197a.723.723 0 01.25.037z" fill="var(--current-color)"/><circle cx="11.628" cy="12.175" r="10.857" stroke="var(--current-color)" stroke-width=".432"/></svg></svg>