<svg width="100" height="100" viewBox="0 0 100 100" fill="none" xmlns="http://www.w3.org/2000/svg">
<path fill-rule="evenodd" clip-rule="evenodd" d="M48.4549 30.2552C47.7564 30.3953 46.4358 30.8426 45.5201 31.2491C44.1701 31.8485 43.5569 32.2694 42.2761 33.4757C40.4696 35.1772 39.6455 36.542 39.0015 38.8988C38.249 41.6518 38.842 44.9589 40.5318 47.436C40.8025 47.8326 40.9953 48.1771 40.9606 48.2012C40.9259 48.2256 40.4731 48.5109 39.9547 48.8351C38.6052 49.6793 36.6294 51.4341 35.5725 52.7276C34.3133 54.2686 32.834 57.1604 32.3252 59.0765C31.956 60.4665 31.9269 60.8351 32.1092 61.8189C32.5804 64.365 34.1152 66.0062 36.6854 66.7125C37.5954 66.9624 39.4635 67 51 67C62.5365 67 64.4046 66.9624 65.3146 66.7125C67.8848 66.0062 69.4196 64.365 69.8908 61.8189C70.0731 60.8351 70.044 60.4665 69.6748 59.0765C69.166 57.1604 67.6867 54.2686 66.4275 52.7276C65.3705 51.4341 63.3948 49.6793 62.0453 48.8351C61.5269 48.5109 61.0741 48.2256 61.0394 48.2012C61.0047 48.1771 61.1975 47.8326 61.4682 47.436C63.158 44.9589 63.751 41.6518 62.9985 38.8988C62.3545 36.542 61.5304 35.1772 59.7239 33.4757C58.4439 32.2702 57.8299 31.8487 56.485 31.2519C53.7349 30.0316 51.1618 29.7123 48.4549 30.2552ZM53.3271 37.9072C56.3785 39.6528 56.1209 43.752 52.8716 45.152C51.5961 45.7016 50.3989 45.7009 49.1364 45.1502C47.9677 44.6402 47.4349 44.1383 46.897 43.0405C46.341 41.9059 46.3746 40.7814 46.9988 39.6223C48.2031 37.3864 51.0622 36.6115 53.3271 37.9072ZM54.0584 53.2743C57.112 54.0259 59.803 56.1006 61.3221 58.8746L61.7958 59.7395H51H40.2042L40.6779 58.8746C42.2529 55.9988 45.2135 53.7918 48.2537 53.2275C48.8471 53.1173 49.5091 52.99 49.7249 52.9445C50.3632 52.8098 52.9811 53.0091 54.0584 53.2743Z" fill="url(#paint0_linear_101_559)"/>
<path fill-rule="evenodd" clip-rule="evenodd" d="M28.9942 2.23416C25.9762 2.84479 23.8818 3.77263 21.683 5.47295C19.3422 7.28328 17.4874 9.87687 16.5616 12.6344L16 14.3068V49.5211V84.7354L16.5616 86.4078C18.1773 91.2206 22.2554 94.9884 27.4646 96.4812L29.2748 97H51.5H73.7252L75.5354 96.4812C82.1863 94.5751 86.902 88.9682 86.9771 82.8771C86.9974 81.2236 86.9475 80.9406 86.5227 80.3095C86.2602 79.9193 85.6784 79.3758 85.23 79.1017C84.5508 78.6863 84.1914 78.6031 83.0779 78.6031C81.9644 78.6031 81.605 78.6863 80.9258 79.1017C79.7463 79.8229 79.2849 80.6329 79.0444 82.4051C78.5637 85.947 76.7499 88.2027 73.554 89.233C72.5828 89.5461 71.2048 89.5669 51.3994 89.5669H30.2805L29.1235 89.1352C26.8881 88.3014 25.1956 86.6658 24.4068 84.5773C24.064 83.6699 24.0453 81.8573 24.0453 49.5211C24.0453 17.1849 24.064 15.3723 24.4068 14.4649C25.1956 12.3764 26.8881 10.7408 29.1235 9.90698L30.2805 9.4753H51.3994C71.2048 9.4753 72.5828 9.49611 73.554 9.80923C75.8146 10.538 77.585 12.1018 78.4874 14.1671L78.9547 15.2359L79.0552 40.0744L79.1558 64.913L79.7592 65.7044C81.4234 67.887 84.7326 67.887 86.3966 65.7043L87 64.9126V39.6098V14.3068L86.4384 12.6344C84.8227 7.82162 80.7446 4.05379 75.5354 2.56103L73.7252 2.0422L52.0028 2.00801C34.0243 1.97995 30.0588 2.01879 28.9942 2.23416ZM45.6468 15.6604C44.7745 16.0815 44.4668 16.3671 43.9955 17.1935C43.4977 18.0667 43.4317 18.3512 43.5257 19.221C43.6628 20.4928 44.4304 21.5496 45.6484 22.1437C46.5071 22.5626 46.6905 22.5761 51.5 22.5761C56.3095 22.5761 56.4929 22.5626 57.3516 22.1437C58.5696 21.5496 59.3372 20.4928 59.4743 19.221C59.5683 18.3512 59.5023 18.0667 59.0045 17.1935C58.5332 16.3671 58.2255 16.0815 57.3532 15.6604L56.2813 15.143H51.5H46.7187L45.6468 15.6604ZM49.6695 76.9834C48.7972 77.4045 48.4894 77.6901 48.0182 78.5165C47.5204 79.3897 47.4544 79.6742 47.5483 80.5441C47.6855 81.8159 48.453 82.8727 49.6711 83.4668C52.1633 84.6824 55.1691 83.1627 55.4517 80.5441C55.5456 79.6742 55.4796 79.3897 54.9818 78.5165C54.5106 77.6901 54.2028 77.4045 53.3305 76.9834C52.7102 76.6841 51.9391 76.4661 51.5 76.4661C51.0609 76.4661 50.2898 76.6841 49.6695 76.9834Z" fill="url(#paint1_linear_101_559)"/>
<defs>
<linearGradient id="paint0_linear_101_559" x1="58.2946" y1="30" x2="58.2946" y2="67" gradientUnits="userSpaceOnUse">
<stop stop-color="#F30007"/>
<stop offset="1" stop-color="#C71518"/>
</linearGradient>
<linearGradient id="paint1_linear_101_559" x1="51.5" y1="2" x2="51.5" y2="97" gradientUnits="userSpaceOnUse">
<stop stop-color="#F7F7F7"/>
<stop offset="1" stop-color="#C8C8C8"/>
</linearGradient>
</defs>
</svg>
