<svg width="100" height="100" viewBox="0 0 100 100" fill="none" xmlns="http://www.w3.org/2000/svg">
<path opacity="0.95" fill-rule="evenodd" clip-rule="evenodd" d="M19.7373 1.33012C18.6867 1.82071 4.46968 15.895 3.96294 16.946C3.5239 17.8564 3.45296 18.9917 3.7768 19.9242C3.89295 20.2589 8.46697 26.4426 13.941 33.6658L23.8939 46.7989L22.7011 48.6152C16.414 58.1893 15.6403 70.1861 20.6412 80.5526C26.2901 92.2628 38.548 99.5693 51.5314 98.9652C54.2837 98.8371 56.32 98.516 58.961 97.7935C62.0065 96.9605 65.9286 95.2044 67.6157 93.9184C70.5083 91.7134 68.9624 87.1147 65.3284 87.1147C64.5665 87.1147 63.9934 87.3242 62.1367 88.2816C59.653 89.5624 57.3588 90.3964 54.869 90.9239C52.6128 91.4019 47.5892 91.4019 45.333 90.9239C35.1492 88.7664 27.5953 81.2705 25.4717 71.2146C24.891 68.4645 24.891 64.3008 25.4717 61.5507C26.5212 56.5812 28.712 52.5156 32.2619 48.9495C42.3845 38.7806 58.8113 39.0256 68.5119 49.4899C72.8931 54.2162 75.1222 59.8616 75.1442 66.2869C75.1546 69.3151 74.9946 70.4416 74.0881 73.7227C73.5377 75.7149 73.5082 75.9656 73.726 76.783C74.2468 78.7383 75.7464 79.7997 77.7795 79.6521C79.7756 79.5071 80.8102 78.287 81.6549 75.0817C82.5402 71.7226 82.7794 69.8549 82.7687 66.3826C82.7485 59.7921 81.0265 53.9841 77.4999 48.6138L76.3062 46.7961L86.2597 33.6657C91.7341 26.4439 96.3083 20.2608 96.4248 19.9254C96.749 18.9913 96.6781 17.8567 96.2385 16.9447C95.73 15.89 81.5182 1.82052 80.466 1.33012C79.8053 1.02221 77.7726 1 50.101 1C22.4288 1 20.3968 1.02221 19.7373 1.33012ZM71.1345 8.88886C71.034 9.0206 69.6377 10.873 68.032 13.0058L65.1125 16.8834H50.101H35.0895L32.1699 13.0058C30.5643 10.873 29.168 9.0206 29.0675 8.88886C28.9212 8.69775 33.1573 8.6495 50.101 8.6495C67.0447 8.6495 71.2807 8.69775 71.1345 8.88886ZM30.2084 23.1197C35.2739 29.8528 39.419 35.4149 39.4196 35.4798C39.4201 35.5447 38.8842 35.7929 38.2287 36.0313C35.8413 36.8999 32.1537 38.9857 30.019 40.6754C29.6208 40.9906 29.2651 41.2163 29.2285 41.1775C28.8608 40.7857 12.5293 19.1225 12.5293 19.0263C12.5293 18.7833 20.632 10.7549 20.8153 10.8162C20.916 10.8499 25.1429 16.3865 30.2084 23.1197ZM83.6182 14.8232C85.8483 17.0603 87.6727 18.9503 87.6727 19.0231C87.6727 19.1194 71.3643 40.7581 70.9823 41.1687C70.9504 41.2029 70.2944 40.7665 69.5242 40.1992C67.2051 38.4905 64.577 37.0308 62.0209 36.0319C61.3916 35.786 60.8433 35.5585 60.8024 35.5263C60.7614 35.4944 60.9386 35.1857 61.1961 34.8404C67.6359 26.2038 79.3316 10.7558 79.4306 10.7558C79.504 10.7558 81.3883 12.5863 83.6182 14.8232ZM59.2555 24.6168C59.2555 24.6576 57.7105 26.7404 55.822 29.2456L52.3887 33.8003H50.101H47.8133L44.38 29.2456C42.4915 26.7404 40.9465 24.6576 40.9465 24.6168C40.9465 24.5762 45.066 24.5429 50.101 24.5429C55.136 24.5429 59.2555 24.5762 59.2555 24.6168Z" fill="url(#paint0_linear_101_576)"/>
<path opacity="0.95" fill-rule="evenodd" clip-rule="evenodd" d="M47.4435 57.4729C44.7063 58.3407 43.945 62.1763 46.1415 64.032C46.7388 64.5368 46.7407 64.5443 46.7407 66.4294C46.7407 68.2918 46.7323 68.3269 46.1907 68.729C45.8882 68.9534 45.4591 69.5139 45.2371 69.9744C44.3064 71.9048 45.0565 74.1274 46.9715 75.1133C47.5747 75.4239 48.1032 75.4777 50.5551 75.4777C53.007 75.4777 53.5355 75.4239 54.1387 75.1133C56.0537 74.1274 56.8038 71.9048 55.8731 69.9744C55.6511 69.5139 55.222 68.9534 54.9195 68.729C54.3779 68.3269 54.3695 68.2918 54.3695 66.4294C54.3695 64.5443 54.3714 64.5368 54.9687 64.032C56.8315 62.4584 56.6412 59.39 54.5921 57.9592C53.7695 57.385 53.7518 57.3821 50.873 57.3425C49.2821 57.3206 47.7388 57.3792 47.4435 57.4729Z" fill="url(#paint1_linear_101_576)"/>
<defs>
<linearGradient id="paint0_linear_101_576" x1="50.1009" y1="1" x2="50.1009" y2="99" gradientUnits="userSpaceOnUse">
<stop stop-color="#F7F7F7"/>
<stop offset="1" stop-color="#C8C8C8"/>
</linearGradient>
<linearGradient id="paint1_linear_101_576" x1="50.5551" y1="57.3379" x2="50.5551" y2="75.4777" gradientUnits="userSpaceOnUse">
<stop stop-color="#FF0101"/>
<stop offset="1" stop-color="#A91F23"/>
</linearGradient>
</defs>
</svg>
