<svg width="100" height="100" viewBox="0 0 100 100" fill="none" xmlns="http://www.w3.org/2000/svg">
<path fill-rule="evenodd" clip-rule="evenodd" d="M48.2797 0.259046C40.3172 1.37099 33.4482 5.96026 29.1482 13.0408C26.1326 18.0065 24.856 24.3893 25.7177 30.1931C26.7093 36.8722 30.0022 42.7798 35.0884 47.0043C35.9612 47.7293 36.0237 47.8311 35.6747 47.9577C28.0065 50.7373 22.3845 54.1808 16.848 59.489C9.9485 66.1039 5.06948 74.4627 2.72104 83.6907C1.90396 86.9014 1.79902 88.7418 2.31651 90.7882C3.26824 94.5523 5.36966 97.1925 8.70579 98.816C11.1056 99.9838 10.1033 99.9345 31.4873 99.9345H51.1419L51.9342 99.4101C53.154 98.6027 53.6539 97.6473 53.6539 96.1232C53.6539 94.599 53.154 93.6436 51.9343 92.8362L51.1423 92.3118L31.8783 92.2141C14.2332 92.1246 12.5633 92.0884 12.0081 91.7843C10.7413 91.0902 9.78513 89.5272 9.78181 88.1449C9.78005 87.4608 10.7015 83.9612 11.4636 81.7573C12.8269 77.8146 15.6432 72.7474 18.362 69.3459C20.9514 66.1059 24.8003 62.611 28.3462 60.2802C35.2967 55.711 42.4075 53.4651 50.8202 53.1813C57.3592 52.9608 63.0209 54.0774 69.8544 56.9357C71.7709 57.7373 72.5888 57.7764 73.9484 57.1312C75.4629 56.4123 76.3163 54.4761 75.8639 52.7847C75.3717 50.9433 74.3369 50.1996 70.0697 48.6194C69.1024 48.2611 68.2411 47.9104 68.1559 47.8401C68.0709 47.7697 68.5106 47.2963 69.1331 46.7881C69.7557 46.28 70.912 45.1448 71.7025 44.2654C81.1539 33.7519 80.7353 17.7743 70.7471 7.78443C64.8282 1.8649 56.5755 -0.899216 48.2797 0.259046ZM55.5775 8.18023C59.3391 8.94269 62.4878 10.6316 65.194 13.3383C75.0617 23.2075 71.1137 39.8397 57.8358 44.3366C53.2244 45.8984 47.9797 45.4876 43.4917 43.2129C37.4439 40.1478 33.6141 34.1446 33.2928 27.2255C33.055 22.1087 35.0434 17.0871 38.7915 13.3383C43.2715 8.85767 49.4915 6.94632 55.5775 8.18023Z" fill="url(#paint0_linear_99_555)"/>
<path fill-rule="evenodd" clip-rule="evenodd" d="M85.4209 60.3639C79.1249 61.3531 73.1476 64.6498 67.7309 70.1207C62.8777 75.0225 59.7595 80.5559 58.5303 86.448C58.1533 88.2548 58.201 92.2552 58.6176 93.7619C60.25 99.6652 64.806 101.814 68.2562 98.3078C70.6561 95.8689 71.8605 93.663 71.9037 91.6276C71.9414 89.8403 71.4116 88.8779 69.0252 86.3999L67.0622 84.3616L67.5908 83.3524C68.3416 81.9197 70.2144 79.3442 71.9817 77.3146C74.4266 74.5064 78.7028 70.9815 81.3447 69.5965L82.3537 69.0678L84.3918 71.0312C86.8695 73.4179 87.8317 73.9477 89.6187 73.91C91.6539 73.8668 93.8595 72.6622 96.298 70.2621C98.0594 68.5282 98.4694 66.4855 97.4547 64.4965C96.6642 62.947 94.2863 61.3171 91.8538 60.6582C90.4309 60.2726 87.0006 60.1156 85.4209 60.3639Z" fill="url(#paint1_linear_99_555)"/>
<defs>
<linearGradient id="paint0_linear_99_555" x1="40.2619" y1="0" x2="40.2619" y2="99.9348" gradientUnits="userSpaceOnUse">
<stop stop-color="#F7F7F7"/>
<stop offset="1" stop-color="#C8C8C8"/>
</linearGradient>
<linearGradient id="paint1_linear_99_555" x1="85.7631" y1="60.2441" x2="85.7631" y2="99.9998" gradientUnits="userSpaceOnUse">
<stop stop-color="#F30007"/>
<stop offset="1" stop-color="#C71518"/>
</linearGradient>
</defs>
</svg>
