<svg width="100" height="100" viewBox="0 0 100 100" fill="none" xmlns="http://www.w3.org/2000/svg">
<path fill-rule="evenodd" clip-rule="evenodd" d="M47.8457 2.04521C42.8217 2.6426 39.5912 3.55711 35.7398 5.47224C31.8307 7.41601 27.2009 11.239 24.6606 14.6205L23.4807 16.1913L21.968 14.6837C19.4555 12.1796 16.7156 11.1064 13.3062 11.2911C8.61714 11.5453 4.95186 14.39 3.43323 18.9536L3 20.2556V39.5984C3 60.2298 3.00724 60.4281 3.94427 65.1719C5.67997 73.9593 9.51015 82.0353 15.1472 88.7925C17.0955 91.1281 21.9047 96.2302 22.5201 96.6144C23.398 97.1627 25.3787 97.119 26.3835 96.5293C27.2494 96.021 27.9027 94.9913 28.0854 93.8466C28.3123 92.4251 27.8551 91.6843 24.5861 88.1765C21.1385 84.477 19.3816 82.3359 17.7774 79.879C14.1121 74.2656 11.9385 68.4762 10.7545 61.1731C10.4942 59.5679 10.4437 56.7613 10.385 40.6749C10.335 27.0215 10.374 21.8242 10.5304 21.2422C10.8485 20.0592 12.0483 18.933 13.1699 18.7645C13.6521 18.692 14.3242 18.6849 14.6636 18.7487C15.5189 18.9094 16.6691 19.6952 17.2134 20.4907L17.67 21.158L17.7629 40.7006L17.8557 60.2432L18.3601 61.6059C19.3081 64.1672 19.2161 64.0532 27.2158 72.6115C33.7868 79.6415 34.6663 80.423 36.0072 80.423C37.6378 80.423 39.2948 79.234 39.6844 77.7842C39.9419 76.8267 39.7951 75.5319 39.3496 74.8327C39.1711 74.5528 36.1422 71.2549 32.6186 67.5042C25.6834 60.1221 25.1012 59.364 25.2377 57.8932C25.4162 55.9729 26.7086 54.6364 28.5738 54.4435C29.4055 54.3576 29.7778 54.4145 30.4213 54.7266C31.0337 55.0234 33.5894 57.6535 41.0743 65.6895C46.4903 71.5043 51.1942 76.6738 51.5272 77.1775C52.5062 78.6578 52.932 80.3557 52.8022 82.2619C52.61 85.0842 51.7628 86.5753 48.7655 89.367C46.4809 91.4947 46.0636 92.2212 46.2157 93.8062C46.3208 94.9015 47.027 96.0777 47.8996 96.6105C48.3427 96.8812 48.8331 96.9747 49.8102 96.9753C51.4451 96.9762 51.9363 96.6753 54.7338 93.958C58.5003 90.2994 60.0299 87.1046 60.2347 82.4689C60.4202 78.2737 59.2304 74.7109 56.5779 71.5186L55.6758 70.433L62.4725 63.0131C66.2106 58.9323 69.5242 55.4026 69.8358 55.1694C72.1748 53.4187 75.6819 55.0641 75.695 57.9183C75.7023 59.4518 75.4561 59.8097 70.6983 65.1842C66.9218 69.4506 66.047 70.5414 65.8567 71.2227C65.3789 72.9317 66.1577 74.6821 67.7491 75.4762C68.9173 76.0593 69.6787 76.0837 70.8575 75.5757C71.6149 75.2495 72.4353 74.4195 76.3701 69.9985C81.0177 64.7765 81.9783 63.4671 82.7086 61.3591C83.0041 60.5066 83.0386 58.7956 83.1259 40.7767L83.221 21.1243L83.7805 20.3179C85.3756 18.0194 88.8112 18.1863 90.1558 20.6275C90.4292 21.1238 90.4733 22.422 90.556 32.3449L90.6488 43.5042L91.1827 44.2922C91.9049 45.3585 93.3893 46.1 94.5414 45.9698C95.8593 45.8211 96.9467 45.0654 97.5138 43.9044L98 42.9094L97.9369 31.4895C97.8812 21.4247 97.837 19.9641 97.5645 19.1806C96.1761 15.187 93.0898 12.383 89.1049 11.4951C87.5237 11.1427 85.1162 11.223 83.6692 11.6761C81.5213 12.349 79.4697 13.7342 78.1956 15.3722L77.5121 16.251L76.8514 15.3704C74.2314 11.8788 70.7746 8.73858 67.1582 6.56455C63.6881 4.47869 59.8406 3.08191 55.645 2.38519C54.0517 2.12053 49.047 1.90237 47.8457 2.04521ZM53.3238 9.57571C60.7977 10.4677 67.2291 14.3921 71.4242 20.6203C73.1668 23.2076 74.4973 26.3543 75.1679 29.4743C75.5051 31.0429 75.5866 32.021 75.5929 34.5767C75.6039 38.9127 75.0087 41.7027 73.2821 45.4106L72.5675 46.945L71.7663 46.9481C69.7405 46.9563 67.1237 47.8705 65.3302 49.1964C64.8866 49.5243 62.5574 51.9349 60.1543 54.553L55.785 59.3132L54.7401 59.5349C52.9585 59.9131 50.1046 60.0213 47.978 59.7914C46.8762 59.6724 45.8194 59.5162 45.6298 59.4442C45.44 59.3722 43.3693 57.2627 41.0279 54.7565C38.6866 52.2503 36.4668 49.9333 36.0949 49.6074C34.4628 48.1775 32.037 47.1749 29.7905 47.0013L28.3242 46.8881L27.7688 45.7859C26.1636 42.6012 25.3083 38.7007 25.3105 34.5767C25.3128 30.5263 26.0513 27.2462 27.7703 23.6512C32.3765 14.0186 42.7365 8.3121 53.3238 9.57571ZM92.3201 57.4835C90.8399 58.265 90.4967 58.8948 89.9905 61.7588C89.005 67.3364 87.8649 70.7988 85.4369 75.5873C83.2364 79.927 80.988 82.9772 76.2681 88.0255C74.637 89.7702 73.1803 91.4337 73.0316 91.722C72.1332 93.4619 72.7603 95.6585 74.4225 96.5942C75.3563 97.1198 77.3607 97.128 78.1984 96.6094C78.8042 96.2345 83.4455 91.3115 85.583 88.7765C91.7261 81.4915 95.8717 72.3096 97.3322 62.754C97.7034 60.3252 97.5874 59.4751 96.7486 58.4767C95.7265 57.2599 93.6326 56.7905 92.3201 57.4835Z" fill="url(#paint0_linear_101_572)"/>
<path fill-rule="evenodd" clip-rule="evenodd" d="M48.9358 16.6896C47.7234 17.3307 47.0787 18.3583 46.96 19.839L46.8633 21.0475L45.9119 21.4749C44.6475 22.0428 42.66 24.0431 42.0417 25.3703C39.7908 30.2008 42.2485 35.9932 47.2157 37.5648C47.7117 37.7216 49.162 37.8983 50.4387 37.9573C53.2865 38.0888 53.4098 38.1643 53.4098 39.7777C53.4098 41.713 53.6327 41.6295 48.1793 41.7373C43.7113 41.8257 43.4414 41.8513 42.8045 42.248C41.8092 42.8679 41.1492 43.9342 41.032 45.1115C40.9473 45.9634 41.0105 46.2557 41.4675 47.1247C41.9026 47.9518 42.1867 48.2376 42.9921 48.6591C43.8266 49.0958 44.2073 49.1769 45.4217 49.1769H46.8616L46.9611 49.9208C47.1275 51.1625 47.887 52.2368 48.9869 52.7856C50.2032 53.3927 51.0394 53.3959 52.2383 52.7975C53.477 52.1791 54.1413 51.2211 54.2828 49.8479C54.3489 49.207 54.478 48.8049 54.618 48.8049C55.2998 48.8049 57.5425 47.4085 58.4671 46.4082C60.1514 44.5861 60.8401 42.6704 60.8349 39.8218C60.8297 36.9399 60.0481 34.8766 58.297 33.1227C56.4883 31.311 54.4947 30.5856 51.3124 30.5808C49.6305 30.5782 49.4589 30.5436 49.0376 30.1214C48.4855 29.5684 48.4512 28.8488 48.9531 28.3461C49.2922 28.0065 49.572 27.9741 52.1664 27.9741C54.8352 27.9741 55.0657 27.9455 55.9522 27.503C58.465 26.2487 58.7649 22.8948 56.5102 21.259C56.0976 20.9596 55.4508 20.6651 55.0727 20.6047C54.4027 20.4974 54.3825 20.4702 54.2724 19.5394C54.0544 17.6966 52.4544 16.2568 50.6244 16.2568C50.0719 16.2568 49.4556 16.4147 48.9358 16.6896Z" fill="#CD1518"/>
<defs>
<linearGradient id="paint0_linear_101_572" x1="50.5" y1="2" x2="50.5" y2="97" gradientUnits="userSpaceOnUse">
<stop stop-color="#F7F7F7"/>
<stop offset="1" stop-color="#C8C8C8"/>
</linearGradient>
</defs>
</svg>
