<svg width="100" height="100" viewBox="0 0 100 100" fill="none" xmlns="http://www.w3.org/2000/svg">
<path fill-rule="evenodd" clip-rule="evenodd" d="M41.7885 46.5361C40.8473 46.9725 40.2162 47.6374 39.8621 48.565C39.7346 48.899 39.4646 49.1021 38.9718 49.2353C35.268 50.2356 35.1772 55.3737 38.846 56.3511L39.6628 56.5688V65.0497V73.5303L38.9491 73.6442C36.6496 74.0104 35.2803 76.7591 36.3257 78.9101C36.8219 79.931 37.6719 80.5793 38.8922 80.8681C39.4706 81.005 39.8493 81.1957 39.8493 81.3502C39.8493 81.491 40.0318 81.9297 40.255 82.3252C41.7764 85.0215 45.8843 84.6191 46.9552 81.6689C47.2907 80.745 47.7396 80.8079 48.133 81.8336C49.2719 84.8039 53.522 84.9482 54.8708 82.0626C55.1184 81.533 55.3218 80.9155 55.3227 80.6904C55.324 80.3889 55.5334 80.188 56.117 79.9276C59.5505 78.3958 62.0248 74.5211 62.034 70.6619C62.0398 68.263 61.0732 65.6807 59.529 63.9701L58.688 63.0381L59.1738 61.8544C59.7593 60.4284 59.9573 58.0495 59.6239 56.4511C59.1929 54.3844 57.652 52.0332 55.9896 50.9053C55.5297 50.5933 55.3265 50.314 55.3248 49.9916C55.3136 47.7427 53.1532 45.8281 51.0297 46.1854C49.8972 46.376 48.7252 47.2279 48.2498 48.2062C47.7193 49.2975 47.127 49.3872 46.779 48.4289C46.3316 47.1961 44.6412 46.0918 43.2054 46.0942C42.949 46.0948 42.3113 46.2935 41.7885 46.5361ZM51.7977 57.1911C52.1768 57.614 52.3414 57.9927 52.3414 58.4418C52.3414 58.8908 52.1768 59.2695 51.7977 59.6924L51.254 60.299L49.1874 60.3617L47.1208 60.4247V58.4418V56.4589L49.1874 56.5218L51.254 56.5846L51.7977 57.1911ZM53.0161 68.122C54.0172 68.5952 54.4856 69.3975 54.4856 70.6392C54.4856 71.8438 54.1061 72.5053 53.0676 73.1119C52.5351 73.423 52.0131 73.4924 49.7777 73.5504L47.1208 73.6191V70.7198V67.8206H49.7496C51.7888 67.8206 52.5213 67.8882 53.0161 68.122Z" fill="url(#paint0_linear_101_567)"/>
<path fill-rule="evenodd" clip-rule="evenodd" d="M47.2141 2.12522C45.9317 2.39117 45.0391 2.6783 44.1376 3.11474C43.5736 3.38793 38.0172 6.80182 31.7902 10.7012L20.4682 17.7908H13.201C4.98507 17.7908 4.39328 17.8556 3.25501 18.8788C1.981 20.0237 2.00002 19.8785 2.00002 28.4711C2.00002 35.7472 2.0209 36.2325 2.36191 36.8985C3.09392 38.3278 4.05395 38.8831 6.00868 39.0079L6.75448 39.0556L6.80184 64.3381L6.84901 89.6208L5.64026 89.6973C4.68042 89.7583 4.26762 89.8875 3.63537 90.3251C1.47609 91.8195 1.48225 94.9415 3.64749 96.4404L4.45593 97H48.9853H93.5147L94.3232 96.4404C96.4948 94.9372 96.4948 91.8201 94.3234 90.3165L93.5151 89.757L84.8611 89.7051L76.207 89.6533V64.3081V38.9628H79.9302H83.6534L83.7058 55.4454L83.7582 71.9279L84.176 72.7065C84.977 74.1993 86.7615 75.0406 88.2694 74.6361C89.2911 74.3621 90.1892 73.7246 90.6468 72.9488C91.0234 72.3101 91.0312 72.0252 91.123 55.6775L91.2162 39.0556L91.962 39.0079C93.4228 38.9147 93.9365 38.7511 94.6055 38.1659C95.9669 36.9752 95.9619 37.0111 95.9666 28.4048C95.9712 19.8369 95.9977 20.0332 94.6681 18.8366C93.5849 17.8618 92.9138 17.7908 84.7829 17.7908H77.5287L66.3802 10.8033C60.2484 6.96024 54.686 3.54319 54.0195 3.20982C52.0832 2.24167 49.012 1.75212 47.2141 2.12522ZM50.3431 9.68325C50.6731 9.82049 56.3967 13.3516 63.0623 17.5299L75.1815 25.1267L81.8471 25.1798L88.5127 25.2329V28.3835V31.534H48.9853H9.458V28.3768V25.2196H15.9399C23.5087 25.2196 21.9826 25.6373 27.8233 21.9671C40.0913 14.2579 47.0931 9.90964 47.587 9.69309C48.3162 9.37347 49.5881 9.36883 50.3431 9.68325ZM48.5192 16.7636C48.4167 16.8 48.1036 16.88 47.8234 16.9415C47.105 17.0992 46.0048 18.1179 45.6041 18.9963C45.1206 20.0564 45.124 23.1529 45.6099 24.1981C46.9659 27.1158 51.0048 27.1158 52.3608 24.1981C52.8152 23.2207 52.8538 20.1546 52.4248 19.1313C52.0936 18.3417 51.3437 17.4966 50.6634 17.1462C50.1685 16.8914 48.8315 16.6527 48.5192 16.7636ZM21.7637 64.3134V89.6641H18.0347H14.3057V64.3134V38.9628H18.0347H21.7637V64.3134ZM68.7031 64.3599L68.7503 89.6641H48.9861H29.2217V64.4373C29.2217 50.5624 29.278 39.1543 29.3468 39.0857C29.4156 39.0172 38.2883 38.9823 49.0638 39.0083L68.6558 39.0556L68.7031 64.3599Z" fill="url(#paint1_linear_101_567)"/>
<defs>
<linearGradient id="paint0_linear_101_567" x1="54.0052" y1="46.0942" x2="54.0052" y2="84.1463" gradientUnits="userSpaceOnUse">
<stop stop-color="#F30007"/>
<stop offset="1" stop-color="#C71518"/>
</linearGradient>
<linearGradient id="paint1_linear_101_567" x1="48.9837" y1="2" x2="48.9837" y2="97" gradientUnits="userSpaceOnUse">
<stop stop-color="#F7F7F7"/>
<stop offset="1" stop-color="#C8C8C8"/>
</linearGradient>
</defs>
</svg>
