<svg width="100" height="100" viewBox="0 0 100 100" fill="none" xmlns="http://www.w3.org/2000/svg">
<path fill-rule="evenodd" clip-rule="evenodd" d="M53.3979 3.04018C43.4428 3.72872 33.9831 7.8358 27.1504 14.4358C20.9799 20.3964 17.1851 27.6669 16.0798 35.646L15.856 37.2609L14.6 38.1775C7.54898 43.3226 3.04545 50.9604 2.13844 59.3117C1.88258 61.6681 2.00122 64.8637 2.43756 67.3623C3.06458 70.9523 4.99633 75.6799 6.97971 78.4777L7.68527 79.473L6.79774 81.6344C4.08671 88.2372 2.16109 93.1641 2.04913 93.7841C1.67128 95.8759 3.52765 97.9957 5.7407 98C6.42083 98.0015 7.17243 97.6945 15.6802 93.9421L22.8027 90.8006L24.2212 91.2433C29.0725 92.7576 34.0807 93.2933 38.6905 92.791C46.8909 91.8977 54.0743 88.5738 59.5348 83.1459C61.0375 81.6523 62.9237 79.3358 63.768 77.9476C64.128 77.3554 64.2702 77.2913 66.1548 76.8717C67.2572 76.6264 69.006 76.1428 70.0412 75.7971L71.9235 75.1685L80.996 79.1776C91.6171 83.8707 92.5573 84.2604 93.256 84.259C94.2524 84.2571 95.1403 83.8794 95.8742 83.1454C96.8109 82.2086 97.1565 81.0909 96.8936 79.849C96.6693 78.7889 89.2391 60.3876 88.5845 59.2703C88.0477 58.3543 86.5875 57.5208 85.5195 57.5208C84.4983 57.5208 83.0482 58.3319 82.437 59.2449C82.0107 59.8816 81.9117 60.2352 81.9059 61.1417C81.8996 62.1443 82.1202 62.8003 84.1073 67.6914C85.322 70.681 86.2728 73.17 86.2203 73.2227C86.1677 73.2752 83.1685 72.0111 79.5555 70.4136C71.8517 67.0069 72.2113 67.0821 69.0874 68.2299C50.5732 75.0322 30.5267 66.1817 24.4957 48.5427C23.6072 45.944 23.2606 43.7142 23.2503 40.5302C23.2401 37.3768 23.4369 35.8163 24.1873 33.1026C25.5375 28.2178 27.8341 24.4027 31.8537 20.3671C34.7716 17.4373 37.0586 15.7713 40.4514 14.1036C45.6844 11.5312 50.3629 10.4605 56.3687 10.4605C62.3745 10.4605 67.0529 11.5312 72.286 14.1036C75.6788 15.7713 77.9658 17.4373 80.8836 20.3671C84.9033 24.4027 87.1999 28.2178 88.5501 33.1026C89.4837 36.4794 89.583 37.9621 89.3647 45.2653C89.3105 47.0815 90.2665 48.3392 92.0679 48.821C93.6571 49.2461 95.5138 48.4404 96.18 47.0366C96.6208 46.1074 96.8379 44.6469 96.9677 41.7372C97.3282 33.6437 94.6649 25.4574 89.4458 18.6188C88.2495 17.0512 84.941 13.6793 83.307 12.3622C77.3905 7.59292 70.3234 4.53851 62.5641 3.39671C60.6702 3.11799 55.2951 2.9089 53.3979 3.04018ZM16.6288 48.0506C18.5065 56.4646 24.0196 64.5905 31.5812 70.0894C37.4076 74.3266 44.5574 76.9998 52.0841 77.755C53.1485 77.8618 54.0507 77.9806 54.0892 78.0191C54.1276 78.0575 53.591 78.5633 52.8966 79.1432C46.6264 84.3791 38.3713 86.5296 30.0958 85.0827C29.1767 84.9221 27.3268 84.4205 25.9849 83.9682C24.4531 83.452 23.2158 83.1459 22.6603 83.1459C21.9423 83.1459 20.9357 83.5145 17.3221 85.1007C14.8729 86.1758 12.8288 87.0152 12.7796 86.9661C12.7306 86.9169 13.3355 85.2643 14.1239 83.2937C15.4609 79.9521 15.5527 79.6345 15.4856 78.5811C15.4253 77.631 15.3057 77.3064 14.7336 76.5385C13.3831 74.7257 12.3553 73.1111 11.6468 71.6893C9.28002 66.9406 8.78669 61.5109 10.2582 56.4079C11.1459 53.3292 13.322 49.4908 15.3907 47.3541C16.2469 46.4698 16.2803 46.4888 16.6288 48.0506Z" fill="url(#paint0_linear_101_580)"/>
<path fill-rule="evenodd" clip-rule="evenodd" d="M40.2116 29.3182C39.3332 29.5743 38.1918 30.7907 37.935 31.7448C37.4905 33.3956 38.151 35.1307 39.5565 36.0045L40.2653 36.4452H58.1828H76.1004L76.8091 36.0045C77.199 35.7622 77.7421 35.225 78.016 34.8111C78.431 34.184 78.5142 33.8522 78.5142 32.8242C78.5142 31.7962 78.431 31.4644 78.016 30.8373C77.7421 30.4234 77.199 29.8862 76.8091 29.6439L76.1004 29.2033L58.4613 29.1717C47.6601 29.1524 40.5855 29.2092 40.2116 29.3182ZM40.2116 44.1726C39.3326 44.4298 38.1918 45.6463 37.935 46.6C37.4905 48.2507 38.151 49.9858 39.5565 50.8597L40.2653 51.3003H52.6262H64.987L65.7398 50.8021C66.8987 50.035 67.3737 49.1274 67.3737 47.6794C67.3737 46.2314 66.8987 45.3237 65.74 44.5566L64.9874 44.0584L52.9049 44.0261C45.6066 44.0066 40.5805 44.0646 40.2116 44.1726Z" fill="url(#paint1_linear_101_580)"/>
<defs>
<linearGradient id="paint0_linear_101_580" x1="49.5" y1="3" x2="49.5" y2="98" gradientUnits="userSpaceOnUse">
<stop stop-color="#F7F7F7"/>
<stop offset="1" stop-color="#C8C8C8"/>
</linearGradient>
<linearGradient id="paint1_linear_101_580" x1="58.156" y1="29.168" x2="58.156" y2="51.3003" gradientUnits="userSpaceOnUse">
<stop stop-color="#FF0101"/>
<stop offset="1" stop-color="#C2151A"/>
</linearGradient>
</defs>
</svg>
