<svg width="100" height="100" viewBox="0 0 100 100" fill="none" xmlns="http://www.w3.org/2000/svg">
<path fill-rule="evenodd" clip-rule="evenodd" d="M14.3008 3.27872C11.4625 3.88591 9.48609 4.8148 7.41424 6.51508C5.2094 8.32458 3.46228 10.917 2.59023 13.6732L2.06128 15.3449V50.543V85.7411L2.59023 87.4128C4.1121 92.2233 7.95342 95.9894 12.86 97.4815L14.5651 98.0001H50.4663H86.3674L88.0725 97.4815C92.9791 95.9894 96.8204 92.2233 98.3423 87.4128L98.8712 85.7411V63.9957V42.2504L98.3629 41.4974C97.5805 40.338 96.6543 39.8628 95.1769 39.8628C93.6996 39.8628 92.7735 40.338 91.9909 41.4974L91.4826 42.2502L91.3879 63.6241L91.2931 84.9981L90.704 86.2055C89.9619 87.726 88.8558 88.953 87.6456 89.5988L86.7054 90.1005L86.6025 88.6638C86.4115 85.9969 85.1238 81.9139 83.3994 78.5083C80.4252 72.6337 75.9174 67.7163 70.1149 64.0167C68.5464 63.0167 64.376 60.9446 63.9316 60.9446C63.5417 60.9446 63.7343 60.647 64.7778 59.638C69.4277 55.1422 71.3736 48.0017 69.7057 41.5551C68.8499 38.2476 67.2807 35.4936 64.8083 32.9603C58.851 26.8562 49.8126 25.2797 42.0356 28.988C40.9937 29.4849 39.587 30.3049 38.9097 30.8105C37.3816 31.9508 35.2576 34.1336 34.3104 35.5373C31.1986 40.1483 30.1941 46.0746 31.6414 51.286C32.0511 52.7617 32.2457 53.2485 33.0888 54.9079C34.0663 56.8319 34.7065 57.7321 36.203 59.2875C37.3022 60.4299 37.5466 60.9446 36.9898 60.9446C36.5546 60.9446 32.3664 63.0293 30.8176 64.0167C27.4639 66.155 24.1317 69.0724 21.7997 71.9121C17.8799 76.6851 14.6727 83.8778 14.33 88.6638L14.2271 90.1005L13.2869 89.5988C12.0767 88.953 10.9706 87.726 10.2286 86.2055L9.63936 84.9981V50.7287C9.63936 18.2285 9.65698 16.4099 9.9798 15.503C10.7228 13.4154 12.3171 11.7805 14.4226 10.9471L15.5124 10.5156L37.3134 10.4227L59.1142 10.3299L59.882 9.83151C61.0687 9.06161 61.5492 8.15742 61.5492 6.69433C61.5492 5.68073 61.4628 5.34547 61.0409 4.72044C60.7614 4.30643 60.2073 3.76907 59.8095 3.52668L59.0863 3.08591L37.2993 3.05267C19.2673 3.02518 15.3036 3.06418 14.3008 3.27872ZM54.3648 35.0168C56.843 35.7893 58.9446 37.2793 60.4246 39.3127C63.9639 44.1756 63.4181 50.5437 59.1037 54.7237C54.3627 59.3165 46.8507 59.2799 42.1188 54.6407C38.4455 51.0391 37.5072 45.7304 39.7427 41.1974C42.4022 35.8047 48.553 33.2049 54.3648 35.0168ZM53.4028 65.9691C63.737 67.1455 72.5867 73.3287 76.9058 82.3905C77.7189 84.0966 79.0735 88.1067 79.0735 88.8079C79.0735 89.4173 78.6404 90.1239 78.0988 90.3986C77.6541 90.6241 73.5621 90.6633 50.4846 90.6633C29.8834 90.6633 23.2735 90.6102 22.8957 90.4413C22.3597 90.2019 21.859 89.4218 21.859 88.8259C21.859 88.6223 22.1595 87.4843 22.5266 86.2967C24.8961 78.6326 30.1826 72.4804 37.4888 68.885C42.5239 66.407 48.1674 65.373 53.4028 65.9691Z" fill="url(#paint0_linear_101_563)"/>
<path fill-rule="evenodd" clip-rule="evenodd" d="M81.4101 3.26377C81.0797 3.40456 80.6964 3.71475 80.5583 3.95306C80.4204 4.19118 79.7529 6.01516 79.0753 8.00632C77.4486 12.7853 77.9194 12.4658 72.5041 12.4658C67.8123 12.4658 67.3872 12.5607 66.7711 13.7446C65.7911 15.6279 66.2079 16.1788 71.2835 19.7107C73.3538 21.1513 73.9572 21.8465 73.9583 22.7925C73.9587 23.109 73.4051 24.9478 72.7282 26.8788C72.0511 28.81 71.4974 30.5989 71.4976 30.8543C71.4977 31.5502 72.1252 32.4238 72.876 32.773C74.1745 33.3772 74.5913 33.2256 77.6835 31.0259C81.0812 28.6088 81.6959 28.2539 82.4844 28.2539C83.2737 28.2539 83.8868 28.6083 87.3005 31.0367C88.6098 31.968 89.9396 32.8185 90.2554 32.9264C91.544 33.3668 93.133 32.478 93.3819 31.1778C93.4857 30.6349 93.2743 29.8362 92.2598 26.9368C91.5723 24.9722 91.0102 23.1066 91.0105 22.791C91.0117 21.8465 91.616 21.1505 93.6854 19.7107C98.761 16.1788 99.1778 15.6279 98.1978 13.7446C97.5817 12.5607 97.1565 12.4658 92.4648 12.4658C87.0495 12.4658 87.5203 12.7853 85.8936 8.00632C85.216 6.01516 84.5483 4.19081 84.4102 3.95231C84.1353 3.47774 83.125 2.98868 82.4431 3.0002C82.2054 3.00429 81.7405 3.12279 81.4101 3.26377Z" fill="url(#paint1_linear_101_563)"/>
<defs>
<linearGradient id="paint0_linear_101_563" x1="50.4663" y1="3.04492" x2="50.4663" y2="98.0001" gradientUnits="userSpaceOnUse">
<stop stop-color="#F7F7F7"/>
<stop offset="1" stop-color="#C8C8C8"/>
</linearGradient>
<linearGradient id="paint1_linear_101_563" x1="88.6801" y1="3" x2="88.6801" y2="33.0786" gradientUnits="userSpaceOnUse">
<stop stop-color="#F30007"/>
<stop offset="1" stop-color="#C71518"/>
</linearGradient>
</defs>
</svg>
