<svg width="24" height="21" viewBox="0 0 24 21" xmlns="http://www.w3.org/2000/svg">
<path fill-rule="evenodd" clip-rule="evenodd" d="M11.8409 4.99363C5.91112 7.22694 1.01008 9.0858 0.949644 9.12441C0.8032 9.21808 0.66717 9.44278 0.666993 9.59137C0.666727 9.77403 0.775152 9.98878 0.916589 10.0857C0.986376 10.1336 2.2099 10.596 3.63556 11.1133C5.06122 11.6307 6.24929 12.0761 6.27575 12.1031C6.30216 12.1301 6.76803 13.5533 7.311 15.2658C7.85397 16.9783 8.32923 18.445 8.36712 18.525C8.40505 18.6051 8.49748 18.7072 8.57254 18.7519C8.72633 18.8435 9.0412 18.8597 9.1868 18.7837C9.23922 18.7563 9.92083 18.2249 10.7015 17.6028C12.4062 16.2444 12.3491 16.286 12.5799 16.2353C12.9446 16.1554 13.0157 16.1961 15.159 17.7143C18.9199 20.3782 18.6459 20.1957 18.8837 20.1957C19.1301 20.1957 19.304 20.0897 19.4218 19.8678C19.5393 19.6467 23.367 1.59873 23.3334 1.42419C23.2824 1.15846 22.9969 0.927966 22.7233 0.931685C22.6677 0.93242 17.7706 2.76027 11.8409 4.99363ZM18.4261 4.96067C18.4553 4.98922 18.4793 5.04422 18.4793 5.08293C18.4793 5.12163 16.8498 6.63077 14.8583 8.43652C10.0142 12.8287 9.82242 13.0064 9.69339 13.2213C9.52262 13.5057 9.45709 13.7923 9.30493 14.9198C9.22517 15.5108 9.13784 15.9996 9.10208 16.055C9.03712 16.1557 8.85337 16.1854 8.7379 16.114C8.70502 16.0937 8.41767 15.194 8.09935 14.1146C7.48438 12.0297 7.44907 11.8471 7.59648 11.5153C7.63588 11.4266 7.73282 11.2945 7.81192 11.2217C7.98938 11.0583 18.2089 4.91012 18.3043 4.90934C18.3421 4.90904 18.3969 4.93213 18.4261 4.96067Z" stroke-width="0.8"/>
</svg>
