<svg width="21" height="21" viewBox="0 0 21 21" xmlns="http://www.w3.org/2000/svg">
<path fill-rule="evenodd" clip-rule="evenodd" d="M9.81224 1.00614C8.37579 1.14594 7.29261 1.45591 6.1178 2.06328C4.32432 2.99053 2.87611 4.46605 1.98069 6.27847C1.63668 6.97481 1.47455 7.40162 1.29475 8.08451C1.06808 8.9452 1.00208 9.46845 1.00004 10.4207C0.999033 10.8947 1.0186 11.4093 1.04527 11.6095C1.2481 13.1316 1.72615 14.4434 2.52566 15.6715L2.79214 16.0809L2.20018 17.8259C1.87459 18.7857 1.61335 19.5761 1.61964 19.5824C1.62596 19.5887 2.44028 19.3354 3.42927 19.0194C4.41829 18.7035 5.24068 18.445 5.25687 18.445C5.27305 18.445 5.42573 18.5316 5.59615 18.6373C5.76657 18.7432 6.12364 18.9337 6.38964 19.0608C8.79491 20.2103 11.5445 20.3087 14.0073 19.3334C16.7978 18.2283 18.9411 15.8108 19.7062 12.9054C19.9406 12.0156 20 11.5277 20 10.495C20 9.46221 19.9406 8.9744 19.7062 8.08451C18.8087 4.67613 16.073 2.02676 12.621 1.22284C12.041 1.08776 11.4375 1.01933 10.7051 1.00562C10.2959 0.997932 9.89409 0.998155 9.81224 1.00614ZM7.54331 5.41445C7.60492 5.44636 7.69123 5.53682 7.73517 5.61543C7.84607 5.81395 8.75049 7.98918 8.77683 8.12077C8.81053 8.2891 8.64569 8.57526 8.2759 8.99045C7.89 9.42365 7.80708 9.56274 7.84142 9.71895C7.9038 10.0024 8.76418 11.1419 9.29428 11.6429C10.1169 12.4205 11.3602 13.1588 11.9142 13.1987C12.199 13.2193 12.3029 13.1388 12.7386 12.5596C12.9363 12.2969 13.1471 12.0329 13.2071 11.9729C13.3506 11.8297 13.5636 11.7993 13.8025 11.8881C14.1089 12.002 15.9822 12.9129 16.1137 13.012L16.2396 13.1069L16.2188 13.5005C16.1655 14.5111 15.8105 15.0358 14.8717 15.492C13.9792 15.9258 13.2806 15.9139 11.9128 15.4418C10.0778 14.8085 9.10373 14.2035 7.7839 12.8772C7.12349 12.2136 6.65418 11.6526 6.11739 10.885C5.23287 9.62021 4.89366 8.64354 4.99463 7.65227C5.07558 6.85749 5.3537 6.27079 5.91542 5.7099C6.18714 5.43852 6.54272 5.32681 7.07788 5.34464C7.30492 5.35218 7.47137 5.37715 7.54331 5.41445Z"/>
</svg>
